SplineFontDB: 3.0
FontName: FedorovskUnicode
FullName: Fedorovsk Unicode
FamilyName: Fedorovsk Unicode
Weight: Medium
Copyright: Copyright 2013-2015 Aleksandr Andreev and Nikita Simmons.\n\nThis font is part of the Ponomar Project Slavonic Computing Initiative. See http://www.ponomar.net/ for more information.\n\nOriginal glyph design by Nikita Simmons. Reencoding for Unicode, OpenType and Graphite feature creation and some tweaking by Aleksandr Andreev.
UComments: "2013-1-9: Created."
Version: 3.1
ItalicAngle: 0
UnderlinePosition: -100
UnderlineWidth: 50
Ascent: 800
Descent: 200
InvalidEm: 0
LayerCount: 2
Layer: 0 0 "Back" 1
Layer: 1 0 "Fore" 0
XUID: [1021 623 1685047925 14299221]
FSType: 8
OS2Version: 0
OS2_WeightWidthSlopeOnly: 0
OS2_UseTypoMetrics: 1
CreationTime: 1357765429
ModificationTime: 1558864553
PfmFamily: 17
TTFWeight: 500
TTFWidth: 5
LineGap: 90
VLineGap: 0
OS2TypoAscent: 0
OS2TypoAOffset: 1
OS2TypoDescent: 0
OS2TypoDOffset: 1
OS2TypoLinegap: 90
OS2WinAscent: 0
OS2WinAOffset: 1
OS2WinDescent: 0
OS2WinDOffset: 1
HheadAscent: 0
HheadAOffset: 1
HheadDescent: 0
HheadDOffset: 1
OS2Vendor: 'PfEd'
Lookup: 4 0 0 "'ccmp' Canonical Equivalents" { "'ccmp' Canonical Equivalents-1"  } ['ccmp' ('DFLT' <'dflt' > 'cyrl' <'dflt' > 'geor' <'dflt' > 'latn' <'dflt' > ) ]
Lookup: 4 0 0 "'ccmp' Precomposed Accents" { "'ccmp' Precomposed Accents-1"  } ['ccmp' ('DFLT' <'dflt' > 'cyrl' <'dflt' > 'geor' <'dflt' > 'latn' <'dflt' > ) ]
Lookup: 4 0 0 "'ccmp' Precomposed Lettered Titlos" { "'ccmp' Precomposed Lettered Titlos-1"  } ['ccmp' ('DFLT' <'dflt' > 'cyrl' <'dflt' > 'geor' <'dflt' > 'latn' <'dflt' > ) ]
Lookup: 4 0 0 "'ccmp' Precomposed Letterforms" { "'ccmp' Precomposed Letterforms-1"  } ['ccmp' ('DFLT' <'dflt' > 'cyrl' <'dflt' > 'geor' <'dflt' > 'latn' <'dflt' > ) ]
Lookup: 4 0 0 "'ccmp' Church Slavonic Ligatures" { "'ccmp' Church Slavonic Ligatures-1"  } ['ccmp' ('DFLT' <'dflt' > 'cyrl' <'dflt' > 'geor' <'dflt' > 'latn' <'dflt' > ) ]

StartChar: uni0021
Encoding: 33 33 1
Width: 256
Flags: W
HStem: 0 144<72.6604 174.151> 634 20G<230 238>
VStem: 54 144<24.25 125.406> 82 67<239.825 464.38>
LayerCount: 2
Fore
SplineSet
53 73 m 1xe0
 53 115 84 144 127 144 c 0
 171 144 198 119 198 80 c 0
 198 38 167 0 122 0 c 0
 121 0 119 0 118 0 c 0
 84 3 61 25 54 54 c 0
 53 62 52 68 53 73 c 1xe0
212 266 m 0
 218 266 226 262 226 255 c 0
 226 233 153 191 138 183 c 0
 127 178 120 175 115 175 c 2
 114 175 l 2
 86 175 82 202 82 232 c 0
 82 243 82 254 82 264 c 0
 84 353 95 448 95 532 c 0
 95 546 84 554 77 562 c 256
 73 567 68 570 62 572 c 0
 50 574 43 585 43 597 c 0
 43 610 46 613 60 618 c 0
 108 634 175 635 222 652 c 0
 225 653 229 654 231 654 c 0
 245 654 252 642 256 630 c 0
 257 628 258 626 258 624 c 0
 258 620 255 616 253 612 c 1
 250 609 243 604 232 599 c 0
 221 594 211 587 204 580 c 0
 193 567 188 554 184 538 c 0
 167 455 152 355 149 258 c 1xd0
 146 249 155 236 166 240 c 0
 178 245 195 266 212 266 c 0
EndSplineSet
Validated: 19457
EndChar

StartChar: uni2E2F
Encoding: 11823 11823 2
Width: 191
GlyphClass: 2
Flags: W
HStem: 525 250
VStem: 20 160
LayerCount: 2
Fore
SplineSet
153 775 m 0
 166 775 180 768 180 759 c 0
 180 739 134 711 125 703 c 0
 121 699 122 691 126 689 c 1
 142 671 155 653 170 637 c 1
 175 628 180 626 180 621 c 0
 180 619 178 613 177 611 c 0
 149 583 126 561 96 541 c 0
 87 535 73 525 63 525 c 0
 55 525 50 533 50 543 c 0
 50 557 64 561 74 571 c 0
 81 575 92 583 97 587 c 1
 99 591 99 595 97 597 c 0
 97 599 94 601 88 605 c 0
 74 615 55 627 41 637 c 0
 33 641 20 649 20 661 c 0
 20 662 19 663 19 665 c 0
 19 666 19 667 20 667 c 0
 21 669 27 675 38 687 c 0
 59 709 88 735 112 755 c 1
 126 765 135 771 142 773 c 0
 146 775 150 775 153 775 c 0
EndSplineSet
Validated: 19457
EndChar

StartChar: uni033E
Encoding: 830 830 3
Width: 0
GlyphClass: 4
Flags: W
HStem: 551 250
VStem: -181 162
AnchorPoint: "Stacking" -41.4445 853.9 basemark 0
AnchorPoint: "Stacking" -132 547.1 mark 0
AnchorPoint: "Yerok" -132 547 mark 0
LayerCount: 2
Fore
SplineSet
-46 801 m 0
 -33 801 -19 794 -19 784 c 0
 -19 764 -65 737 -74 728 c 0
 -78 724 -77 717 -73 715 c 1
 -57 696 -44 679 -30 662 c 0
 -23 654 -19 651 -19 647 c 0
 -19 644 -21 639 -22 637 c 0
 -50 609 -73 587 -103 566 c 0
 -112 560 -126 551 -136 551 c 0
 -144 551 -149 558 -149 568 c 0
 -149 582 -135 587 -125 596 c 0
 -118 601 -107 608 -102 613 c 1
 -100 617 -100 620 -102 623 c 0
 -102 624 -105 627 -112 631 c 0
 -125 640 -144 653 -158 662 c 0
 -166 667 -181 675 -181 686 c 0
 -181 688 -183 690 -181 693 c 0
 -180 695 -172 701 -162 712 c 0
 -140 734 -111 760 -86 780 c 0
 -74 790 -64 796 -57 799 c 0
 -53 800 -49 801 -46 801 c 0
EndSplineSet
Validated: 1
EndChar

StartChar: uni0028
Encoding: 40 40 4
Width: 500
Flags: W
VStem: 129 172<148.431 505.914>
LayerCount: 2
Fore
SplineSet
301 328 m 256
 301 96 331 -65 433 -185 c 1
 410 -219 l 1
 323 -156 255 -80 206 11 c 0
 155 105 129 204 129 309 c 2
 129 347 l 2
 129 589 257 762 410 876 c 1
 433 842 l 1
 331 722 301 560 301 328 c 256
EndSplineSet
Validated: 1
EndChar

StartChar: uni0029
Encoding: 41 41 5
Width: 476
Flags: W
VStem: 260 173<150.831 504.678>
LayerCount: 2
Fore
SplineSet
153 876 m 1
 303 762 433 586 433 347 c 2
 433 309 l 2
 433 70 302 -110 153 -219 c 1
 129 -185 l 1
 229 -69 260 100 260 328 c 0
 260 562 231 722 129 842 c 1
 153 876 l 1
EndSplineSet
Validated: 1
EndChar

StartChar: uni002A
Encoding: 42 42 6
Width: 283
Flags: W
HStem: 569 103<63.4318 87.6831 157.168 180.734>
VStem: 63 25<600.087 640.527> 157 24<601.354 638.588>
LayerCount: 2
Fore
SplineSet
230 692 m 0
 236 692 240 689 240 684 c 0
 240 673 221 660 214 655 c 0
 205 648 181 633 181 621 c 0
 181 606 206 591 216 584 c 0
 225 577 232 571 238 566 c 0
 242 562 244 558 244 555 c 0
 244 550 238 546 231 546 c 0
 229 546 227 545 224 546 c 0
 208 550 187 561 172 566 c 0
 166 568 162 569 159 569 c 0
 153 569 151 565 148 554 c 0
 143 540 138 520 133 507 c 0
 130 500 127 497 123 497 c 0
 101 497 100 560 89 571 c 256
 88 572 87 572 85 572 c 0
 76 572 54 559 48 557 c 0
 41 554 25 546 14 546 c 0
 9 546 3 548 3 553 c 0
 3 563 24 578 30 583 c 0
 40 592 63 606 63 619 c 0
 63 635 40 650 28 658 c 1
 21 664 0 678 0 688 c 0
 0 689 0 690 0 691 c 0
 2 694 7 696 11 696 c 0
 22 696 38 688 45 685 c 0
 53 682 71 672 85 672 c 0
 105 672 105 702 109 720 c 0
 112 732 116 756 127 756 c 256
 149 756 142 682 156 674 c 0
 159 672 162 672 165 672 c 0
 177 672 193 679 200 682 c 0
 206 685 221 692 230 692 c 0
88 623 m 0
 88 604 102 593 121 593 c 0
 138 593 157 603 157 621 c 0
 157 639 141 659 121 659 c 0
 103 659 88 642 88 623 c 0
EndSplineSet
Validated: 19457
EndChar

StartChar: uni002B
Encoding: 43 43 7
Width: 406
Flags: W
HStem: 182 46<18.0959 172 220 382.814> 366 20G<181 189>
VStem: 172 46<13.1855 182 230 377.904>
LayerCount: 2
Fore
SplineSet
218 24 m 0
 218 16 209 13 198 13 c 0
 186 13 173 17 170 24 c 0
 168 28 167 33 167 36 c 0
 167 81 172 132 172 182 c 1
 160 182 148 181 136 181 c 0
 112 180 92 179 73 179 c 0
 55 179 38 180 19 182 c 0
 12 183 10 188 10 194 c 0
 10 204 15 218 18 224 c 0
 20 229 25 231 32 232 c 0
 35 232 35 232 50 232 c 0
 88 232 134 230 172 230 c 1
 172 241 171 249 171 260 c 0
 170 284 169 304 169 323 c 0
 169 341 170 358 172 377 c 0
 173 384 178 386 184 386 c 0
 194 386 208 381 214 378 c 0
 219 376 221 371 222 364 c 0
 222 361 222 361 222 346 c 0
 222 310 220 265 220 228 c 1
 237 228 237 228 256 228 c 0
 281 228 309 229 334 229 c 0
 346 229 356 229 365 228 c 0
 368 228 368 228 372 228 c 0
 380 228 383 219 383 208 c 0
 383 196 379 183 372 180 c 0
 368 178 363 177 360 177 c 0
 316 177 266 182 218 182 c 1
 218 166 218 166 218 146 c 0
 218 119 219 90 219 64 c 0
 219 51 219 40 218 31 c 0
 218 28 218 28 218 24 c 0
EndSplineSet
Validated: 19457
EndChar

StartChar: uni002C
Encoding: 44 44 8
Width: 302
Flags: W
HStem: -158 262 -4 21G<33 51>
VStem: 141 121<-28.9198 68.9944>
LayerCount: 2
Fore
SplineSet
36 -4 m 4x60
 30 -4 27 1 27 8 c 4
 27 28 51 46 65 56 c 4
 97 79 132 95 180 102 c 4
 187 104 194 104 200 104 c 4
 243 104 262 80 262 45 c 4
 262 29 258 11 250 -9 c 5
 237 -45 197 -81 166 -104 c 4
 138 -125 97 -154 59 -158 c 5
 58 -158 58 -158 57 -158 c 4xa0
 43 -158 37 -150 37 -142 c 4
 37 -135 41 -127 48 -122 c 4
 75 -103 104 -77 124 -49 c 4
 131 -39 141 -17 141 1 c 4
 141 13 137 23 126 28 c 4
 123 29 118 30 114 30 c 4
 107 30 100 28 95 24 c 4
 84 16 58 -2 44 -4 c 4
 41 -4 41 -4 36 -4 c 4x60
EndSplineSet
Validated: 19457
EndChar

StartChar: uni002D
Encoding: 45 45 9
Width: 394
Flags: W
HStem: 194 48<15.0959 369.656>
LayerCount: 2
Fore
SplineSet
358 242 m 0
 367 242 370 233 370 222 c 0
 370 210 366 197 360 194 c 0
 354 192 350 191 347 191 c 0
 327 191 301 194 274 194 c 0
 245 195 212 196 180 196 c 0
 164 196 148 195 133 195 c 0
 109 194 89 193 70 193 c 0
 52 193 35 194 16 196 c 0
 9 197 7 202 7 208 c 0
 7 218 12 232 15 238 c 0
 17 243 22 245 29 246 c 2
 78 246 l 2
 119 246 167 243 205 243 c 0
 216 242 228 242 240 242 c 0
 266 242 294 243 319 243 c 0
 332 243 343 243 352 242 c 0
 355 242 355 242 358 242 c 0
EndSplineSet
Validated: 19457
EndChar

StartChar: uni002E
Encoding: 46 46 10
Width: 238
Flags: W
HStem: -0 144<73.2543 174.068>
VStem: 53 146<26.0035 124.02>
LayerCount: 2
Fore
SplineSet
190 115 m 0
 196 105 199 94 199 83 c 0
 199 60 188 37 177 25 c 0
 165 12 147 -0 122 -0 c 0
 121 -0 119 -0 118 -0 c 1
 84 3 61 25 54 54 c 0
 53 60 53 65 53 69 c 0
 53 101 69 124 91 136 c 0
 100 142 113 144 127 144 c 0
 143 144 160 140 170 134 c 0
 179 129 186 122 190 115 c 0
EndSplineSet
Validated: 19457
EndChar

StartChar: uni002F
Encoding: 47 47 11
Width: 390
Flags: W
HStem: 0 21G<70 135.943>
VStem: 70 60<0 60> 300 60<714 774>
DStem2: 70 0 130 0 0.284847 0.958573<17.0908 807.45>
LayerCount: 2
Fore
SplineSet
300 774 m 1
 360 774 l 1
 130 0 l 1
 70 0 l 1
 300 774 l 1
EndSplineSet
Validated: 1
EndChar

StartChar: uni0030
Encoding: 48 48 12
Width: 237
Flags: W
HStem: 0 21G<64.5 77.5> 375 20G<127.5 143.5>
VStem: 10 65<129 234.739> 134 63<150.318 230.736>
LayerCount: 2
Fore
SplineSet
92 375 m 0
 105 387 121 395 134 395 c 0
 153 395 169 384 178 363 c 0
 191 334 197 289 197 246 c 0
 197 170 176 119 146 68 c 0
 134 48 121 31 107 17 c 0
 95 5 83 0 72 0 c 0
 57 0 43 10 34 28 c 0
 19 60 10 106 10 152 c 0
 10 224 26 275 54 326 c 0
 64 346 77 362 92 375 c 0
97 236 m 0
 83 236 75 221 75 203 c 0
 75 182 82 169 93 156 c 0
 98 151 104 148 109 148 c 0
 121 148 132 161 134 175 c 0
 134 179 134 182 134 185 c 0
 134 206 128 218 114 229 c 0
 109 234 103 236 97 236 c 0
EndSplineSet
Validated: 3073
EndChar

StartChar: uni0031
Encoding: 49 49 13
Width: 332
Flags: W
HStem: 283 50<20.3872 110.495>
VStem: 148 134<10.0535 314.318> 156 135<155.648 316>
LayerCount: 2
Fore
SplineSet
156 316 m 1xa0
 134 306 63 283 31 283 c 0
 19 283 13 300 13 333 c 1
 100 348 177 371 246 404 c 0
 252 407 261 409 274 409 c 0
 285 409 291 398 291 377 c 0xa0
 291 374 289 344 286 289 c 0
 283 234 281 189 281 154 c 0
 281 137 281 113 282 84 c 2
 282 40 l 2
 282 21 277 11 266 10 c 0
 210 3 178 0 170 0 c 0
 155 0 148 11 148 32 c 0xc0
 148 63 156 283 156 316 c 1xa0
EndSplineSet
Validated: 19457
EndChar

StartChar: uni0032
Encoding: 50 50 14
Width: 598
Flags: W
HStem: -292 101<383 497.5> -154 21G<35.2308 57.5> 373 42<206.71 349.558>
VStem: 50 120<212.695 306.018> 398 139<159.34 320.174>
LayerCount: 2
Fore
SplineSet
330 415 m 0
 469 415 537 364 537 228 c 0
 537 191 520 156 486 125 c 0
 433 76 331 18 178 -51 c 1
 213 -51 254 -63 301 -87 c 0
 320 -97 357 -119 411 -154 c 0
 449 -178 474 -191 487 -191 c 0
 508 -191 526 -172 541 -134 c 1
 570 -159 l 1
 545 -216 471 -292 394 -292 c 0
 372 -292 342 -278 304 -250 c 1
 256 -211 256 -211 208 -172 c 0
 172 -144 146 -130 130 -130 c 0
 97 -130 69 -138 46 -154 c 1
 32 -128 l 1
 63 -89 112 -49 180 -7 c 0
 261 42 311 75 330 93 c 0
 375 134 398 183 398 239 c 0
 398 306 359 373 297 373 c 0
 215 373 170 349 170 273 c 0
 170 257 172 237 176 213 c 1
 65 181 l 1
 50 193 l 1
 50 366 146 415 330 415 c 0
EndSplineSet
Validated: 19457
EndChar

StartChar: uni0033
Encoding: 51 51 15
Width: 616
Flags: W
HStem: -177 81<324.55 406.686> -155 21G<24.6667 55> -106 83<121.071 201.907> 116 30<237.867 258.405> 314 94<198.169 390>
VStem: 145 25<212 263.874> 407 140<-84.5 39.1382>
LayerCount: 2
Fore
SplineSet
251 408 m 0x9e
 282 408 425 406 454 406 c 0
 507 406 541 407 556 408 c 1
 562 396 l 1
 364 172 l 1
 364 162 l 1
 373 163 382 164 390 164 c 0
 431 164 467 149 498 119 c 0
 531 87 547 48 547 2 c 0
 547 -33 520 -74 466 -122 c 0
 424 -159 384 -177 346 -177 c 0x9e
 316 -177 278 -165 230 -142 c 0
 184 -118 153 -106 140 -106 c 0
 106 -106 72 -122 38 -155 c 1
 20 -128 l 1
 19 -128 l 1
 96 -58 146 -23 170 -23 c 0x7e
 196 -23 236 -35 291 -60 c 0
 346 -84 379 -96 392 -96 c 0
 402 -96 407 -90 407 -79 c 0
 407 -19 394 31 368 71 c 0
 345 106 321 123 295 123 c 0
 276 123 258 121 243 116 c 1
 221 146 l 1
 315 174 371 230 390 314 c 1
 278 314 l 2
 194 314 174 287 170 204 c 1
 145 212 l 1
 143 228 123 297 123 317 c 0
 123 378 166 408 251 408 c 0x9e
EndSplineSet
Validated: 19457
EndChar

StartChar: uni0034
Encoding: 52 52 16
Width: 647
Flags: W
HStem: -1 21G<337.5 353.5> 183 97<469.612 607.315> 195 64<156 330> 203 56<156 324.223> 431 20G<478 482.5>
VStem: 330 157<284.42 421.562> 330 137<30.0147 190>
LayerCount: 2
Fore
SplineSet
634 274 m 1xcc
 627 236 613 206 590 183 c 1xcc
 467 190 l 1
 467 36 l 2
 467 21 462 12 452 7 c 1
 395 2 360 -1 347 -1 c 0
 328 -1 318 9 318 30 c 1
 318 30 320 50 324 97 c 0
 328 143 330 176 330 195 c 1xaa
 206 200 131 203 106 203 c 0x9a
 77 203 52 202 31 200 c 1
 30 227 l 1
 135 336 197 401 214 421 c 0
 269 484 310 545 338 603 c 1
 474 639 l 1
 486 625 l 1
 441 562 381 494 306 419 c 0
 255 368 203 316 150 265 c 1
 156 259 l 1
 330 259 l 1xaa
 330 417 l 1
 373 426 409 434 440 443 c 1
 463 448 476 451 480 451 c 0
 485 451 487 444 487 429 c 0
 487 426 487 422 486 415 c 1
 476 379 468 327 463 260 c 1
 534 266 590 273 630 280 c 1
 634 274 l 1xcc
EndSplineSet
Validated: 19457
EndChar

StartChar: uni0035
Encoding: 53 53 17
Width: 621
Flags: W
HStem: -147 81<324.035 406.686> -76 83<121.071 201.945> 153 75<200.129 391.5> 293 101<347.979 493.5> 345 82<198 276.759> 431 20G<529.5 560.2>
VStem: 130 68<262.167 344.087> 407 140<-54.5 68.8845>
LayerCount: 2
Fore
SplineSet
122 168 m 0xa7
 122 195 130 296 130 323 c 0
 130 362 125 393 114 415 c 1
 125 427 l 1
 220 427 l 2xaf
 267 427 320 422 378 410 c 0
 438 400 472 394 483 394 c 0
 504 394 522 413 537 451 c 1
 566 426 l 1
 541 369 467 293 390 293 c 0x37
 363 293 329 302 288 319 c 0
 247 336 217 345 198 345 c 1
 186 203 l 1
 263 220 326 228 374 228 c 0
 409 228 435 223 450 214 c 0
 499 182 547 109 547 32 c 0
 547 -3 520 -44 466 -92 c 0
 424 -129 384 -147 346 -147 c 0xaf
 317 -147 279 -135 231 -112 c 0
 183 -88 153 -76 140 -76 c 0
 106 -76 72 -91 38 -124 c 1
 20 -98 l 1
 19 -98 l 1
 96 -28 146 7 170 7 c 0x67
 196 7 236 -5 291 -30 c 0
 346 -54 379 -66 392 -66 c 0
 402 -66 407 -60 407 -49 c 0
 407 12 394 62 368 102 c 0
 345 136 321 153 295 153 c 0
 265 153 166 122 148 113 c 1
 125 122 l 1
 123 135 122 151 122 168 c 0xa7
EndSplineSet
Validated: 19457
EndChar

StartChar: uni0036
Encoding: 54 54 18
Width: 552
Flags: W
HStem: 0 43<225.39 366.584> 371 20G<359.5 389.5>
VStem: 38 140<94.4996 270.165> 406 116<116.678 230.866>
LayerCount: 2
Fore
SplineSet
178 177 m 0
 178 111 217 43 279 43 c 0
 364 43 406 79 406 150 c 0
 406 234 360 279 268 284 c 1
 257 304 l 1
 308 362 347 391 372 391 c 0
 407 391 440 372 473 332 c 0
 506 294 522 253 522 212 c 0
 522 65 402 0 246 0 c 0
 107 0 38 66 38 199 c 0
 38 235 55 272 88 310 c 0
 137 367 225 436 353 517 c 2
 497 608 l 1
 511 565 l 1
 397 499 319 445 276 403 c 0
 211 338 178 263 178 177 c 0
EndSplineSet
Validated: 19457
EndChar

StartChar: uni0037
Encoding: 55 55 19
Width: 558
Flags: W
HStem: -153 21G<71.5 230> 321 94<195.756 377>
VStem: 55 175<-152.919 -82.7357> 132 22<182 194.673>
LayerCount: 2
Fore
SplineSet
110 326 m 0xd0
 110 386 163 415 228 415 c 2
 543 415 l 1
 549 403 l 1
 469 330 393 248 322 158 c 0
 304 137 287 103 270 58 c 0
 243 -11 230 -81 230 -153 c 1
 80 -153 l 2
 63 -153 55 -146 55 -136 c 0xe0
 55 -115 71 -85 102 -43 c 2
 377 321 l 1
 265 321 l 2
 184 321 159 266 154 182 c 1
 132 176 l 1
 133 182 132 188 132 195 c 0
 132 211 130 234 122 264 c 0
 114 293 110 314 110 326 c 0xd0
EndSplineSet
Validated: 19457
EndChar

StartChar: uni0038
Encoding: 56 56 20
Width: 618
Flags: W
HStem: -17 76<293.413 411.69> 537 46<208.654 349.292>
VStem: 54 112<163.286 240.477> 80 109<404.177 484.873> 414 120<386.591 479.498> 461 111<130.41 197.5>
LayerCount: 2
Fore
SplineSet
313 583 m 0xd0
 407 583 534 537 534 453 c 0xd8
 534 427 526 404 511 385 c 0
 496 366 469 346 431 325 c 1
 482 306 517 287 538 267 c 0
 561 245 572 216 572 179 c 0
 572 166 561 144 538 113 c 0
 493 53 413 -17 324 -17 c 0
 264 -17 205 3 146 44 c 0
 85 87 54 132 54 181 c 0xe4
 54 233 97 277 183 313 c 1
 114 346 80 384 80 425 c 0
 80 464 105 500 154 533 c 0
 203 566 256 583 313 583 c 0xd0
262 537 m 0
 228 537 189 509 189 476 c 0
 189 448 204 425 233 407 c 0
 252 394 297 376 367 351 c 1
 398 366 414 389 414 421 c 0
 414 493 337 537 262 537 c 0
401 59 m 0
 435 59 461 100 461 135 c 0
 461 159 433 190 377 227 c 0
 318 266 265 285 218 285 c 0
 191 285 166 249 166 222 c 0xe4
 166 189 187 155 230 120 c 0
 279 79 336 59 401 59 c 0
EndSplineSet
Validated: 19457
EndChar

StartChar: uni0039
Encoding: 57 57 21
Width: 572
Flags: W
HStem: 361 42<204.83 342.272>
VStem: 47 115<184.194 288.766> 391 139<123.289 308.955>
LayerCount: 2
Fore
SplineSet
47 192 m 0
 47 341 165 403 323 403 c 0
 461 403 530 337 530 205 c 0
 530 164 515 125 485 86 c 0
 437 24 349 -44 220 -119 c 2
 72 -204 l 1
 58 -161 l 1
 172 -96 250 -42 293 1 c 0
 358 66 391 141 391 227 c 0
 391 292 351 361 290 361 c 0
 205 361 162 325 162 253 c 0
 162 185 208 141 301 120 c 1
 312 100 l 1
 267 43 229 15 197 15 c 0
 160 15 126 34 94 72 c 0
 63 110 47 150 47 192 c 0
EndSplineSet
Validated: 19457
EndChar

StartChar: uni003A
Encoding: 58 58 22
Width: 238
Flags: W
HStem: -0 144<73.2543 173.446> 240 144<73.2543 173.446>
VStem: 53 145<24.3914 124.016 264.391 364.016>
LayerCount: 2
Fore
SplineSet
91 376 m 0
 100 382 113 384 127 384 c 0
 143 384 160 380 170 374 c 0
 189 363 198 342 198 320 c 0
 198 300 191 280 177 265 c 0
 165 252 147 240 122 240 c 0
 121 240 119 240 118 240 c 1
 84 243 61 265 54 294 c 0
 53 300 53 305 53 309 c 0
 53 341 69 364 91 376 c 0
91 136 m 0
 100 142 113 144 127 144 c 0
 143 144 160 140 170 134 c 0
 189 123 198 102 198 80 c 0
 198 60 191 40 177 25 c 0
 165 12 147 -0 122 -0 c 0
 121 -0 119 -0 118 -0 c 1
 84 3 61 25 54 54 c 0
 53 60 53 65 53 69 c 0
 53 101 69 124 91 136 c 0
EndSplineSet
Validated: 19457
EndChar

StartChar: uni003B
Encoding: 59 59 23
Width: 302
Flags: W
HStem: 234 144<92.9059 193.446>
VStem: 74 144<258.391 358.962> 141 121<-12.9198 84.9944>
LayerCount: 2
Fore
SplineSet
111 370 m 0xc0
 120 376 133 378 147 378 c 0
 163 378 180 374 190 368 c 0
 209 357 218 336 218 314 c 0
 218 294 211 274 197 259 c 0
 185 246 167 234 142 234 c 0
 141 234 139 234 138 234 c 1
 104 237 81 259 74 288 c 0
 73 296 72 302 73 307 c 0
 73 337 90 359 111 370 c 0xc0
36 12 m 0
 30 12 27 17 27 24 c 0
 27 44 51 62 65 72 c 0
 97 95 132 111 180 118 c 0
 187 120 194 120 200 120 c 0
 243 120 262 96 262 61 c 0
 262 45 258 27 250 7 c 1
 237 -29 197 -65 166 -88 c 0
 138 -109 97 -138 59 -142 c 1
 58 -142 58 -142 57 -142 c 0
 43 -142 37 -134 37 -126 c 0
 37 -119 41 -111 48 -106 c 0
 75 -87 104 -61 124 -33 c 0
 131 -23 141 -1 141 17 c 0xa0
 141 29 137 39 126 44 c 0
 123 45 118 46 114 46 c 0
 107 46 100 44 95 40 c 0
 84 32 58 14 44 12 c 0
 41 12 41 12 36 12 c 0
EndSplineSet
Validated: 19457
EndChar

StartChar: uni003C
Encoding: 60 60 24
Width: 690
Flags: W
VStem: 45 84<148 258>
DStem2: 45 258 129 203 0.925081 0.37977<56.8194 615.432> 129 203 45 148 0.925081 -0.37977<0 558.613>
LayerCount: 2
Fore
SplineSet
45 258 m 5
 615 492 l 5
 645 417 l 5
 129 203 l 5
 645 -11 l 5
 615 -86 l 5
 45 148 l 5
 45 258 l 5
EndSplineSet
Validated: 19457
EndChar

StartChar: uni003D
Encoding: 61 61 25
Width: 394
Flags: W
HStem: 102 48<15.0959 369.656> 232 48<15.0959 369.656>
LayerCount: 2
Fore
SplineSet
358 150 m 0
 367 150 370 141 370 130 c 0
 370 118 366 105 360 102 c 0
 354 100 350 99 347 99 c 0
 327 99 301 102 274 102 c 0
 245 103 212 104 180 104 c 0
 164 104 148 103 133 103 c 0
 109 102 89 101 70 101 c 0
 52 101 35 102 16 104 c 0
 9 105 7 110 7 116 c 0
 7 126 12 140 15 146 c 0
 17 151 22 153 29 154 c 2
 78 154 l 2
 119 154 167 151 205 151 c 0
 216 150 228 150 240 150 c 0
 266 150 294 151 319 151 c 0
 332 151 343 151 352 150 c 0
 355 150 355 150 358 150 c 0
358 280 m 0
 367 280 370 271 370 260 c 0
 370 248 366 235 360 232 c 0
 354 230 350 229 347 229 c 0
 327 229 301 232 274 232 c 0
 245 233 212 234 180 234 c 0
 164 234 148 233 133 233 c 0
 109 232 89 231 70 231 c 0
 52 231 35 232 16 234 c 0
 9 235 7 240 7 246 c 0
 7 256 12 270 15 276 c 0
 17 281 22 283 29 284 c 2
 78 284 l 2
 119 284 167 281 205 281 c 0
 216 280 228 280 240 280 c 0
 266 280 294 281 319 281 c 0
 332 281 343 281 352 280 c 0
 355 280 355 280 358 280 c 0
EndSplineSet
Validated: 19457
EndChar

StartChar: uni003E
Encoding: 62 62 26
Width: 690
Flags: W
VStem: 561 84<138 248>
DStem2: 75 482 45 407 0.925081 -0.37977<0.73033 559.343> 45 -21 75 -96 0.925081 0.37977<0 558.613>
LayerCount: 2
Fore
SplineSet
645 138 m 1
 75 -96 l 1
 45 -21 l 1
 561 193 l 1
 45 407 l 1
 75 482 l 1
 645 248 l 1
 645 138 l 1
EndSplineSet
Validated: 19457
EndChar

StartChar: uni003F
Encoding: 63 63 27
Width: 558
Flags: W
HStem: 0 150<231.3 353.305> 628 98<241.285 347.581>
VStem: 213 158<17.4828 132.29> 384 95<489.615 583.172>
LayerCount: 2
Fore
SplineSet
85 652 m 0
 85 710 199 726 271 726 c 0
 321 726 369 700 414 648 c 0
 457 597 479 546 479 495 c 0
 479 438 464 394 434 362 c 2
 367 290 l 2
 359 281 351 272 344 263 c 1
 331 251 317 245 302 245 c 256
 270 245 241 291 241 323 c 0
 241 352 265 389 312 434 c 0
 360 479 384 515 384 541 c 0
 384 590 350 628 300 628 c 0
 275 628 254 620 237 603 c 0
 233 599 221 583 201 555 c 0
 189 538 177 530 165 530 c 0
 138 530 121 534 115 543 c 0
 105 559 85 623 85 652 c 0
371 74 m 0
 371 25 344 0 291 0 c 0
 239 0 213 25 213 74 c 0
 213 125 240 150 294 150 c 0
 345 150 371 125 371 74 c 0
EndSplineSet
Validated: 19457
EndChar

StartChar: uni0434
Encoding: 1076 1076 28
Width: 472
GlyphClass: 2
Flags: W
HStem: -163 21G<76 86 299.5 309.5> 0 32<172.062 242.999>
VStem: 59 38<-162.766 -61.4326> 287 32<-167.918 -126.725> 297 135<-58 11>
AnchorPoint: "Right" 389 450 basechar 0
AnchorPoint: "Left" 80 449.5 basechar 0
AnchorPoint: "HalfMark" 263 499.5 basechar 0
AnchorPoint: "Numeral" 253 166 basechar 0
AnchorPoint: "Diacritic" 265 520 basechar 0
AnchorPoint: "Yerok" 371 461.7 basechar 0
LayerCount: 2
Fore
SplineSet
297 -43 m 0xe8
 297 -21 294 -3 279 0 c 1
 259 0 259 0 214 0 c 1
 170 1 149 1 149 1 c 1
 138 0 129 -5 120 -15 c 0
 117 -19 113 -40 106 -78 c 0
 100 -113 97 -133 97 -140 c 0
 97 -154 91 -163 81 -163 c 0
 71 -163 60 -157 59 -148 c 0
 53 -86 36 -35 3 6 c 0
 -1 10 0 15 0 19 c 0
 0 27 7 34 16 34 c 0
 82 34 116 34 117 33 c 0
 118 33 121 35 126 38 c 1
 145 72 182 206 193 287 c 0
 198 324 198 324 203 361 c 0
 204 370 208 375 215 376 c 0
 218 377 235 378 266 379 c 0
 267 379 301 384 313 384 c 0
 315 384 316 384 317 384 c 0
 325 383 327 376 324 367 c 0
 320 357 314 336 307 305 c 1
 306 294 305 282 305 268 c 0
 305 243 307 212 312 175 c 0
 322 95 329 50 334 40 c 0
 337 33 340 29 345 27 c 1
 360 28 375 28 392 28 c 0
 400 28 409 28 418 28 c 1
 425 26 432 16 432 6 c 0xe8
 432 2 430 -3 427 -6 c 0
 381 -52 337 -110 319 -161 c 0
 318 -166 313 -168 306 -168 c 0
 293 -168 287 -165 287 -155 c 0xf0
 287 -151 288 -148 289 -143 c 2
 289 -143 297 -73 297 -43 c 0xe8
172 33 m 0
 173 32 194 32 235 32 c 0
 241 32 243 33 243 36 c 0
 243 38 243 39 242 41 c 0
 237 50 233 72 229 107 c 0
 224 143 221 182 215 182 c 2
 214 182 l 2
 211 182 210 180 209 176 c 0
 200 146 184 83 169 46 c 0
 168 44 168 42 168 41 c 0
 168 37 169 35 172 33 c 0
EndSplineSet
Position2: "Numeral Kerning-1" dx=250 dy=0 dh=0 dv=0
EndChar

StartChar: uni0462
Encoding: 1122 1122 29
Width: 771
GlyphClass: 2
Flags: W
HStem: -163 21G<236.5 281.5> -153 34<417.623 543.914> 475 37<163.262 261.397 422.25 516> 593 53<222.369 273 418.133 467.361>
VStem: 255 161<-116.093 38.9742> 266 153<12.3371 38.9742 260.452 429.359> 268 149<328.594 466.225 512.704 592.94> 546 185<-147 -66.5>
AnchorPoint: "HalfMark" 353 752.5 basechar 0
AnchorPoint: "Diacritic" 354 755.7 basechar 0
AnchorPoint: "Yerok" 586 593.4 basechar 0
LayerCount: 2
Fore
SplineSet
273 576 m 2xb3
 273 592 265 593 251 593 c 0
 249 593 247 593 244 593 c 0
 232 593 221 601 221 613 c 0
 221 630 228 636 236 642 c 0
 240 645 245 646 251 646 c 0
 261 646 277 645 290 645 c 0
 306 645 327 644 341 644 c 0
 373 644 411 645 442 648 c 0
 444 648 447 649 449 649 c 0
 462 649 469 639 469 625 c 0
 469 610 460 599 446 599 c 0
 443 599 440 599 436 599 c 0
 422 599 417 585 417 570 c 2
 417 543 l 2
 417 518 420 512 450 512 c 0
 482 512 514 514 546 517 c 1
 564 516 580 516 595 516 c 2
 632 516 l 2
 640 516 648 517 654 517 c 0
 667 517 675 514 675 501 c 0
 675 480 657 461 646 446 c 0
 639 435 630 423 620 410 c 1
 608 390 597 371 582 354 c 0
 575 345 572 341 561 341 c 0
 544 341 543 356 540 375 c 1
 532 409 528 464 496 472 c 0
 490 474 483 475 475 475 c 0
 440 475 417 468 417 435 c 0xb3
 417 413 418 389 418 371 c 0
 418 352 419 322 419 307 c 1
 421 283 421 280 437 264 c 1
 450 249 488 232 510 221 c 0
 534 210 568 193 590 186 c 1
 611 177 609 169 618 151 c 0
 619 149 621 143 624 131 c 0
 633 89 646 37 655 -7 c 0
 661 -38 667 -72 680 -91 c 0
 691 -106 703 -118 721 -127 c 0
 727 -131 731 -137 731 -144 c 0
 731 -150 727 -155 719 -155 c 0
 718 -155 718 -155 717 -155 c 0
 666 -155 596 -153 542 -153 c 2
 485 -153 l 2x75
 407 -153 321 -163 242 -163 c 0
 231 -163 224 -160 223 -159 c 0
 217 -155 212 -148 212 -140 c 0
 212 -118 250 -129 253 -112 c 0
 254 -108 254 -95 255 -73 c 0xb9
 259 54 266 197 266 327 c 0xb5
 266 361 268 396 268 431 c 0
 268 461 255 468 223 470 c 0
 213 471 205 471 199 471 c 0
 177 471 171 464 159 453 c 0
 141 435 135 390 135 356 c 0
 135 344 131 337 121 337 c 0
 114 337 101 357 96 363 c 2
 80 385 l 2
 61 410 33 427 10 449 c 0
 3 457 -3 467 -3 479 c 0
 -3 495 6 509 23 509 c 0
 74 509 126 509 177 509 c 0
 194 509 221 508 237 508 c 0
 260 509 272 519 272 541 c 1
 273 547 273 552 273 557 c 2
 273 576 l 2xb3
416 -101 m 1x79
 420 -114 442 -119 464 -119 c 0
 481 -119 498 -118 509 -117 c 0
 528 -116 546 -111 546 -93 c 0
 546 -40 535 18 527 63 c 0
 519 108 514 146 493 173 c 1
 480 186 460 202 444 213 c 0
 438 217 430 221 424 221 c 0
 417 221 412 217 412 204 c 0
 412 156 409 90 409 41 c 256
 409 -2 416 -59 416 -101 c 1x79
EndSplineSet
Validated: 19457
Position2: "'ss10' Equal Baseline Kerning Lookup-1" dx=0 dy=150 dh=0 dv=0
EndChar

StartChar: uni0472
Encoding: 1138 1138 30
Width: 505
GlyphClass: 2
Flags: W
HStem: -153 55<199.335 287.139> 263 29<123.02 343.834> 606 58<187.151 278.422>
VStem: 0 123<75.6349 405.592> 345 120<89.2014 429.775>
AnchorPoint: "HalfMark" 237 752.5 basechar 0
AnchorPoint: "Diacritic" 236 761.7 basechar 0
AnchorPoint: "Yerok" 405 658.7 basechar 0
LayerCount: 2
Fore
SplineSet
389 -38 m 0
 343 -111 292 -153 228 -153 c 0
 177 -153 128 -120 82 -53 c 0
 27 28 0 124 0 242 c 0
 0 344 22 438 68 524 c 0
 117 616 170 664 239 664 c 0
 296 664 347 626 392 550 c 0
 441 468 465 371 465 259 c 0
 465 141 439 42 389 -38 c 0
234 606 m 0
 164 606 123 500 123 304 c 0
 123 297 136 293 163 292 c 0
 196 292 196 292 229 292 c 0
 246 291 261 291 274 291 c 0
 320 291 343 295 344 302 c 0
 341 418 320 606 234 606 c 0
243 -98 m 0
 329 -98 345 92 345 219 c 0
 345 227 345 235 345 243 c 0
 345 252 338 258 323 259 c 0
 317 260 215 263 184 263 c 0
 150 263 123 261 123 249 c 0
 123 181 132 120 141 73 c 0
 162 -41 196 -98 243 -98 c 0
EndSplineSet
Validated: 19457
Position2: "'ss10' Equal Baseline Kerning Lookup-1" dx=0 dy=150 dh=0 dv=0
EndChar

StartChar: uni0466
Encoding: 1126 1126 31
Width: 912
GlyphClass: 2
Flags: W
HStem: -156 41<0.0822754 49.8897 187.784 245.787 305.783 365.006 494.997 551.894 616.082 674.139 815.958 871.991> 219 31<287.395 361.977 505.514 543.975> 608 43<305.125 357 503.007 556.734>
VStem: 32 131<-90.4086 91.9209> 357 19<479 486> 365 130<-115.997 211.858> 400 104<485 584> 690 141<-104.426 93.7167>
AnchorPoint: "HalfMark" 435 752.5 basechar 0
AnchorPoint: "Yerok" 761 460.7 basechar 0
AnchorPoint: "Diacritic" 436 751.7 basechar 0
LayerCount: 2
Fore
SplineSet
318 608 m 1xf9
 301 613 305 622 305 628 c 1
 305 643 316 650 333 650 c 0
 350 650 367 646 387 646 c 0
 424 646 468 651 505 651 c 0
 514 651 523 651 531 650 c 0
 549 648 552 644 557 629 c 0
 557 628 558 626 558 625 c 0
 558 617 551 608 540 608 c 0
 535 608 531 608 526 608 c 0
 512 608 503 604 503 592 c 0
 503 590 504 587 504 584 c 0xfb
 504 537 513 509 532 475 c 0
 558 428 590 396 633 352 c 0
 670 314 701 281 726 253 c 0
 788 184 831 123 831 -3 c 0
 831 -46 824 -73 816 -105 c 0
 815 -109 820 -115 826 -115 c 0
 833 -114 841 -112 848 -112 c 0
 863 -112 872 -124 872 -136 c 0
 872 -152 860 -156 839 -156 c 0
 806 -156 777 -153 735 -153 c 0
 692 -153 670 -156 641 -156 c 0
 622 -156 616 -149 616 -133 c 0
 616 -122 623 -113 636 -113 c 0
 641 -113 646 -114 651 -114 c 0
 670 -114 674 -94 680 -81 c 0
 687 -63 690 -43 690 -17 c 0
 690 84 648 140 602 196 c 0
 596 202 589 217 577 217 c 0
 574 217 571 217 568 217 c 0
 554 217 544 219 533 219 c 0
 525 219 516 217 505 212 c 0
 498 209 499 204 496 197 c 256
 495 194 493 185 493 172 c 0
 493 144 491 114 491 83 c 0
 491 21 495 -41 495 -99 c 0
 495 -107 495 -107 495 -108 c 0
 495 -113 501 -116 506 -116 c 0
 514 -116 524 -113 532 -113 c 0
 545 -113 552 -123 552 -133 c 0
 552 -149 543 -156 524 -156 c 0
 492 -156 460 -153 425 -153 c 0
 383 -153 361 -157 331 -157 c 0
 315 -157 311 -152 306 -136 c 0
 305 -134 305 -133 305 -131 c 0
 305 -122 314 -114 326 -114 c 0
 335 -114 345 -116 353 -116 c 0
 366 -116 365 -112 365 -99 c 0xf5
 365 -47 367 13 367 68 c 0
 367 101 367 101 367 129 c 0
 367 147 366 162 366 175 c 0
 366 196 362 194 362 209 c 0
 362 220 331 221 312 221 c 2
 298 221 l 2
 277 221 258 220 250 207 c 0
 230 175 206 145 190 106 c 0
 175 71 163 30 163 -18 c 0
 163 -60 174 -73 190 -99 c 0
 195 -107 199 -115 211 -115 c 0
 216 -115 223 -114 228 -114 c 0
 239 -114 246 -124 246 -132 c 0
 246 -147 238 -156 219 -156 c 0
 190 -156 169 -153 130 -153 c 2
 22 -153 l 2
 7 -153 0 -150 0 -133 c 0
 0 -123 6 -114 20 -114 c 0
 28 -114 39 -115 48 -115 c 0
 61 -115 53 -103 51 -97 c 0
 39 -66 32 -47 32 -4 c 0
 32 71 54 118 88 167 c 0
 106 193 130 222 160 253 c 0
 188 283 223 318 263 357 c 1
 321 416 357 479 357 584 c 0
 357 589 357 590 357 604 c 1
 340 604 329 604 318 608 c 1xf9
415 250 m 2
 492 250 l 2
 509 250 544 250 544 261 c 0
 544 264 542 266 538 270 c 0
 479 321 421 377 402 469 c 0
 401 477 400 482 400 485 c 0
 400 492 396 506 387 506 c 0
 377 506 376 486 376 476 c 0
 376 437 356 397 342 366 c 0
 326 332 306 296 289 268 c 0
 288 266 287 264 287 262 c 0
 287 250 311 248 334 248 c 0
 363 248 386 250 415 250 c 2
EndSplineSet
Validated: 19457
Position2: "'ss10' Equal Baseline Kerning Lookup-1" dx=0 dy=150 dh=0 dv=0
EndChar

StartChar: uni20DD
Encoding: 8413 8413 32
Width: 0
GlyphClass: 4
Flags: W
HStem: 0 37<-468.829 -255.641> 683 35<-465.813 -259.098>
VStem: -718 36<251.637 466.547> -45 35<252.216 467.716>
AnchorPoint: "Numeral" -366 356 mark 0
LayerCount: 2
Fore
SplineSet
-10 357 m 0
 -10 260 -44 177 -111 107 c 0
 -179 36 -262 0 -359 0 c 1
 -458 0 -543 35 -612 104 c 0
 -682 173 -717 258 -718 357 c 0
 -718 456 -683 541 -614 611 c 1
 -545 683 -462 718 -365 718 c 2
 -362 718 l 2
 -265 718 -183 684 -114 615 c 0
 -44 544 -10 459 -10 357 c 0
-139 590 m 0
 -200 652 -275 683 -362 683 c 0
 -363 683 -364 683 -365 683 c 0
 -453 682 -528 650 -590 587 c 0
 -651 524 -682 449 -682 361 c 0
 -682 360 -682 359 -682 358 c 0
 -682 268 -651 192 -588 130 c 0
 -525 68 -449 37 -359 37 c 1
 -272 38 -197 71 -136 133 c 0
 -75 196 -45 271 -45 358 c 0
 -45 450 -76 527 -139 590 c 0
EndSplineSet
Validated: 1
EndChar

StartChar: uni0488
Encoding: 1160 1160 33
Width: 839
GlyphClass: 4
Flags: W
HStem: 634 20G<209 232 692.5 714.5>
DStem2: 114 424 74 286 0.914628 0.404295<-93.0061 2.41676> 223 652 184 514 0.914629 0.404295<-92.0921 2.74836> 450 772 410 634 0.914628 0.404295<-92.9645 2.41676> 818 330 680 366 0.415556 -0.909568<-92.9886 3.49667> 706 654 666 516 0.914771 0.403973<-92.9255 2.49195>
AnchorPoint: "Numeral" 432 336 mark 0
LayerCount: 2
Fore
SplineSet
755 567 m 1
 725 540 695 523 666 516 c 1
 642 539 626 568 617 603 c 1
 649 628 679 645 706 654 c 1
 723 631 740 602 755 567 c 1
498 684 m 1
 469 658 439 641 410 634 c 1
 386 657 369 686 360 720 c 1
 392 745 422 763 450 772 c 1
 467 749 483 719 498 684 c 1
818 330 m 1
 789 304 759 287 730 280 c 1
 706 304 689 333 680 366 c 1
 712 391 742 409 769 418 c 1
 788 395 804 365 818 330 c 1
271 564 m 1
 242 538 213 521 184 514 c 1
 159 537 142 566 133 600 c 1
 165 625 195 643 223 652 c 1
 241 629 257 599 271 564 c 1
752 77 m 1
 722 51 693 34 664 27 c 1
 640 51 623 80 614 113 c 1
 646 138 676 155 703 165 c 1
 721 142 737 112 752 77 c 1
162 336 m 1
 133 310 103 293 74 286 c 1
 49 309 33 338 24 372 c 1
 56 397 86 415 114 424 c 1
 131 401 147 371 162 336 c 1
491 -37 m 1
 461 -63 431 -80 402 -87 c 1
 378 -63 362 -33 353 0 c 1
 385 25 415 41 442 51 c 1
 460 28 476 -2 491 -37 c 1
226 84 m 1
 196 58 167 41 138 34 c 1
 114 57 98 86 89 120 c 1
 120 145 150 163 178 172 c 1
 195 149 211 119 226 84 c 1
EndSplineSet
Validated: 1
EndChar

StartChar: uni0489
Encoding: 1161 1161 34
Width: 860
GlyphClass: 4
Flags: W
HStem: -9 21G<360.087 378.5> 0 47<371.639 447.845> 17 47<105.064 179> 101 60<631.075 687.927> 254 74<61.8238 133.906> 333 67<721.427 787.785> 366 20G<24 43.5> 488 66<190.417 256.275> 506 142<636.698 700> 618 51<404 480.391>
VStem: 136 37<330.786 374 574.657 627.313> 136 27<338.656 374> 178 64<73.8402 131.586> 354 67<670.259 735> 432 67<-67.6496 -1.35627> 607 72<539.02 600.581> 671 49<272.99 348.21> 693 56<34.5956 97.549>
AnchorPoint: "Numeral" 426 318 mark 0
LayerCount: 2
Fore
SplineSet
607 581 m 0x188f
 607 626 654 648 695 648 c 0
 712 648 732 645 754 639 c 1
 754 629 l 1
 723 621 703 610 690 596 c 0
 683 587 679 578 679 569 c 0
 679 552 691 540 715 534 c 1
 715 508 l 1
 708 507 700 506 694 506 c 0
 653 506 607 540 607 581 c 0x188f
422 618 m 1x184e
 386 618 354 642 354 677 c 0
 354 719 382 754 438 780 c 1
 446 770 l 1
 429 744 421 725 421 707 c 0
 421 682 430 669 452 669 c 0
 461 669 470 672 479 677 c 1
 496 654 l 1
 478 631 453 619 422 618 c 1x184e
671 332 m 0x1c0e80
 671 365 692 400 728 400 c 0
 729 400 730 400 731 400 c 0
 775 399 809 369 832 310 c 1
 824 302 l 1
 798 322 776 332 757 333 c 0
 756 333 756 333 755 333 c 0
 732 333 720 322 720 300 c 0
 720 292 722 284 727 275 c 1
 703 260 l 1
 683 277 671 304 671 332 c 0x1c0e80
203 488 m 0x190e
 162 488 137 525 137 564 c 0
 137 587 145 613 162 642 c 1
 174 640 l 1
 175 600 189 554 226 554 c 0
 240 554 251 563 259 580 c 1
 284 570 l 1
 284 530 251 488 203 488 c 0x190e
693 53 m 0x580e40
 693 80 679 101 659 101 c 0
 647 101 636 95 625 83 c 1
 604 100 l 1
 614 131 647 161 686 161 c 0
 727 161 749 137 749 95 c 0
 749 63 731 33 696 0 c 1
 685 0 l 1
 690 20 693 39 693 53 c 0x580e40
164 297 m 0
 151 268 131 254 106 254 c 0
 98 254 91 256 84 260 c 0
 44 277 24 318 24 381 c 1
 35 386 l 1x1a2e
 52 358 68 340 85 333 c 0
 92 330 98 328 104 328 c 0
 125 328 136 341 136 367 c 0
 136 369 136 372 136 374 c 1x1c2e
 163 378 l 1x1c1e
 170 365 173 352 173 338 c 256x1c2e
 173 324 170 310 164 297 c 0
432 47 m 0x580e
 466 47 499 25 499 -9 c 0x980e
 499 -52 470 -87 413 -114 c 1
 404 -106 l 1
 423 -80 432 -58 432 -39 c 0
 432 -14 421 0 400 0 c 0x580e
 392 0 383 -4 374 -9 c 1x980e
 358 14 l 1
 376 36 401 47 432 47 c 0x580e
111 64 m 0x380e
 143 64 178 77 178 104 c 0
 178 117 170 129 155 138 c 1
 167 164 l 1
 208 156 242 117 242 77 c 0
 242 54 233 37 214 28 c 0
 200 21 186 17 172 17 c 0
 145 17 114 30 80 56 c 1
 84 66 l 1
 94 65 102 64 111 64 c 0x380e
EndSplineSet
Validated: 1
EndChar

StartChar: uniA670
Encoding: 42608 42608 35
Width: 871
GlyphClass: 4
Flags: W
HStem: -13 31<344 410 444 511> 96 33<104 170 204 270 608 676 709 775> 336 33<24 91 125 191 679 746 780 846> 572 31<106 170 205 271 608 676 709 775> 669 32<347 413 446 514>
VStem: 91 34<270 336 369 435> 170 34<24 92 123 190 504 572 603 669> 410 34<-80 -13 18 86 603 669 701 767> 676 33<30 96 129 195 506 572 603 669> 746 34<270 336 369 435>
AnchorPoint: "Numeral" 426 348 mark 0
LayerCount: 2
Fore
SplineSet
775 572 m 1
 709 572 l 1
 709 506 l 1
 676 506 l 1
 676 572 l 1
 608 572 l 1
 608 603 l 1
 676 603 l 1
 676 669 l 1
 709 669 l 1
 709 603 l 1
 775 603 l 1
 775 572 l 1
846 336 m 1
 780 336 l 1
 780 270 l 1
 746 270 l 1
 746 336 l 1
 679 336 l 1
 679 369 l 1
 746 369 l 1
 746 435 l 1
 780 435 l 1
 780 369 l 1
 846 369 l 1
 846 336 l 1
514 669 m 1
 446 669 l 1
 446 603 l 1
 413 603 l 1
 413 669 l 1
 347 669 l 1
 347 701 l 1
 413 701 l 1
 413 767 l 1
 446 767 l 1
 446 701 l 1
 514 701 l 1
 514 669 l 1
775 96 m 1
 709 96 l 1
 709 30 l 1
 676 30 l 1
 676 96 l 1
 608 96 l 1
 608 129 l 1
 676 129 l 1
 676 195 l 1
 709 195 l 1
 709 129 l 1
 775 129 l 1
 775 96 l 1
271 572 m 1
 205 572 l 1
 205 504 l 1
 172 504 l 1
 172 572 l 1
 106 572 l 1
 106 603 l 1
 170 603 l 1
 170 669 l 1
 205 669 l 1
 205 603 l 1
 271 603 l 1
 271 572 l 1
191 336 m 1
 125 336 l 1
 125 270 l 1
 91 270 l 1
 91 336 l 1
 24 336 l 1
 24 369 l 1
 91 369 l 1
 91 435 l 1
 125 435 l 1
 125 369 l 1
 191 369 l 1
 191 336 l 1
511 -13 m 1
 444 -13 l 1
 444 -80 l 1
 410 -80 l 1
 410 -13 l 1
 344 -13 l 1
 344 18 l 1
 410 18 l 1
 410 86 l 1
 444 86 l 1
 444 18 l 1
 511 18 l 1
 511 -13 l 1
270 92 m 1
 204 92 l 1
 204 24 l 1
 170 24 l 1
 170 92 l 1
 104 92 l 1
 104 123 l 1
 170 123 l 1
 170 190 l 1
 204 190 l 1
 204 123 l 1
 270 123 l 1
 270 92 l 1
EndSplineSet
Validated: 1
EndChar

StartChar: uniA671
Encoding: 42609 42609 36
Width: 0
GlyphClass: 4
Flags: W
HStem: -13 41<-471.531 -262.961> 250 41<-658 -594 -142 -74> 378 41<-664 -594 -142 -74> 670 35<-466.926 -269.25>
VStem: -720 126<251.314 291 378 415.976> -142 126<252.174 291 378 416.344>
AnchorPoint: "Numeral" -372.5 338.2 mark 0
LayerCount: 2
Fore
SplineSet
-16 378 m 1
 -142 378 l 1
 -142 419 l 1
 -74 419 l 1
 -88 493 -124 553 -180 600 c 0
 -234 647 -300 670 -372 670 c 0
 -442 670 -504 646 -558 597 c 0
 -612 550 -646 490 -664 419 c 1
 -594 419 l 1
 -594 378 l 1
 -720 378 l 1
 -712 470 -674 548 -608 610 c 0
 -540 674 -460 705 -370 705 c 0
 -366 705 l 0
 -276 705 -196 674 -128 612 c 0
 -62 549 -24 471 -16 378 c 1
-16 291 m 1
 -30 206 -70 135 -134 76 c 0
 -200 17 -276 -12 -364 -13 c 0
 -452 -13 -530 16 -598 74 c 0
 -666 132 -706 204 -720 291 c 1
 -594 291 l 1
 -594 250 l 1
 -658 250 l 1
 -622 134 -516 28 -370 28 c 0
 -368 28 l 256
 -300 29 -240 50 -184 91 c 0
 -130 132 -94 185 -74 250 c 1
 -142 250 l 1
 -142 291 l 1
 -16 291 l 1
EndSplineSet
Validated: 3073
EndChar

StartChar: uniA672
Encoding: 42610 42610 37
Width: 938
GlyphClass: 4
Flags: W
HStem: -13 31<377 542> 83 31<136 302 641 808> 336 33<22 187 750 917> 585 31<137 304 641 808> 669 32<379 445 479 545>
VStem: 445 34<603 669 701 767>
AnchorPoint: "Numeral" 462 348 mark 0
LayerCount: 2
Fore
SplineSet
808 585 m 1
 641 585 l 1
 641 616 l 1
 808 616 l 1
 808 585 l 1
917 336 m 1
 750 336 l 1
 750 369 l 1
 917 369 l 1
 917 336 l 1
545 669 m 1
 479 669 l 1
 479 603 l 1
 445 603 l 1
 445 669 l 1
 379 669 l 1
 379 701 l 1
 445 701 l 1
 445 767 l 1
 479 767 l 1
 479 701 l 1
 545 701 l 1
 545 669 l 1
808 83 m 1
 641 83 l 1
 641 114 l 1
 808 114 l 1
 808 83 l 1
304 585 m 1
 137 585 l 1
 137 616 l 1
 304 616 l 1
 304 585 l 1
542 -13 m 1
 377 -13 l 1
 377 18 l 1
 542 18 l 1
 542 -13 l 1
187 336 m 1
 22 336 l 1
 22 369 l 1
 187 369 l 1
 187 336 l 1
302 82 m 1
 136 82 l 1
 136 113 l 1
 302 113 l 1
 302 82 l 1
EndSplineSet
Validated: 1
EndChar

StartChar: uni0474
Encoding: 1140 1140 38
Width: 748
GlyphClass: 2
Flags: W
HStem: -157 21G<294.5 308 360 370> 514 141<536.895 638.875> 600 52<1.03859 63.2576 201.004 250.309>
DStem2: 264 381 181 209 0.297953 -0.95458<-209.277 298.391>
AnchorPoint: "HalfMark" 377 752.5 basechar 0
AnchorPoint: "Diacritic" 378 751.7 basechar 0
AnchorPoint: "Yerok" 611 736.7 basechar 0
LayerCount: 2
Fore
SplineSet
252 634 m 0xa0
 252 612 240 602 219 602 c 0
 207 602 201 595 201 584 c 0
 201 511 244 440 264 381 c 0
 295 287 320 199 353 112 c 0
 355 107 364 102 372 102 c 0
 377 102 381 104 382 109 c 0
 395 172 409 251 420 317 c 0
 426 353 426 353 430 377 c 0
 442 436 445 482 465 529 c 0
 476 556 497 596 516 615 c 1
 530 631 554 648 588 653 c 0
 599 654 611 655 624 655 c 0
 657 655 691 649 708 635 c 1
 704 611 691 579 684 555 c 0
 681 546 680 539 680 535 c 256
 680 509 675 478 668 458 c 1
 664 450 659 445 654 445 c 0
 650 445 646 448 642 455 c 0
 629 476 618 514 583 514 c 0xc0
 566 514 552 511 543 505 c 0
 534 499 523 490 510 479 c 0
 506 476 502 467 497 453 c 0
 471 372 458 272 440 185 c 1
 423 79 405 -47 384 -148 c 0
 383 -155 375 -157 365 -157 c 0
 355 -157 343 -153 336 -153 c 0
 326 -153 313 -157 303 -157 c 0
 300 -157 298 -157 296 -157 c 0
 293 -157 290 -153 290 -150 c 0
 254 -20 218 90 181 209 c 0
 147 317 115 421 79 526 c 0
 71 549 67 554 64 573 c 0
 62 589 58 603 41 603 c 0
 29 603 30 600 18 600 c 0
 8 600 0 614 0 624 c 256
 0 633 9 652 18 652 c 0
 49 649 67 648 100 648 c 0
 140 648 176 652 215 652 c 0
 223 652 232 651 241 651 c 0
 249 651 252 642 252 634 c 0xa0
EndSplineSet
Validated: 19457
Position2: "'ss10' Equal Baseline Kerning Lookup-1" dx=0 dy=150 dh=0 dv=0
EndChar

StartChar: uni047E
Encoding: 1150 1150 39
Width: 1056
GlyphClass: 2
Flags: W
HStem: -164 52<249.7 388.806> -153 51<616.257 761.11> 451 44<210.304 297> 457 55<669 789.873> 605 152<176.928 217.997 464.141 534.51> 610 164<454.796 547.719> 727 34<248.932 418>
VStem: 0 132<45.2994 294.375> 268 122<357.638 450.656> 450 110<611.097 722.478> 467 90<-23.7586 99.6842> 589 142<368.625 455.474> 869 147<38.875 295.275>
AnchorPoint: "HalfMark" 506 752.5 basechar 0
AnchorPoint: "Yerok" 1050.5 805.2 basechar 0
AnchorPoint: "Diacritic" 1051 803.7 basechar 0
LayerCount: 2
Fore
SplineSet
450 675 m 2x05d8
 450 689 l 2
 450 717 437 724 406 726 c 0
 397 727 384 727 368 727 c 0x03d8
 338 727 303 726 277 722 c 1
 252 717 246 710 237 692 c 0
 228 673 218 646 218 622 c 0
 218 610 214 605 204 605 c 0
 202 605 198 608 192 612 c 1
 176 627 156 648 141 663 c 1
 134 672 115 683 103 690 c 0
 87 698 60 709 60 732 c 0
 60 745 72 757 87 757 c 2x09d8
 220 761 l 2x03d8
 314 764 394 768 484 773 c 0
 497 774 506 774 513 774 c 0
 627 779 753 782 868 789 c 0
 878 790 887 791 894 791 c 0
 905 791 915 782 915 771 c 0
 915 757 902 744 895 736 c 0
 886 726 872 713 862 704 c 256
 846 690 832 664 818 646 c 0
 813 640 808 634 802 634 c 0
 794 634 789 640 785 645 c 1
 772 656 765 678 760 699 c 1
 755 727 743 736 723 742 c 1
 678 742 625 741 584 737 c 0
 567 736 560 728 560 712 c 2
 560 644 l 2
 560 638 561 632 561 627 c 0
 561 619 559 613 548 611 c 0
 542 610 537 610 531 610 c 0
 528 610 525 610 522 610 c 0
 507 610 487 608 475 606 c 0
 470 605 467 604 464 604 c 0
 454 604 452 610 452 624 c 256
 452 639 450 656 450 675 c 2x05d8
589 424 m 0
 589 481 640 512 698 512 c 0
 722 512 746 507 770 499 c 0
 821 482 876 452 917 413 c 0
 972 360 1016 283 1016 173 c 256
 1016 68 986 -4 938 -54 c 0
 916 -77 894 -94 870 -105 c 1
 817 -132 775 -153 698 -153 c 0x51b8
 658 -153 617 -145 595 -128 c 256
 561 -102 535 -65 515 -25 c 1
 470 -98 412 -164 295 -164 c 0
 294 -164 293 -164 292 -164 c 0
 259 -163 225 -157 190 -146 c 0
 143 -130 102 -94 72 -52 c 1
 32 -0 3 74 0 165 c 1
 0 176 l 2
 0 266 32 333 74 382 c 0
 111 425 162 462 213 482 c 256
 235 491 257 495 279 495 c 0
 315 495 348 483 368 460 c 0
 379 447 390 428 390 404 c 0
 390 377 363 348 345 340 c 0
 336 335 327 333 318 333 c 0
 286 333 258 353 258 385 c 2
 258 389 l 1
 259 399 268 414 268 427 c 0
 268 439 255 451 243 451 c 0
 232 451 222 443 212 432 c 0
 169 386 145 311 135 227 c 0
 133 211 132 194 132 178 c 0
 132 120 143 63 159 24 c 0
 174 -13 199 -47 235 -79 c 0
 257 -99 282 -112 314 -112 c 0xa1b8
 359 -112 387 -93 414 -74 c 0
 441 -55 467 -23 467 25 c 0
 467 60 463 86 446 102 c 1
 440 106 433 116 433 124 c 0
 433 129 437 133 445 134 c 256
 448 134 452 135 456 135 c 0
 473 135 497 132 511 132 c 256
 521 132 550 137 572 137 c 0
 586 137 597 135 598 128 c 0
 598 123 595 119 590 114 c 0
 585 109 578 99 569 86 c 0
 561 73 557 57 557 41 c 0
 557 -20 591 -68 631 -90 c 0
 647 -98 665 -102 683 -102 c 0
 717 -102 752 -89 775 -71 c 0
 800 -52 823 -37 840 -6 c 0
 861 32 869 80 869 141 c 0
 869 149 869 157 869 165 c 0
 867 235 863 284 849 332 c 0
 841 361 831 373 819 394 c 0
 810 409 800 423 790 436 c 0
 779 450 769 457 752 457 c 0x51b8
 740 457 731 451 731 440 c 0
 731 429 737 419 737 408 c 0
 737 403 736 395 733 389 c 0
 726 369 716 366 697 355 c 0
 688 350 678 347 668 347 c 0
 619 347 589 379 589 424 c 0
EndSplineSet
Validated: 19457
AlternateSubs2: "'salt' Stylistic Alternatives-1" uni047E.alt
Position2: "'ss10' Equal Baseline Kerning Lookup-1" dx=0 dy=150 dh=0 dv=0
EndChar

StartChar: uni0476
Encoding: 1142 1142 40
Width: 748
GlyphClass: 3
Flags: W
HStem: -153 21G<295.5 309 361 370.5> 449 21G<653 657.5> 518 141<537.895 640.062> 604 52<2.03859 64.4256 202.004 251.343>
DStem2: 265 385 159 294 0.287348 -0.957826<-209.257 296.698>
AnchorPoint: "HalfMark" 350 752.5 basechar 0
AnchorPoint: "Diacritic" 284 1007 basechar 0
AnchorPoint: "Yerok" 614 790 basechar 0
LayerCount: 2
Fore
SplineSet
242 655 m 0xd0
 252 655 253 643 253 635 c 0
 253 618 239 606 220 606 c 0
 208 606 202 599 202 588 c 0
 202 515 245 444 265 385 c 0
 296 291 321 203 354 116 c 0
 356 111 365 107 373 107 c 0
 378 107 382 108 383 113 c 0
 396 177 410 254 421 321 c 0
 427 357 427 357 431 381 c 0
 443 439 446 486 466 533 c 0
 477 560 498 600 517 619 c 1
 531 635 555 652 589 657 c 0
 600 658 613 659 626 659 c 0
 658 659 692 653 709 639 c 1
 707 625 699 604 694 589 c 0
 690 575 681 553 681 539 c 256
 681 513 676 482 669 462 c 1
 665 454 660 449 655 449 c 0
 651 449 647 452 643 459 c 0
 631 480 619 518 584 518 c 0xe0
 567 518 553 515 544 509 c 0
 535 503 524 494 511 483 c 0
 507 480 503 471 498 457 c 0
 481 404 468 335 457 277 c 0
 431 144 412 -12 385 -144 c 0
 384 -151 375 -153 366 -153 c 0
 356 -153 344 -149 337 -149 c 0
 327 -149 314 -153 304 -153 c 0
 301 -153 299 -153 297 -153 c 0
 294 -153 291 -149 291 -146 c 0
 276 -90 261 -40 248 3 c 0
 217 105 185 194 159 294 c 1
 131 379 101 480 68 563 c 1
 63 581 66 607 42 607 c 0
 30 607 31 604 19 604 c 0
 9 604 1 618 1 628 c 256
 1 637 10 656 19 656 c 0
 50 653 68 652 101 652 c 0
 141 652 177 656 216 656 c 0
 224 656 233 655 242 655 c 0xd0
470 728 m 0
 459 716 442 710 419 710 c 0
 398 710 397 722 391 742 c 0
 380 778 350 846 332 873 c 0
 325 882 321 890 318 898 c 1
 317 909 323 914 336 914 c 0
 346 914 377 907 384 905 c 1
 393 901 399 896 403 889 c 1
 407 876 417 853 434 818 c 1
 460 774 473 747 473 736 c 0
 473 733 472 730 470 728 c 0
300 728 m 0
 289 716 272 710 249 710 c 0
 228 710 227 722 221 742 c 0
 210 778 180 846 162 873 c 0
 155 882 151 890 148 898 c 1
 147 909 153 914 166 914 c 0
 176 914 207 907 214 905 c 1
 223 901 229 896 233 889 c 1
 237 876 247 853 264 818 c 1
 290 774 303 747 303 736 c 0
 303 733 302 730 300 728 c 0
EndSplineSet
Validated: 19457
Position2: "'ss10' Equal Baseline Kerning Lookup-1" dx=0 dy=150 dh=0 dv=0
LCarets2: 1 0
Ligature2: "'ccmp' Canonical Equivalents-1" uni0474 uni030F
EndChar

StartChar: uni005B
Encoding: 91 91 41
Width: 310
Flags: W
HStem: -153 44<133.335 249.855> 811 48<143.384 269.759>
VStem: 0 124<-100.802 206.497> 15 124<258.513 803.899>
LayerCount: 2
Fore
SplineSet
260 -136 m 0xe0
 260 -149 250 -150 230 -151 c 0
 202 -153 166 -153 132 -153 c 0
 97 -153 61 -152 32 -147 c 0
 7 -143 2 -140 0 -116 c 0
 0 -113 0 -110 0 -107 c 0
 0 -100 0 -92 0 -83 c 0xe0
 0 10 5 96 8 200 c 0
 13 339 15 453 15 567 c 0
 15 609 15 650 14 692 c 0
 13 742 13 777 13 800 c 0
 13 823 15 837 18 842 c 0
 25 852 61 853 81 855 c 0
 109 857 142 859 173 859 c 0
 195 859 216 858 235 856 c 0
 258 855 270 853 270 833 c 0
 270 815 261 812 239 812 c 0
 228 811 216 811 202 811 c 0
 198 811 193 811 188 811 c 0
 171 811 151 810 143 804 c 0
 140 802 139 790 138 765 c 0
 138 750 138 731 138 715 c 0
 138 662 139 604 139 549 c 0xd0
 139 377 124 204 124 34 c 0
 124 6 125 -20 126 -48 c 0
 126 -78 129 -97 133 -101 c 256
 140 -108 157 -109 174 -109 c 0
 181 -109 188 -109 194 -108 c 0
 202 -108 217 -107 229 -107 c 0
 238 -107 247 -108 250 -111 c 0
 256 -117 260 -125 260 -136 c 0xe0
EndSplineSet
Validated: 19457
EndChar

StartChar: uni005C
Encoding: 92 92 42
Width: 400
Flags: W
HStem: 0 21G<294.057 360>
VStem: 70 60<714 774> 300 60<0 60>
DStem2: 130 774 70 774 0.284847 -0.958573<0 790.359>
LayerCount: 2
Back
SplineSet
360 -74 m 1
 300 -74 l 1
 70 700 l 1
 130 700 l 1
 360 -74 l 1
EndSplineSet
Fore
SplineSet
360 0 m 1
 300 0 l 1
 70 774 l 1
 130 774 l 1
 360 0 l 1
EndSplineSet
Validated: 1
Colour: ff00
EndChar

StartChar: uni005D
Encoding: 93 93 43
Width: 323
Flags: W
HStem: -153 43<14.1436 130.665> 810 49<27.4639 154.722>
VStem: 148 119<-66.0665 782.31> 156 127<511.067 809.818>
LayerCount: 2
Fore
SplineSet
94 811 m 0xd0
 85 811 75 810 66 810 c 0
 45 810 27 813 27 831 c 0
 27 853 40 855 64 856 c 0
 85 858 109 859 134 859 c 0
 178 859 224 856 259 850 c 0
 270 848 277 845 279 842 c 0
 282 838 283 827 283 811 c 0
 283 807 283 804 283 800 c 0xd0
 280 707 275 619 271 500 c 0
 268 420 267 320 267 200 c 0
 267 121 267 121 267 66 c 0
 267 9 267 -37 266 -83 c 0
 265 -107 266 -128 255 -139 c 0
 245 -149 209 -150 186 -152 c 0
 168 -152 149 -153 130 -153 c 0
 96 -153 61 -153 32 -151 c 0
 14 -150 4 -150 4 -136 c 0
 4 -125 8 -117 14 -111 c 0
 17 -109 24 -108 35 -108 c 0
 49 -108 70 -110 89 -110 c 0
 107 -110 124 -108 131 -101 c 256
 135 -97 138 -78 141 -48 c 0
 148 30 148 124 148 219 c 0
 148 234 l 0
 148 275 148 318 148 361 c 0
 148 382 148 404 148 426 c 0xe0
 148 507 149 593 153 670 c 0
 155 709 156 748 156 784 c 0
 156 809 153 809 130 810 c 0
 119 811 106 811 94 811 c 0xd0
EndSplineSet
Validated: 19457
EndChar

StartChar: uni005F
Encoding: 95 95 44
Width: 394
Flags: W
HStem: 2 50<15.0959 369.816>
LayerCount: 2
Fore
SplineSet
358 48 m 0
 367 48 370 39 370 28 c 0
 370 16 366 4 360 1 c 0
 354 -1 350 -3 347 -3 c 0
 327 -3 301 0 274 0 c 0
 245 1 212 2 180 2 c 0
 164 2 148 1 133 1 c 0
 109 0 89 -1 70 -1 c 0
 52 -1 35 0 16 2 c 0
 9 3 7 8 7 14 c 0
 7 24 12 38 15 44 c 0
 17 49 22 51 29 52 c 2
 78 52 l 2
 119 52 167 49 205 49 c 0
 216 48 228 48 240 48 c 0
 266 48 294 49 319 49 c 0
 332 49 343 49 352 48 c 0
 355 48 355 48 358 48 c 0
EndSplineSet
Validated: 19457
EndChar

StartChar: uni0463
Encoding: 1123 1123 45
Width: 590
GlyphClass: 2
Flags: HMW
HStem: -0 38<274.517 326.169> 127 57<298.336 327.254> 335 31<329.071 400.497> 345 28<115.08 211.131> 646 20G<412.5 429.5>
VStem: 0 102<162.038 335.352> 170 103<19.3438 126.384> 337 114<16.875 108.693>
AnchorPoint: "Right" 541 450 basechar 0
AnchorPoint: "Left" 36 449.5 basechar 0
AnchorPoint: "HalfMark" 310 499.5 basechar 0
AnchorPoint: "Diacritic" 35 544 basechar 0
AnchorPoint: "Yerok" 492 466.7 basechar 0
LayerCount: 2
Fore
SplineSet
435 242 m 0xef
 426 242 418 256 418 262 c 256
 418 271 420 282 417 291 c 1
 415 313 389 331 368 334 c 0
 363 334 347 335 336 335 c 0xef
 318 335 318 324 315 306 c 0
 309 273 298 229 298 193 c 0
 298 188 296 182 313 184 c 1
 334 188 363 194 386 194 c 0
 398 194 409 165 414 152 c 0
 427 117 440 74 448 36 c 0
 450 27 451 21 451 18 c 0
 451 4 443 4 434 -0 c 0
 433 -1 426 0 416 0 c 0
 399 0 399 0 378 0 c 0
 358 0 328 -0 311 -0 c 256
 282 -0 244 -3 214 -3 c 0
 198 -3 198 -3 194 -3 c 0
 184 -2 170 8 170 21 c 0
 170 29 171 36 174 56 c 0
 187 138 201 232 215 317 c 0
 215 318 215 319 215 320 c 0
 215 341 186 345 159 345 c 0
 136 345 126 344 114 330 c 0
 109 325 104 316 103 301 c 0
 103 290 102 269 102 256 c 0
 102 240 102 240 102 225 c 0
 102 216 104 203 104 191 c 0
 104 176 101 163 91 162 c 1
 72 162 45 160 26 160 c 0
 11 160 4 161 0 170 c 1
 0 185 l 2
 0 237 2 294 6 345 c 1
 8 358 10 374 26 374 c 0
 27 374 27 374 28 374 c 0
 52 374 99 373 128 373 c 2
 211 373 l 2xdf
 223 373 231 378 234 388 c 0
 235 389 238 401 245 422 c 0
 261 474 283 537 306 588 c 0
 318 617 331 640 344 657 c 0
 348 662 356 664 365 664 c 2
 388 664 l 2
 397 665 407 666 419 666 c 0
 422 666 424 666 426 666 c 0
 433 666 451 660 451 649 c 0
 451 648 450 646 450 644 c 0
 443 630 444 634 431 614 c 0
 390 552 355 470 330 385 c 0
 329 381 329 378 329 375 c 0
 329 367 359 366 381 366 c 2
 436 366 l 2
 471 366 502 376 535 376 c 256
 546 376 550 370 550 362 c 0
 550 341 532 330 520 318 c 0
 505 304 492 294 479 278 c 0
 470 268 461 258 451 249 c 0
 446 245 440 242 435 242 c 0xef
337 73 m 1
 336 98 320 127 293 127 c 0
 283 127 280 119 278 107 c 1
 275 98 273 86 273 73 c 0
 273 55 278 38 294 38 c 0
 321 38 337 43 337 73 c 1
EndSplineSet
Substitution2: "Yat Short Form Substitution-1" uni0463.short
AlternateSubs2: "'salt' Stylistic Alternatives-1" uni0463.short
Position2: "Numeral Kerning-1" dx=250 dy=0 dh=0 dv=0
EndChar

StartChar: uni0473
Encoding: 1139 1139 46
Width: 671
GlyphClass: 2
Flags: HW
HStem: -190 212<50.3647 186.43> -166 21G<521.5 537.5> -31 33<194.652 261.356 453.704 491.812> -30 52<0.150871 42.436> 367 20G<371.5 383.5>
VStem: 50 144<-167.655 -36.145> 254 65<28.4546 129.939> 392 59<15.243 88.8125> 393 73<34.1267 133.714>
AnchorPoint: "Right" 587 450 basechar 0
AnchorPoint: "Left" 36 449.5 basechar 0
AnchorPoint: "HalfMark" 378 499.5 basechar 0
AnchorPoint: "Numeral" 354 79.1 basechar 0
AnchorPoint: "Diacritic" 378 523 basechar 0
AnchorPoint: "Yerok" 557 340 basechar 0
LayerCount: 2
Fore
SplineSet
223 -31 m 0x2f
 208 -31 194 -36 194 -46 c 0
 194 -109 191 -152 186 -174 c 1
 184 -190 174 -191 151 -191 c 0
 149 -191 147 -191 144 -191 c 0
 134 -191 122 -190 107 -190 c 0x8f
 66 -190 43 -185 38 -180 c 0
 33 -175 31 -171 31 -168 c 0
 31 -162 50 -68 50 -62 c 0
 50 -48 49 -39 43 -36 c 1
 31 -36 17 -34 0 -30 c 1
 -3 -27 -5 -23 -5 -17 c 0
 -5 -11 -3 -4 0 5 c 0
 3 14 20 19 49 22 c 1x1f
 67 22 123 9 138 7 c 0
 171 3 198 2 217 2 c 0
 245 2 263 5 263 27 c 1
 257 58 254 91 254 124 c 0
 254 188 265 231 284 285 c 0
 300 329 317 358 334 372 c 1
 350 382 365 387 378 387 c 0
 389 387 403 383 418 374 c 0
 452 353 466 242 466 174 c 0x2e80
 466 146 461 98 451 31 c 1
 451 7 471 5 495 5 c 0
 507 5 538 10 587 19 c 0
 593 20 598 21 603 21 c 0
 617 21 625 16 627 6 c 0
 629 -5 631 -15 631 -25 c 0
 631 -38 620 -63 597 -99 c 0
 570 -141 547 -163 528 -166 c 1
 515 -166 508 -159 506 -145 c 0
 506 -142 506 -139 506 -136 c 0
 506 -114 504 -87 500 -54 c 1
 497 -44 494 -38 492 -37 c 0
 488 -36 484 -35 480 -34 c 0
 470 -31 461 -30 453 -30 c 0x5f
 440 -30 432 -35 430 -46 c 1
 430 -46 390 -184 377 -223 c 0
 365 -256 353 -272 341 -272 c 0
 333 -272 327 -267 324 -256 c 1
 304 -203 290 -115 275 -46 c 1
 270 -35 245 -31 223 -31 c 0x2f
357 136 m 0
 335 136 318 110 318 86 c 0
 318 83 319 80 319 78 c 2
 319 42 l 1
 324 21 336 10 351 10 c 0
 352 10 352 10 353 10 c 0
 376 10 392 32 392 77 c 0x0f
 392 81 393 85 393 89 c 0x0e80
 393 120 381 136 357 136 c 0
EndSplineSet
Position2: "Numeral Kerning-1" dx=250 dy=0 dh=0 dv=0
EndChar

StartChar: uni0467
Encoding: 1127 1127 47
Width: 558
GlyphClass: 2
Flags: HW
HStem: -0 22G<233.5 251.5 416 428> 366 20G<165 196.5>
VStem: 0 85<3.01538 87.1796> 184 122<6.04834 135.633> 200 98<41.3212 143.138> 398 120<3.08958 86.3971>
AnchorPoint: "Right" 477 450 basechar 0
AnchorPoint: "Left" 36 449.5 basechar 0
AnchorPoint: "HalfMark" 244 499.5 basechar 0
AnchorPoint: "Diacritic" 244 522 basechar 0
AnchorPoint: "Yerok" 459 337 basechar 0
LayerCount: 2
Fore
SplineSet
23 2 m 0xec
 6 2 0 10 0 29 c 0
 0 43 4 54 12 69 c 0
 25 96 32 106 55 129 c 0
 72 146 72 146 92 165 c 1
 119 193 149 219 170 247 c 0
 181 262 195 280 201 298 c 0
 202 302 203 305 202 306 c 1
 202 322 186 330 175 339 c 1
 165 346 147 353 147 367 c 0
 147 382 158 386 172 386 c 0
 177 386 184 386 190 386 c 0
 203 385 220 381 233 381 c 0
 256 380 299 381 312 371 c 0
 315 368 318 347 318 336 c 0
 318 318 323 314 336 298 c 0
 363 265 398 224 425 190 c 0
 441 169 456 150 470 133 c 0
 492 107 512 78 514 41 c 1
 516 26 518 19 518 12 c 0
 518 5 515 2 509 2 c 0
 498 2 472 3 459 3 c 256
 450 3 434 1 422 1 c 0
 410 1 399 3 398 13 c 1
 395 23 400 29 398 43 c 0
 394 67 385 75 370 95 c 1
 359 113 337 138 318 143 c 0
 310 146 298 146 298 137 c 0xec
 298 108 302 68 302 40 c 1
 303 35 306 23 306 15 c 0
 306 10 305 7 303 6 c 256
 296 2 257 1 246 -0 c 0
 245 -0 243 -0 241 -0 c 0
 226 -0 196 3 189 6 c 256
 186 7 184 10 184 15 c 0
 184 21 184 21 184 27 c 1xf4
 188 40 191 67 193 85 c 0
 196 105 200 136 200 152 c 0
 200 160 187 165 176 165 c 0
 174 165 172 164 170 164 c 0
 160 162 149 150 140 143 c 0
 110 117 85 83 85 27 c 0
 85 15 90 3 78 3 c 2
 42 3 l 2
 35 3 29 2 23 2 c 0xec
242 199 m 2
 244 199 l 258
 258 199 293 205 293 216 c 0
 293 218 292 220 289 222 c 0
 282 229 256 255 251 265 c 0
 248 270 245 273 241 273 c 0
 239 273 236 271 234 267 c 0
 229 252 211 232 201 222 c 0
 197 219 195 217 195 214 c 0
 195 199 225 199 242 199 c 2
EndSplineSet
EndChar

StartChar: uni0475
Encoding: 1141 1141 48
Width: 492
GlyphClass: 2
Flags: HW
HStem: 1 21G<105 126.5> 293 92<325.723 433.292>
VStem: 91 163<14.6119 131.526>
AnchorPoint: "Right" 423 450 basechar 0
AnchorPoint: "Left" 36 449.5 basechar 0
AnchorPoint: "HalfMark" 224 499.5 basechar 0
AnchorPoint: "Diacritic" 224 527.8 basechar 0
AnchorPoint: "Yerok" 383 468.8 basechar 0
LayerCount: 2
Fore
SplineSet
-5 353 m 0
 -5 377 31 380 57 380 c 256
 65 380 77 381 86 381 c 0
 99 381 114 380 123 377 c 1
 134 375 141 335 145 319 c 0
 156 276 166 221 174 177 c 1
 179 156 178 157 184 145 c 0
 187 138 192 134 197 134 c 0
 201 134 206 138 209 146 c 0
 225 187 245 245 262 287 c 0
 286 348 307 385 389 385 c 0
 394 385 399 385 404 385 c 0
 419 384 429 380 440 377 c 0
 449 375 452 367 452 358 c 0
 452 341 440 317 434 311 c 0
 419 296 397 293 370 293 c 0
 330 293 311 254 296 224 c 0
 270 173 254 123 254 48 c 0
 254 47 254 45 254 44 c 0
 254 10 218 9 181 9 c 0
 178 9 176 9 173 9 c 256
 160 9 136 1 117 1 c 0
 93 1 91 12 91 40 c 0
 91 54 88 71 82 91 c 0
 67 146 48 216 28 269 c 0
 18 295 18 295 10 315 c 0
 6 327 2 335 0 337 c 0
 -3 342 -5 348 -5 353 c 0
EndSplineSet
EndChar

StartChar: uni0461
Encoding: 1121 1121 49
Width: 590
GlyphClass: 2
Flags: HW
HStem: 1 89<350.07 408.151> 368 20G<502.5 510>
VStem: 0 102<152.75 316.815> 213 96<186.932 342.726> 447 103<166.941 322.152>
AnchorPoint: "Right" 507 450 basechar 0
AnchorPoint: "Left" 36 449.5 basechar 0
AnchorPoint: "HalfMark" 298 499.5 basechar 0
AnchorPoint: "Numeral" 264 213.1 basechar 0
AnchorPoint: "Diacritic" 304 520 basechar 0
AnchorPoint: "Yerok" 500 457.7 basechar 0
LayerCount: 2
Fore
SplineSet
114 376 m 0
 122 376 135 375 141 375 c 1
 146 374 148 372 148 370 c 0
 148 368 148 365 147 362 c 1
 147 357 136 347 132 341 c 0
 114 319 105 301 102 261 c 0
 102 258 102 256 102 254 c 0
 102 222 112 175 124 151 c 1
 137 128 154 110 173 97 c 0
 178 94 182 93 186 93 c 0
 196 93 204 101 212 109 c 0
 221 118 240 137 240 155 c 0
 240 159 239 163 236 167 c 0
 224 186 217 215 213 251 c 0
 213 254 213 257 213 261 c 0
 213 302 227 332 243 356 c 1
 261 378 273 381 306 381 c 0
 309 381 312 381 314 381 c 0
 326 381 337 380 337 371 c 0
 337 370 336 368 336 367 c 0
 335 364 332 358 326 350 c 0
 317 338 309 313 309 288 c 0
 309 285 309 283 309 281 c 0
 313 215 340 157 370 119 c 0
 380 105 387 96 390 93 c 0
 393 91 396 90 398 90 c 0
 414 90 429 119 434 131 c 0
 442 152 447 182 447 213 c 0
 447 257 436 301 422 329 c 0
 419 335 418 339 418 340 c 0
 419 343 419 345 419 347 c 0
 419 355 439 360 450 363 c 0
 462 367 477 374 494 384 c 0
 498 387 501 388 504 388 c 0
 516 388 525 373 530 366 c 0
 546 348 549 314 550 279 c 0
 550 275 550 271 550 267 c 0
 550 228 539 193 527 164 c 0
 503 106 465 62 419 30 c 0
 400 17 386 8 377 5 c 0
 369 2 361 1 354 1 c 0
 310 1 291 56 269 86 c 0
 264 94 252 97 242 92 c 0
 240 91 234 86 225 77 c 0
 207 59 182 36 164 19 c 0
 146 2 149 4 130 -2 c 0
 128 -2 127 -3 125 -3 c 0
 118 -3 110 0 99 5 c 1
 74 22 51 61 36 93 c 0
 19 128 2 175 0 220 c 1
 0 290 25 341 68 367 c 0
 79 373 83 376 98 376 c 0
 106 376 106 376 114 376 c 0
EndSplineSet
Position2: "Numeral Kerning-1" dx=250 dy=0 dh=0 dv=0
EndChar

StartChar: uni0460
Encoding: 1120 1120 50
Width: 916
GlyphClass: 2
Flags: W
HStem: -156 21G<212 266.5 592.5 657> 633 20G<77 201.5 420 545 685 833.5>
VStem: 20 140<157.424 548.39> 356 135<186.84 531.357> 754 124<167.296 470.254>
AnchorPoint: "HalfMark" 494 752.5 basechar 0
AnchorPoint: "Diacritic" 494 748.7 basechar 0
AnchorPoint: "Yerok" 808 728.4 basechar 0
LayerCount: 2
Fore
SplineSet
441 30 m 1
 408 -18 295 -150 238 -156 c 1
 186 -138 137 -76 90 30 c 0
 34 155 20 219 20 349 c 0
 20 472 39 572 77 647 c 1
 213 653 l 1
 190 612 174 555 167 483 c 0
 162 438 160 396 160 359 c 0
 160 326 161 295 164 265 c 0
 179 86 212 -15 265 -39 c 0
 266 -39 268 -39 269 -39 c 0
 318 -39 368 -1 418 75 c 1
 377 158 356 254 356 365 c 0
 356 479 377 573 420 647 c 1
 556 651 l 1
 534 614 517 562 505 493 c 0
 496 436 491 380 491 325 c 0
 491 158 534 -12 650 -43 c 1
 719 -18 754 82 754 257 c 0
 754 379 731 509 685 646 c 1
 822 652 l 1
 845 589 861 533 871 484 c 0
 876 459 878 424 878 378 c 0
 878 230 865 152 799 23 c 1
 746 -82 688 -141 626 -156 c 1
 559 -137 478 -34 441 30 c 1
EndSplineSet
Validated: 19457
Position2: "'ss10' Equal Baseline Kerning Lookup-1" dx=0 dy=150 dh=0 dv=0
EndChar

StartChar: uni0477
Encoding: 1143 1143 51
Width: 492
GlyphClass: 3
Flags: HW
HStem: 1 21G<103 115> 292 93<326.026 435.848> 511 204<20 104 190 274>
VStem: 91 163<16.2373 130.451>
AnchorPoint: "Right" 141 810 basechar 0
AnchorPoint: "Left" 140 809.5 basechar 0
AnchorPoint: "HalfMark" 208 499.5 basechar 0
AnchorPoint: "Diacritic" 139 809.7 basechar 0
AnchorPoint: "Yerok" 139 808.7 basechar 0
LayerCount: 2
Fore
SplineSet
91 39 m 0
 91 53 88 70 82 90 c 1
 69 146 49 215 28 268 c 0
 18 294 18 294 10 314 c 0
 6 326 2 334 0 336 c 0
 -4 342 -6 348 -6 353 c 0
 -6 374 30 379 57 379 c 256
 65 379 77 380 86 380 c 0
 93 380 99 380 106 379 c 0
 125 377 127 378 134 358 c 0
 147 318 158 263 166 217 c 0
 170 196 174 170 179 155 c 0
 182 148 186 139 192 135 c 0
 201 129 205 136 209 145 c 0
 226 187 245 243 262 286 c 0
 286 347 307 385 390 385 c 0
 402 385 414 384 422 381 c 0
 439 377 452 376 452 354 c 0
 452 342 445 327 440 320 c 1
 428 297 402 292 370 292 c 0
 347 292 332 281 320 263 c 0
 281 208 254 139 254 47 c 0
 254 45 254 43 254 42 c 0
 254 30 250 21 242 16 c 0
 227 8 194 8 173 8 c 256
 156 8 136 2 119 2 c 1
 117 1 116 1 114 1 c 0
 92 1 91 12 91 39 c 0
325 529 m 0
 313 517 296 511 274 511 c 0
 253 511 252 523 245 543 c 0
 234 579 204 647 186 674 c 0
 179 683 175 691 173 699 c 1
 173 710 178 715 190 715 c 0
 217 715 249 706 258 690 c 1
 262 677 272 654 289 619 c 1
 314 575 327 548 327 537 c 0
 327 534 326 531 325 529 c 0
155 529 m 0
 143 517 126 511 104 511 c 0
 83 511 82 523 75 543 c 0
 64 579 34 647 16 674 c 0
 9 683 5 691 3 699 c 1
 2 710 8 715 20 715 c 0
 47 715 79 706 88 690 c 1
 92 677 102 654 119 619 c 1
 144 575 157 548 157 537 c 0
 157 534 156 531 155 529 c 0
EndSplineSet
LCarets2: 1 0
Ligature2: "'ccmp' Canonical Equivalents-1" uni0475 uni030F
EndChar

StartChar: uni0403
Encoding: 1027 1027 52
Width: 528
GlyphClass: 3
Flags: W
HStem: -157 21G<42 58 232 252.5> 467 21G<366 372> 571 68<2.71109 67.7649> 586 56<233.842 325.992> 640 20G<444.5 455.5>
VStem: 67 156<-113.105 214.219> 73 143<-80.6685 531.178> 81 138<206.531 552.881>
AnchorPoint: "Yerok" 247 1089 basechar 0
AnchorPoint: "Diacritic" 246 1089 basechar 0
AnchorPoint: "HalfMark" 229 752.5 basechar 0
LayerCount: 2
Fore
SplineSet
67 -85 m 0xd4
 71 -48 73 55 73 222 c 0xd2
 73 304 81 398 81 505 c 0
 81 514 83 530 86 554 c 0
 87 563 81 569 68 572 c 1
 63 571 57 571 50 571 c 0
 40 571 29 572 17 573 c 1
 6 579 0 591 0 608 c 0
 0 622 21 637 34 639 c 1xe1
 92 640 160 641 239 642 c 1xd1
 324 645 389 650 433 659 c 0
 438 660 442 660 447 660 c 0
 464 660 495 648 495 629 c 0
 495 624 493 619 489 613 c 1
 476 605 457 589 432 565 c 1
 411 541 394 511 381 476 c 0
 379 470 375 467 369 467 c 256
 363 467 356 470 347 477 c 0
 331 488 326 545 326 571 c 0xe9
 326 581 315 586 294 586 c 0
 289 586 284 585 278 585 c 0
 266 585 251 584 233 582 c 1
 223 578 218 571 218 562 c 0
 218 559 219 557 219 555 c 0xd1
 217 502 216 406 216 268 c 1xd2
 221 125 223 7 223 -85 c 0
 223 -94 229 -102 242 -111 c 0
 258 -123 264 -124 264 -139 c 0
 264 -150 258 -156 247 -157 c 0
 246 -157 243 -157 239 -157 c 0
 225 -157 194 -155 146 -153 c 1
 94 -158 63 -162 53 -162 c 0
 52 -162 51 -162 50 -162 c 0
 34 -161 26 -153 26 -139 c 0
 26 -126 31 -124 47 -115 c 1
 59 -107 66 -98 67 -85 c 0xd4
387 982 m 0
 407 982 428 980 428 962 c 0
 428 958 427 953 425 948 c 0
 420 935 394 895 349 829 c 1
 319 787 319 787 309 773 c 0
 290 748 276 731 265 722 c 0
 259 717 252 714 243 714 c 256
 226 714 208 728 208 744 c 0
 208 747 209 750 210 753 c 1
 219 760 245 794 288 853 c 1
 308 884 325 913 338 940 c 0
 349 961 354 971 355 972 c 0
 360 979 370 982 387 982 c 0
EndSplineSet
Validated: 19457
Position2: "'ss10' Equal Baseline Kerning Lookup-1" dx=0 dy=150 dh=0 dv=0
LCarets2: 1 0
Ligature2: "'ccmp' Canonical Equivalents-1" uni0413 uni0301
EndChar

StartChar: uni040C
Encoding: 1036 1036 53
Width: 532
GlyphClass: 3
Flags: W
HStem: -158 21G<7.5 13> 635 20G<442.5 467>
VStem: 27 136<-127.604 207.952> 49 132<98.9977 227.039 288.001 592.506> 341 134<584.312 650.858>
AnchorPoint: "HalfMark" 279 752.5 basechar 0
AnchorPoint: "Diacritic" 396.722 1023.7 basechar 0
AnchorPoint: "Yerok" 424.222 703.7 basechar 0
LayerCount: 2
Fore
SplineSet
10 622 m 0xd8
 10 640 33 642 56 642 c 0
 63 642 70 642 76 642 c 0
 88 642 102 642 117 641 c 0
 122 641 154 643 215 646 c 0
 224 647 229 642 229 632 c 0
 229 627 224 618 213 606 c 0
 201 592 194 579 190 566 c 1
 188 553 184 506 181 422 c 0xd8
 179 363 177 324 177 305 c 0
 177 298 178 293 178 292 c 256
 179 289 180 288 182 288 c 0
 191 288 210 314 228 338 c 0
 257 375 278 407 291 434 c 0
 321 495 338 543 341 578 c 0
 341 580 341 583 341 586 c 0
 341 597 339 613 335 634 c 0
 333 643 339 648 353 651 c 1
 389 651 422 655 463 655 c 0
 471 655 475 651 475 643 c 0
 475 639 474 633 472 627 c 0
 469 616 458 593 439 557 c 0
 387 459 360 417 283 338 c 1
 264 320 245 302 226 284 c 0
 222 280 221 276 222 271 c 1
 250 260 250 260 278 249 c 1
 321 230 354 208 378 182 c 0
 407 149 429 93 443 12 c 1
 451 -47 451 -47 459 -106 c 1
 466 -116 475 -123 486 -127 c 0
 490 -128 492 -132 492 -137 c 0
 492 -144 489 -147 482 -148 c 0
 463 -149 439 -149 408 -149 c 1
 385 -150 364 -151 343 -151 c 0
 330 -151 323 -146 323 -137 c 0
 323 -135 324 -133 325 -130 c 1
 334 -122 341 -118 341 -103 c 2
 341 -15 l 1
 338 33 329 75 312 111 c 0
 279 183 237 222 188 227 c 0
 181 228 174 218 175 211 c 1
 170 118 166 19 163 -87 c 1
 165 -94 170 -104 178 -118 c 1
 187 -130 191 -138 191 -141 c 0
 191 -147 186 -151 176 -153 c 0
 175 -153 175 -153 92 -153 c 0
 88 -153 15 -158 11 -158 c 0
 4 -158 0 -153 0 -146 c 0
 0 -145 0 -143 0 -141 c 0
 0 -140 -1 -140 0 -139 c 0
 8 -130 17 -114 27 -91 c 1xe8
 35 92 44 177 48 395 c 0
 49 462 49 508 49 535 c 0
 49 548 49 557 49 560 c 0
 48 581 38 597 19 607 c 0
 13 611 10 616 10 622 c 0xd8
397 977 m 0
 417 977 438 975 438 957 c 0
 438 953 437 948 435 943 c 0
 430 930 404 890 359 824 c 1
 329 782 329 782 319 768 c 0
 300 743 286 726 275 717 c 0
 269 712 262 709 253 709 c 256
 236 709 218 723 218 739 c 0
 218 742 219 745 220 748 c 1
 229 755 255 789 298 848 c 1
 318 879 335 908 348 935 c 0
 359 956 364 966 365 967 c 0
 370 974 380 977 397 977 c 0
EndSplineSet
Validated: 19457
Position2: "'ss10' Equal Baseline Kerning Lookup-1" dx=0 dy=150 dh=0 dv=0
LCarets2: 1 0
Ligature2: "'ccmp' Canonical Equivalents-1" uni041A uni0301
EndChar

StartChar: uni040B
Encoding: 1035 1035 54
Width: 771
GlyphClass: 2
Flags: W
HStem: -156 40<223.051 252.949> -149 43<416.048 459.697> 480 39<159.697 263.125 420.307 519.949> 599 54<223.175 272.844 417 467.541>
VStem: 268 149<123.452 221.305 269.015 473.47 519.576 598.858>
AnchorPoint: "HalfMark" 346 752.5 basechar 0
AnchorPoint: "Diacritic" 346 751.7 basechar 0
AnchorPoint: "Yerok" 599.5 593.7 basechar 0
LayerCount: 2
Fore
SplineSet
222 623 m 0xb8
 222 641 236 653 251 653 c 0
 255 653 337 651 341 651 c 0
 378 651 411 652 442 655 c 0
 444 655 445 655 447 655 c 0
 460 655 468 648 469 632 c 1
 469 614 461 606 442 605 c 1
 421 605 417 596 417 577 c 2
 417 550 l 2
 417 524 423 519 450 519 c 0
 451 519 453 519 456 519 c 0
 470 519 500 521 546 524 c 1
 577 523 602 523 621 523 c 0
 639 523 651 523 656 524 c 0
 657 524 657 524 658 524 c 0
 669 524 675 517 675 506 c 0
 675 504 675 501 674 498 c 0
 673 489 655 462 620 417 c 1
 608 397 580 352 569 349 c 0
 557 346 549 350 545 359 c 0
 544 362 540 385 531 428 c 1
 524 468 512 480 476 480 c 0
 473 480 469 480 466 480 c 0
 430 480 417 474 417 437 c 2
 419 314 l 1
 421 289 423 285 437 271 c 0
 444 263 469 249 511 228 c 0
 548 210 575 198 590 193 c 1
 607 186 611 173 618 158 c 1
 633 91 650 15 671 -70 c 1
 682 -97 695 -113 721 -126 c 0
 728 -130 731 -135 731 -141 c 0
 731 -150 726 -154 717 -153 c 2
 649 -149 l 2
 639 -149 588 -153 553 -153 c 0
 533 -153 518 -151 518 -148 c 2
 516 -127 l 2
 516 -120 522 -114 534 -110 c 1
 543 -105 547 -97 546 -84 c 0
 544 -22 525 103 508 151 c 0
 504 164 499 173 493 180 c 0
 489 186 438 225 430 227 c 0
 418 231 412 226 412 211 c 2
 409 48 l 2
 409 37 415 -62 416 -94 c 0
 417 -97 420 -101 427 -106 c 1
 443 -113 460 -112 460 -131 c 0
 460 -132 460 -134 460 -136 c 0
 458 -145 453 -149 445 -149 c 0x78
 437 -150 412 -152 369 -153 c 1
 306 -156 265 -156 244 -156 c 0
 231 -156 224 -154 223 -153 c 0
 216 -148 212 -143 212 -136 c 0
 212 -122 216 -120 234 -116 c 0
 245 -113 252 -110 253 -105 c 2
 253 -105 268 294 268 437 c 0
 268 468 254 476 223 477 c 0
 212 478 204 478 197 478 c 0
 180 478 174 474 159 460 c 0
 143 445 135 413 135 363 c 0
 135 350 130 344 121 344 c 0
 118 344 110 353 96 371 c 0
 86 383 76 395 67 407 c 1
 46 424 23 444 0 469 c 1
 -2 474 -3 480 -3 485 c 0
 -3 503 1 510 23 512 c 2
 138 516 l 1
 187 515 220 515 237 515 c 0
 260 516 272 527 272 548 c 2
 273 583 l 2
 273 591 269 596 261 599 c 0
 260 599 259 599 258 599 c 0
 252 599 242 601 229 605 c 1
 224 608 222 616 222 623 c 0xb8
EndSplineSet
Validated: 19457
Position2: "'ss10' Equal Baseline Kerning Lookup-1" dx=0 dy=150 dh=0 dv=0
EndChar

StartChar: uni040F
Encoding: 1039 1039 55
Width: 826
GlyphClass: 2
Flags: W
HStem: -509 42<257 308 464 515> -155 42<39 122 277 308 464 494 650 733> 604 42<39 122 277 346 425 494 650 733>
VStem: 122 155<-113 604> 308 156<-467 -155> 494 156<-113 604>
AnchorPoint: "HalfMark" 389 752.5 basechar 0
AnchorPoint: "Diacritic" 391 750.7 basechar 0
AnchorPoint: "Yerok" 595.5 751.7 basechar 0
LayerCount: 2
Fore
SplineSet
733 -155 m 1
 643 -155 554 -155 464 -155 c 1
 464 -467 l 1
 515 -467 l 1
 515 -509 l 1
 257 -509 l 1
 257 -467 l 1
 308 -467 l 1
 308 -155 l 1
 31 -155 l 1
 39 -113 l 1
 122 -113 l 1
 122 126 122 365 122 604 c 1
 39 604 l 1
 39 646 l 1
 346 646 l 1
 346 604 l 1
 277 604 l 1
 277 365 277 126 277 -113 c 1
 494 -113 l 1
 494 126 494 365 494 604 c 1
 425 604 l 1
 425 646 l 1
 733 646 l 1
 733 604 l 1
 650 604 l 1
 650 365 650 126 650 -113 c 1
 733 -113 l 1
 733 -155 l 1
EndSplineSet
Validated: 19457
Position2: "'ss10' Equal Baseline Kerning Lookup-1" dx=0 dy=150 dh=0 dv=0
EndChar

StartChar: uni0452
Encoding: 1106 1106 56
Width: 601
GlyphClass: 2
Flags: W
HStem: 0 21G<203.5 221> 130 79<304.174 330 330.001 391.268> 339 31<329.022 397.67> 349 28<115.343 211.161>
VStem: 0 102<166.056 343.677> 170 110<4.18536 106.346> 458 103<-115.191 51.3649>
AnchorPoint: "HalfMark" 296 499.5 basechar 0
AnchorPoint: "Diacritic" 375 743 basechar 0
AnchorPoint: "Yerok" 504 504.7 basechar 0
LayerCount: 2
Fore
SplineSet
435 246 m 0xee
 426 246 418 260 418 266 c 256
 418 275 420 286 417 295 c 1
 415 313 397 326 384 332 c 0
 379 335 375 336 371 336 c 0
 366 336 347 339 336 339 c 0xee
 332 339 329 339 328 338 c 0
 324 334 322 334 319 328 c 0
 305 286 295 226 290 176 c 1
 310 196 347 209 387 209 c 0
 395 209 403 208 411 207 c 0
 483 194 521 144 546 87 c 0
 556 64 561 33 561 0 c 0
 561 -24 559 -48 554 -72 c 0
 543 -125 501 -185 471 -224 c 0
 453 -248 437 -268 422 -284 c 0
 407 -301 399 -309 397 -310 c 0
 390 -313 383 -320 375 -320 c 0
 364 -320 357 -309 350 -303 c 0
 349 -301 349 -299 349 -296 c 0
 349 -291 350 -287 352 -284 c 0
 374 -251 413 -214 428 -174 c 1
 442 -141 458 -86 458 -38 c 0
 458 -37 458 -35 458 -33 c 0
 458 5 443 40 430 64 c 0
 419 83 418 82 402 99 c 0
 386 115 362 131 331 131 c 1
 331 131 330 131 330 130 c 1
 314 130 299 122 282 107 c 1
 281 93 280 82 280 73 c 0
 280 60 280 60 280 51 c 0
 280 39 281 34 281 22 c 0
 280 9 273 8 264 4 c 1
 248 3 229 0 213 0 c 0
 194 0 170 5 170 25 c 0
 170 26 170 27 170 28 c 1
 170 59 177 98 182 136 c 0
 189 194 201 267 215 321 c 0
 215 322 215 323 215 324 c 0
 215 345 186 349 159 349 c 0
 152 349 146 349 140 348 c 1
 124 348 124 343 114 334 c 1
 108 330 104 320 103 305 c 0
 103 294 102 273 102 260 c 0
 102 244 102 244 102 229 c 0
 102 220 104 207 104 195 c 0
 104 180 101 167 91 166 c 1
 72 166 45 164 26 164 c 0
 11 164 4 165 0 174 c 1
 0 189 l 2
 0 235 2 290 5 334 c 0
 6 342 6 348 6 349 c 0
 8 362 10 378 26 378 c 0
 27 378 27 378 28 378 c 0
 52 378 99 377 128 377 c 2
 211 377 l 2xde
 220 377 224 378 230 384 c 0
 238 393 235 395 242 421 c 0
 261 500 290 592 324 661 c 0
 327 668 336 670 344 670 c 2
 416 670 l 2
 427 670 431 665 431 658 c 0
 431 646 419 627 414 618 c 0
 383 551 355 472 330 389 c 0
 329 385 329 382 329 379 c 0
 329 371 359 370 381 370 c 2
 436 370 l 2
 471 370 502 380 535 380 c 256
 546 380 550 374 550 366 c 0
 550 345 532 334 520 322 c 0
 505 308 492 298 479 282 c 0
 470 272 461 262 451 253 c 0
 446 249 440 246 435 246 c 0xee
EndSplineSet
Validated: 19457
EndChar

StartChar: uni045C
Encoding: 1116 1116 57
Width: 469
GlyphClass: 3
Flags: W
HStem: -1 23G<94 114 246 270> 366 20G<134 166>
VStem: 10 124<3.14027 108.131> 10 117<12.6361 233.368> 24 105<110.939 297.507> 237 113<5.1929 113.5>
AnchorPoint: "HalfMark" 286 499.5 basechar 0
AnchorPoint: "Diacritic" 299 788 basechar 0
AnchorPoint: "Yerok" 300 788.7 basechar 0
LayerCount: 2
Fore
SplineSet
251 1 m 1xc4
 241 1 236 8 237 23 c 0
 237 25 237 28 237 30 c 0
 237 76 210 155 185 185 c 0
 181 191 182 201 187 214 c 0
 195 232 207 253 224 277 c 0
 253 318 282 345 313 359 c 1
 330 368 390 379 426 379 c 0
 439 379 449 376 449 369 c 0
 449 364 447 358 443 353 c 1
 435 346 424 334 410 319 c 1
 404 306 395 291 383 274 c 1
 376 269 370 270 365 275 c 1
 362 283 356 292 347 303 c 1
 341 306 331 305 317 300 c 0
 291 290 254 254 245 229 c 0
 243 224 245 220 250 215 c 1
 254 216 262 216 273 215 c 0
 288 213 323 133 327 119 c 0
 331 107 350 37 350 16 c 0
 350 7 346 2 340 2 c 256
 335 2 320 3 296 5 c 0
 291 5 283 4 270 3 c 2
 251 1 l 1xc4
134 14 m 1xe4
 134 0 124 -1 104 -1 c 0
 102 -1 100 -1 98 -1 c 0
 90 -1 80 0 68 0 c 0
 32 2 13 5 11 10 c 0
 10 13 10 17 10 23 c 0xe4
 10 42 23 151 24 166 c 0
 26 218 29 275 32 338 c 1
 34 353 44 362 61 366 c 1
 93 370 115 377 153 386 c 0
 155 386 157 386 159 386 c 0
 173 386 184 375 184 362 c 0
 184 346 168 331 160 320 c 0
 145 298 130 210 129 176 c 0xcc
 128 152 127 130 127 110 c 0xd4
 127 70 130 38 134 14 c 1xe4
372 752 m 0
 393 752 414 750 414 732 c 0
 414 728 413 723 411 718 c 0
 406 705 380 665 334 599 c 0
 315 571 302 552 295 543 c 0
 276 518 262 501 251 492 c 0
 245 487 238 484 229 484 c 256
 212 484 194 498 194 514 c 0
 194 517 194 520 195 523 c 1
 204 530 231 564 274 623 c 1
 294 654 311 683 324 710 c 0
 335 731 340 741 341 742 c 0
 345 749 356 752 372 752 c 0
EndSplineSet
Validated: 19457
LCarets2: 1 0
Ligature2: "'ccmp' Canonical Equivalents-1" uni043A uni0301
EndChar

StartChar: uni045B
Encoding: 1115 1115 58
Width: 576
GlyphClass: 2
Flags: W
HStem: -2 21G<203.5 212.5 418 421> 133 76<303.065 406.178> 164 215<7.5398 99.796> 246 125<418.008 465.744> 349 28<114.599 212.891 338.245 375.996>
VStem: 0 104<167.052 335.331> 170 110<5.23511 107.39> 418 95<3.23512 120.953>
DStem2: 215 322 319 329 0.261641 0.965165<-116.84 3.86066 82.3887 351.879>
AnchorPoint: "HalfMark" 346 499.5 basechar 0
AnchorPoint: "Diacritic" 355 753.8 basechar 0
AnchorPoint: "Yerok" 472 457.5 basechar 0
LayerCount: 2
Fore
SplineSet
32 164 m 0xa7
 10 164 11 164 0 175 c 1
 0 175 0 178 0 182 c 0
 0 212 2 335 6 350 c 1
 9 369 16 379 27 379 c 2
 28 379 l 1xa7
 85 377 129 377 161 377 c 0x8f
 193 377 213 377 220 379 c 0xa7
 227 380 231 385 234 393 c 0
 243 425 251 457 260 488 c 0
 280 559 301 617 324 662 c 0
 327 667 333 671 344 671 c 2
 364 671 l 2
 365 671 366 671 368 671 c 0
 374 671 384 671 398 671 c 0
 404 671 409 671 416 671 c 2
 418 671 l 2
 427 671 431 669 431 662 c 0
 431 657 429 648 424 639 c 0
 394 584 363 499 330 388 c 1
 329 379 332 376 338 374 c 0
 343 372 363 371 397 371 c 0
 408 371 418 371 426 371 c 0
 443 371 455 371 463 372 c 0
 468 372 527 381 535 381 c 0
 545 381 550 376 550 366 c 0
 550 361 548 356 545 350 c 0
 542 344 533 335 520 323 c 0
 503 308 494 300 491 297 c 0
 478 282 478 282 465 267 c 1
 454 256 446 246 437 246 c 0x97
 429 246 418 258 418 267 c 0
 418 285 418 295 417 296 c 0
 414 313 400 325 376 335 c 1
 361 340 351 343 343 343 c 0
 332 343 326 338 319 329 c 1
 309 302 299 252 290 177 c 1
 311 198 344 209 387 209 c 0
 458 209 499 172 510 98 c 1
 512 77 513 57 513 38 c 0
 513 34 513 29 513 25 c 1
 508 14 517 8 502 3 c 1
 479 1 452 3 428 -1 c 0
 425 -2 422 -2 420 -2 c 0
 416 -2 412 -1 410 -0 c 1
 407 4 407 8 410 13 c 0
 416 23 418 41 418 58 c 0
 418 108 406 133 352 133 c 0
 347 133 342 133 336 132 c 1
 317 132 299 124 282 108 c 1
 281 95 280 81 280 68 c 0
 280 51 281 35 281 23 c 1
 280 16 275 10 264 5 c 1
 238 3 219 1 206 1 c 0
 201 1 197 2 194 2 c 0
 183 3 170 15 170 27 c 0
 170 139 195 244 215 322 c 1
 215 323 215 324 215 326 c 0
 215 348 190 348 161 349 c 0
 156 349 152 349 149 349 c 0xcf
 126 349 127 346 114 336 c 1
 103 322 100 291 100 262 c 0
 100 233 104 215 104 192 c 0
 104 176 100 168 91 167 c 0
 65 165 45 164 32 164 c 0xa7
EndSplineSet
Validated: 19457
EndChar

StartChar: uni040E
Encoding: 1038 1038 60
Width: 720
GlyphClass: 3
Flags: W
HStem: 536 128<537.602 614.653> 754 83<310.5 399.862>
VStem: 255 91<802 865.367>
DStem2: 263 591 128 526 0.195178 -0.980768<-24.7156 428.324>
AnchorPoint: "HalfMark" 380 752.5 basechar 0
AnchorPoint: "Diacritic" 444 1041.2 basechar 0
AnchorPoint: "Yerok" 611.5 754.2 basechar 0
LayerCount: 2
Fore
SplineSet
480 933 m 0
 485 940 491 943 497 943 c 0
 508 943 517 933 517 917 c 0
 517 902 504 876 476 841 c 0
 445 802 416 777 389 767 c 0
 367 758 346 754 326 754 c 0
 295 754 275 762 264 779 c 0
 258 788 255 797 255 807 c 0
 255 822 262 841 276 864 c 0
 295 895 321 919 353 937 c 0
 360 940 365 942 369 942 c 0
 378 942 382 936 383 925 c 1
 375 910 364 896 355 882 c 0
 349 873 346 866 346 859 c 0
 346 844 356 837 376 837 c 0
 381 837 387 837 393 838 c 0
 407 840 424 854 444 880 c 1
 456 898 468 916 480 933 c 0
253 -515 m 0
 242 -515 227 -505 227 -488 c 0
 227 -486 228 -484 228 -482 c 1
 228 -469 240 -465 250 -459 c 0
 269 -447 285 -433 298 -412 c 1
 325 -362 346 -279 360 -164 c 1
 373 -48 380 20 380 44 c 0
 380 57 368 63 343 63 c 2
 282 63 l 2
 237 63 213 84 208 126 c 1
 196 206 149 452 128 526 c 1
 115 567 99 587 81 587 c 0
 78 587 75 587 72 586 c 1
 68 588 62 588 57 588 c 0
 55 588 52 588 50 588 c 0
 40 588 32 589 30 600 c 1
 33 625 84 612 101 622 c 1
 170 635 l 1
 217 635 248 620 263 591 c 1
 343 189 l 1
 347 180 356 175 371 175 c 0
 372 175 372 175 373 175 c 0
 384 175 392 181 398 192 c 1
 405 261 415 370 430 521 c 1
 439 587 458 627 488 642 c 1
 515 657 535 664 549 664 c 0
 594 664 639 655 685 636 c 1
 685 614 l 1
 665 598 643 535 636 502 c 1
 622 502 l 1
 611 525 596 536 577 536 c 0
 559 536 544 526 532 506 c 0
 521 489 510 429 498 327 c 0
 473 120 445 -67 416 -232 c 0
 401 -314 374 -400 335 -455 c 1
 321 -472 304 -490 280 -506 c 0
 271 -512 262 -515 253 -515 c 0
EndSplineSet
Validated: 19457
Position2: "'ss10' Equal Baseline Kerning Lookup-1" dx=0 dy=150 dh=0 dv=0
LCarets2: 1 0
Ligature2: "'ccmp' Canonical Equivalents-1" uni0423 uni0306
EndChar

StartChar: uni045E
Encoding: 1118 1118 61
Width: 429
GlyphClass: 3
Flags: W
HStem: 0 21G<98 114> 325 75<313.075 388.121> 370 20G<80 98> 486 83<166 260.929>
VStem: 116 91<520 597.368> 126 71<-358.867 -284.846>
DStem2: 140 273 45 193 0.168475 -0.985706<-111.52 149.848> 178 -161 249 -113 0.0784972 0.996914<-60.5998 141.945 288.968 464.392>
AnchorPoint: "HalfMark" 207 499.5 basechar 0
AnchorPoint: "Diacritic" 302 758 basechar 0
AnchorPoint: "Yerok" 306 758.7 basechar 0
LayerCount: 2
Fore
SplineSet
187 -18 m 0xd4
 187 6 183 14 159 14 c 0
 154 14 149 13 146 11 c 0
 136 4 121 0 107 0 c 0
 89 0 72 7 71 26 c 0
 69 53 60 108 45 193 c 0
 38 229 28 266 17 303 c 1
 10 323 0 342 0 366 c 0
 0 369 -1 372 -1 373 c 0
 -1 374 -1 375 0 375 c 1
 10 384 70 390 90 390 c 0xb4
 106 390 114 388 115 383 c 0
 121 360 129 324 140 273 c 1
 145 237 151 193 158 142 c 0
 159 133 163 127 170 126 c 0
 171 126 177 127 188 128 c 0
 195 129 199 134 202 145 c 1
 204 170 206 195 208 220 c 0
 213 271 222 309 233 336 c 0
 249 375 296 396 375 400 c 1
 375 400 375 400 376 400 c 0
 385 400 389 387 389 360 c 0
 389 339 386 328 380 325 c 1
 297 317 274 281 268 177 c 0
 264 110 258 14 249 -113 c 1
 244 -157 236 -205 224 -257 c 1
 213 -310 204 -340 197 -349 c 0
 189 -358 179 -363 168 -363 c 0
 146 -363 126 -349 126 -332 c 0
 126 -329 127 -325 128 -321 c 1
 147 -292 160 -258 168 -221 c 1
 173 -191 173 -191 178 -161 c 0
 180 -152 187 -45 187 -18 c 0xd4
187 486 m 0
 145 486 116 501 116 539 c 0
 116 554 123 573 137 596 c 0
 156 627 182 652 215 669 c 0
 221 672 226 674 230 674 c 0
 239 674 243 671 244 660 c 1
 238 648 230 635 216 614 c 0
 210 605 207 598 207 591 c 0x98
 207 576 217 569 237 569 c 0
 242 569 248 569 254 570 c 0
 268 572 285 586 306 612 c 1
 318 630 330 648 342 665 c 0
 347 672 353 675 359 675 c 0
 370 675 379 665 379 649 c 0
 379 634 366 609 339 574 c 0
 307 534 277 509 250 498 c 0
 228 490 207 486 187 486 c 0
EndSplineSet
Validated: 19457
LCarets2: 1 0
Ligature2: "'ccmp' Canonical Equivalents-1" uni0443 uni0306
EndChar

StartChar: uni0408
Encoding: 1032 1032 62
Width: 504
GlyphClass: 2
Flags: W
HStem: -153 47<172.866 243.984> 627 21G<293 389 449.5 484>
VStem: 22 129<-23.0691 25.7065> 314 134<81.3535 479.671> 322 131<269.953 599.221>
AnchorPoint: "HalfMark" 256 752.5 basechar 0
AnchorPoint: "Diacritic" 389 751.7 basechar 0
AnchorPoint: "Yerok" 388.5 718.6 basechar 0
LayerCount: 2
Fore
SplineSet
37 33 m 1xf0
 113 33 151 28 151 4 c 0
 151 -6 146 -10 146 -20 c 0
 146 -33 151 -48 161 -66 c 0
 173 -89 187 -102 204 -105 c 0
 206 -105 208 -106 211 -106 c 0
 234 -106 255 -80 274 -28 c 1
 292 25 305 95 314 183 c 1xf0
 319 430 322 556 322 561 c 0
 322 570 310 590 287 617 c 0
 284 620 283 623 283 627 c 0
 283 636 288 642 298 647 c 1
 298 647 328 646 389 645 c 0
 394 645 423 646 476 648 c 1
 478 648 l 2
 490 648 496 643 496 634 c 0
 496 627 493 621 488 614 c 1
 476 601 453 579 453 557 c 0xe8
 449 446 448 355 448 285 c 0
 448 264 448 246 448 229 c 0
 448 140 424 49 377 -43 c 1
 327 -116 273 -153 214 -153 c 0
 161 -153 124 -134 90 -98 c 0
 69 -75 56 -53 50 -31 c 0
 49 -29 43 -22 32 -9 c 0
 26 -1 22 7 22 15 c 0
 22 22 26 29 37 33 c 1xf0
EndSplineSet
Validated: 19457
Position2: "'ss10' Equal Baseline Kerning Lookup-1" dx=0 dy=150 dh=0 dv=0
EndChar

StartChar: uni0490
Encoding: 1168 1168 63
Width: 529
GlyphClass: 2
Flags: W
HStem: -157 21G<42 58 232 252.5> 571 68<2.71109 67.7649> 583 55<219.969 326.049>
VStem: 67 156<-113.105 214.219> 73 143<-80.6685 531.178> 81 138<274.438 552.881>
AnchorPoint: "HalfMark" 224 752.5 basechar 0
AnchorPoint: "Yerok" 453 774.7 basechar 0
AnchorPoint: "Diacritic" 185 821.7 basechar 0
LayerCount: 2
Fore
SplineSet
239 583 m 1xa4
 226 577 220 568 219 555 c 0xa4
 217 502 216 406 216 268 c 1xa8
 221 125 223 7 223 -85 c 0
 223 -94 229 -102 242 -111 c 0
 258 -123 264 -124 264 -139 c 0
 264 -150 258 -156 247 -157 c 0
 246 -157 243 -157 239 -157 c 0
 225 -157 194 -155 146 -153 c 1
 94 -158 63 -162 53 -162 c 0
 52 -162 51 -162 50 -162 c 0
 34 -161 26 -153 26 -139 c 0
 26 -126 31 -124 47 -115 c 1
 59 -107 66 -98 67 -85 c 0xb0
 71 -48 73 55 73 222 c 0xa8
 73 304 76 398 81 505 c 0
 81 514 83 530 86 554 c 0
 87 563 81 569 68 572 c 1
 63 571 57 571 50 571 c 0
 40 571 29 572 17 573 c 1
 6 579 0 591 0 608 c 0
 0 622 21 637 34 639 c 1
 53 639 75 639 100 639 c 0xc4
 148 639 207 639 276 638 c 0
 279 638 282 638 285 638 c 0
 312 638 326 643 326 655 c 0
 326 667 327 684 330 706 c 0
 333 728 338 742 347 749 c 0
 356 755 363 758 369 758 c 256
 375 758 379 755 381 749 c 0
 394 714 411 684 432 660 c 1
 457 636 476 620 489 612 c 1
 493 606 495 601 495 596 c 0
 495 577 464 565 447 565 c 0
 442 565 438 565 433 566 c 0
 389 575 324 580 239 583 c 1xa4
EndSplineSet
Validated: 19457
Position2: "'ss10' Equal Baseline Kerning Lookup-1" dx=0 dy=150 dh=0 dv=0
EndChar

StartChar: uni0401
Encoding: 1025 1025 64
Width: 517
GlyphClass: 3
Flags: W
HStem: -153 47<249.017 319.643> 386 21G<367.5 409.5> 593 54<216.323 297.348> 718 105<308.794 394.647> 725 104<129.753 215.87>
VStem: 28 144<253.004 446.992> 120 107<734.24 817.339> 299 107<727.991 811.532> 332 130<389.816 469.382> 346 146<151.588 223.656> 348 124<-23.6719 26.6016>
AnchorPoint: "Yerok" 266 888.8 basechar 0
AnchorPoint: "Diacritic" 264 887 basechar 0
AnchorPoint: "HalfMark" 266 752.5 basechar 0
LayerCount: 2
Fore
SplineSet
462 410 m 0xe480
 462 389 433 386 386 386 c 0
 349 386 332 387 332 416 c 1xe480
 333 425 334 435 334 446 c 0
 334 473 329 503 319 531 c 0
 304 572 284 593 257 593 c 0
 200 593 172 513 172 354 c 0
 172 328 174 299 174 268 c 0
 174 258 178 253 185 253 c 1
 182 253 191 258 211 268 c 0
 242 284 272 292 301 292 c 0
 354 292 427 262 457 238 c 0
 477 221 492 191 492 156 c 0
 492 150 487 145 480 146 c 0
 471 148 461 148 450 148 c 0
 420 148 387 143 357 140 c 0
 344 138 338 143 338 155 c 0
 338 158 339 162 341 165 c 0
 344 171 346 180 346 192 c 0xe440
 346 230 328 249 292 250 c 1
 251 250 221 239 200 218 c 0
 187 205 180 193 180 184 c 0
 180 99 203 21 220 -28 c 0
 239 -80 260 -106 283 -106 c 0
 286 -106 288 -105 290 -105 c 0
 307 -102 321 -89 333 -66 c 0
 343 -48 348 -33 348 -20 c 0
 348 -10 343 -6 343 4 c 0
 343 28 381 32 457 33 c 1
 468 29 472 23 472 15 c 0xe020
 472 -2 448 -25 444 -31 c 1
 438 -53 425 -75 404 -98 c 0
 371 -134 333 -153 281 -153 c 0
 222 -153 167 -113 117 -33 c 0
 57 62 28 158 28 287 c 0
 28 465 91 603 225 641 c 0
 240 645 255 647 269 647 c 0
 326 647 373 614 409 549 c 0
 424 522 436 489 445 450 c 1
 456 435 462 421 462 410 c 0xe480
299 767 m 0xf1
 299 803 323 823 351 823 c 0
 353 823 354 823 355 823 c 0
 381 821 406 799 406 770 c 0
 406 768 406 766 406 764 c 0
 401 733 384 718 355 718 c 0
 353 718 351 718 349 718 c 0
 323 720 299 740 299 767 c 0xf1
120 782 m 0xea
 126 813 143 829 171 829 c 0
 173 829 174 829 175 829 c 0
 201 828 227 805 227 778 c 0
 227 775 226 773 226 770 c 0
 221 740 204 725 175 725 c 0
 173 725 171 725 169 725 c 0
 142 726 120 747 120 775 c 0
 120 777 120 780 120 782 c 0xea
EndSplineSet
Validated: 19457
Position2: "'ss10' Equal Baseline Kerning Lookup-1" dx=0 dy=150 dh=0 dv=0
LCarets2: 1 0
Ligature2: "'ccmp' Canonical Equivalents-1" uni0415 uni0308
EndChar

StartChar: uni0404
Encoding: 1028 1028 65
Width: 517
GlyphClass: 2
Flags: W
HStem: -153 48<248.384 321.48> 250 42<218.104 335.732> 386 21G<355.5 410.5> 593 54<214.547 296.41>
VStem: 28 143<196.138 449.819> 331 131<389.375 467.975> 346 146<151.115 224.273>
AnchorPoint: "HalfMark" 266 752.5 basechar 0
AnchorPoint: "Yerok" 405 698.7 basechar 0
AnchorPoint: "Diacritic" 266 751.7 basechar 0
LayerCount: 2
Fore
SplineSet
346 190 m 0xfa
 346 227 329 250 292 250 c 0
 250 250 219 237 200 218 c 0
 191 209 180 195 180 183 c 1
 187 108 199 30 220 -27 c 0
 229 -54 240 -74 252 -88 c 0
 261 -100 273 -105 284 -105 c 0
 295 -105 306 -100 315 -91 c 0
 331 -75 348 -48 348 -20 c 256
 348 -9 342 -7 342 1 c 0
 342 15 347 20 364 24 c 0
 392 30 423 33 457 33 c 1
 467 30 472 23 472 14 c 0
 472 6 468 -3 462 -9 c 0
 455 -15 449 -22 444 -31 c 1
 431 -74 398 -110 359 -133 c 0
 338 -145 311 -153 283 -153 c 0
 265 -153 247 -149 230 -141 c 0
 155 -108 107 -29 75 48 c 0
 46 117 28 196 28 288 c 0
 28 412 59 510 120 579 c 0
 147 608 182 629 225 641 c 0
 241 645 255 647 269 647 c 0
 331 647 374 608 400 564 c 0
 419 532 434 494 445 450 c 1
 451 442 462 427 462 413 c 0
 462 386 428 386 393 386 c 0
 382 386 373 386 366 386 c 0
 345 388 331 393 331 409 c 0xfc
 331 418 333 429 334 446 c 1
 334 498 317 552 290 579 c 0
 280 589 269 593 258 593 c 0
 237 593 216 579 206 560 c 1
 178 513 171 440 171 363 c 0
 171 331 173 299 174 268 c 0
 174 259 181 249 190 255 c 0
 212 271 239 282 279 290 c 0
 287 292 295 292 303 292 c 0
 328 292 353 286 374 279 c 0
 433 261 492 233 492 158 c 0
 492 148 488 146 480 146 c 0
 474 146 466 147 456 147 c 1
 454 148 452 148 450 148 c 0
 427 148 407 144 384 143 c 0
 374 142 364 140 355 140 c 0
 346 140 338 145 338 154 c 0
 338 157 339 161 341 165 c 0
 344 171 346 180 346 190 c 0xfa
EndSplineSet
Validated: 19457
Position2: "'ss10' Equal Baseline Kerning Lookup-1" dx=0 dy=150 dh=0 dv=0
AlternateSubs2: "'salt' Stylistic Alternatives-1" uni0404.alt
Colour: ff00
EndChar

StartChar: uni00AB
Encoding: 171 171 66
Width: 476
Flags: W
HStem: -2 21G<176 221 356 401>
LayerCount: 2
Fore
SplineSet
112 187 m 1
 150 144 188 96 240 17 c 1
 237 7 226 -2 216 -2 c 1
 136 83 86 132 30 181 c 1
 30 193 l 1
 86 242 136 290 216 376 c 1
 226 374 237 367 240 357 c 1
 188 278 150 229 112 187 c 1
292 187 m 1
 330 144 368 96 420 17 c 1
 417 7 406 -2 396 -2 c 1
 316 83 266 132 210 181 c 1
 210 193 l 1
 266 242 316 290 396 376 c 1
 406 374 417 367 420 357 c 1
 368 278 330 229 292 187 c 1
EndSplineSet
Validated: 19457
EndChar

StartChar: uni0407
Encoding: 1031 1031 67
Width: 298
GlyphClass: 2
Flags: W
HStem: -165 808<64.875 206> 725 105<162.377 239.576> 732 104<17.6997 102.676>
VStem: 6 107<743.004 824.863> 45 145<-121.721 232.25> 53 136<-89.2612 539.894> 64 129<264.932 597.037> 151 107<735.474 818.946>
AnchorPoint: "HalfMark" 133 752.5 basechar 0
AnchorPoint: "Yerok" 132.5 892.9 basechar 0
AnchorPoint: "Diacritic" 133 892 basechar 0
LayerCount: 2
Fore
SplineSet
53 241 m 256x84
 53 342 64 458 64 559 c 0
 64 579 38 603 29 614 c 256
 26 618 24 622 24 626 c 0
 24 637 37 646 50 646 c 0
 76 646 103 643 129 643 c 0
 147 643 147 643 160 643 c 0
 181 643 196 646 216 646 c 0
 230 646 236 639 236 631 c 0
 236 625 233 618 228 612 c 0
 218 600 193 577 193 555 c 0x82
 193 470 188 370 188 283 c 0
 188 257 188 257 188 247 c 1
 189 240 189 229 189 211 c 2
 189 83 l 2x84
 189 40 190 -6 190 -45 c 0
 190 -92 196 -106 218 -129 c 0
 222 -133 224 -141 224 -148 c 0
 224 -153 223 -158 219 -159 c 1
 212 -163 206 -165 200 -165 c 0
 193 -165 186 -163 174 -161 c 0
 154 -157 118 -155 87 -155 c 2
 28 -155 l 258
 21 -155 16 -149 16 -141 c 0
 16 -138 17 -135 19 -132 c 0
 30 -121 42 -96 45 -79 c 1x88
 45 11 53 120 53 213 c 0
 53 237 53 237 53 241 c 256x84
208 725 m 0xc1
 178 725 151 744 151 774 c 0
 151 803 173 830 202 830 c 0
 230 830 258 809 258 779 c 0
 258 762 251 745 240 735 c 0
 231 728 219 725 208 725 c 0xc1
63 732 m 0xb0
 34 732 6 752 6 781 c 0
 6 809 29 836 57 836 c 0
 86 836 113 815 113 784 c 0
 113 755 94 732 63 732 c 0xb0
EndSplineSet
Validated: 19457
Position2: "'ss10' Equal Baseline Kerning Lookup-1" dx=0 dy=150 dh=0 dv=0
LCarets2: 1 0
Ligature2: "'ccmp' Canonical Equivalents-1" uni0406 uni0308
EndChar

StartChar: uni0406
Encoding: 1030 1030 68
Width: 266
GlyphClass: 2
Flags: W
HStem: -163 808<54.2508 196> -154 21G<32.5 39>
VStem: 35 145<-119.721 234.25> 43 136<-87.2612 545.46> 54 129<179.443 599.037>
AnchorPoint: "HalfMark" 129 752.5 basechar 0
AnchorPoint: "Yerok" 129 716.7 basechar 0
AnchorPoint: "Diacritic" 128 771.7 basechar 0
LayerCount: 2
Fore
SplineSet
150 645 m 0x88
 171 645 186 648 206 648 c 0
 220 648 226 641 226 633 c 0
 226 627 223 620 218 614 c 0
 208 602 183 579 183 557 c 0x88
 183 472 178 372 178 285 c 0
 178 259 178 259 178 249 c 0
 179 242 179 231 179 213 c 2
 179 85 l 2x90
 179 42 180 -4 180 -43 c 0
 180 -90 186 -104 208 -127 c 0
 212 -131 214 -139 214 -146 c 0
 214 -151 213 -156 209 -157 c 0
 202 -161 196 -163 190 -163 c 0xa0
 183 -163 176 -161 164 -159 c 0
 144 -155 108 -153 77 -153 c 0
 68 -153 60 -152 52 -153 c 0
 46 -154 41 -154 37 -154 c 0
 28 -154 21 -153 18 -153 c 256
 11 -153 6 -147 6 -139 c 0
 6 -136 7 -133 9 -130 c 0
 20 -119 32 -94 35 -77 c 1x60
 35 13 43 122 43 215 c 0
 43 239 43 239 43 243 c 256x50
 43 315 49 401 51 474 c 0
 52 505 54 537 54 561 c 0
 54 581 28 605 19 616 c 256
 16 620 14 624 14 628 c 0
 14 639 27 648 40 648 c 0
 66 648 93 645 119 645 c 0
 137 645 137 645 150 645 c 0x88
EndSplineSet
Validated: 19457
Position2: "'ss10' Equal Baseline Kerning Lookup-1" dx=0 dy=150 dh=0 dv=0
EndChar

StartChar: uni0456
Encoding: 1110 1110 69
Width: 208
GlyphClass: 2
Flags: HW
HStem: -0 21G<74.5 115> 371 20G<136.5 155>
VStem: 23 106<18.7856 326.567>
AnchorPoint: "Right" 197 450 basechar 0
AnchorPoint: "Left" 36 449.5 basechar 0
AnchorPoint: "HalfMark" 120 499.5 basechar 0
AnchorPoint: "Numeral" 85 189.1 basechar 0
AnchorPoint: "Diacritic" 120 497 basechar 0
AnchorPoint: "Yerok" 120 444.7 basechar 0
LayerCount: 2
Fore
SplineSet
30 4 m 0
 13 8 10 12 10 26 c 0
 10 30 10 34 10 39 c 0
 12 83 21 136 23 179 c 256
 25 225 32 282 36 327 c 0
 39 360 40 376 68 382 c 0
 82 386 94 383 108 386 c 256
 114 387 118 388 122 388 c 0
 124 388 131 389 142 391 c 0
 144 391 146 391 148 391 c 0
 162 391 173 383 173 370 c 0
 173 351 157 338 149 327 c 0
 143 318 141 294 138 278 c 0
 132 238 129 190 129 143 c 0
 129 99 131 55 136 17 c 1
 134 3 124 2 106 -0 c 0
 99 -0 92 -0 84 -0 c 0
 65 -0 45 1 30 4 c 0
EndSplineSet
Position2: "Numeral Kerning-1" dx=250 dy=0 dh=0 dv=0
EndChar

StartChar: uni0491
Encoding: 1169 1169 70
Width: 393
GlyphClass: 2
Flags: W
HStem: 0 21G<58 86.5> 351 34<139.214 227.667>
VStem: 10 117<2.2351 301.992>
AnchorPoint: "HalfMark" 166 499.5 basechar 0
AnchorPoint: "Yerok" 332.5 491.2 basechar 0
AnchorPoint: "Diacritic" 166 555 basechar 0
LayerCount: 2
Fore
SplineSet
202 350 m 0
 190 350 181 351 173 351 c 0
 152 351 141 347 139 333 c 0
 135 295 131 242 127 174 c 0
 127 171 127 167 127 162 c 0
 127 133 129 85 133 19 c 0
 133 13 129 7 120 2 c 0
 117 1 101 0 72 0 c 1
 44 1 28 1 23 2 c 0
 14 4 10 10 10 20 c 0
 10 177 19 234 37 363 c 1
 42 377 52 387 66 389 c 1
 105 388 145 386 188 385 c 1
 207 386 221 391 228 398 c 0
 241 411 249 432 252 463 c 0
 253 473 256 478 262 478 c 0
 265 478 267 477 268 474 c 0
 294 427 322 396 353 362 c 0
 356 360 357 356 357 353 c 0
 357 348 354 344 348 343 c 1
 348 343 301 350 202 350 c 0
EndSplineSet
Validated: 19457
AlternateSubs2: "'salt' Stylistic Alternatives-1" uni0491.alt
EndChar

StartChar: uni0451
Encoding: 1105 1105 71
Width: 440
GlyphClass: 3
Flags: W
HStem: -148 55<169.586 260.823> 133 75<234.5 314> 334 53<161.456 274.497> 493 105<280.794 366.647> 500 104<106.753 192.87>
VStem: 0 97<112.349 234.016> 97 107<509.24 592.339> 271 107<502.991 586.532>
AnchorPoint: "HalfMark" 236 499.5 basechar 0
AnchorPoint: "Diacritic" 236 653.7 basechar 0
AnchorPoint: "Yerok" 236 654.4 basechar 0
LayerCount: 2
Fore
SplineSet
389 310 m 0xe5
 389 299 377 297 363 297 c 0
 352 297 340 299 334 299 c 2
 334 299 310 295 295 295 c 0
 289 295 285 295 284 297 c 0
 273 322 252 334 221 334 c 0
 140 334 97 275 97 156 c 0
 97 152 99 147 99 142 c 0
 99 122 103 112 110 112 c 0
 121 112 153 128 207 160 c 0
 261 192 296 208 311 208 c 0
 317 208 323 203 328 193 c 0
 332 186 360 151 412 86 c 1
 412 78 408 74 399 74 c 0
 389 74 354 80 344 80 c 0
 336 80 309 76 301 76 c 0
 297 76 289 86 276 104 c 1
 264 124 252 133 239 133 c 0
 230 133 210 126 180 113 c 0
 151 100 134 90 130 83 c 0
 126 76 124 70 124 63 c 0
 124 28 152 -21 209 -86 c 0
 213 -91 220 -93 231 -93 c 0
 246 -93 263 -86 282 -72 c 0
 301 -58 313 -51 320 -51 c 0
 330 -51 335 -56 335 -66 c 0
 335 -79 316 -96 278 -117 c 0
 240 -138 213 -148 198 -148 c 0
 143 -147 96 -117 57 -54 c 1
 19 5 0 71 0 142 c 0
 0 208 29 266 86 316 c 0
 139 363 197 387 260 387 c 0
 281 387 306 379 337 364 c 0
 372 347 389 329 389 310 c 0xe5
271 542 m 0
 271 578 295 598 323 598 c 0
 325 598 326 598 327 598 c 0
 353 596 378 574 378 545 c 0
 378 543 378 541 378 539 c 0
 373 508 356 493 327 493 c 0
 325 493 323 493 321 493 c 0xf1
 295 495 271 515 271 542 c 0
97 557 m 0xeb
 103 588 120 604 148 604 c 0
 150 604 151 604 152 604 c 0
 178 603 204 580 204 553 c 0
 204 550 203 548 203 545 c 0
 198 515 181 500 152 500 c 0
 150 500 148 500 146 500 c 0
 119 501 97 522 97 550 c 0
 97 552 97 555 97 557 c 0xeb
EndSplineSet
Validated: 19457
LCarets2: 1 0
Ligature2: "'ccmp' Canonical Equivalents-1" uni0435 uni0308
EndChar

StartChar: uni2116
Encoding: 8470 8470 72
Width: 962
GlyphClass: 2
Flags: W
HStem: 0 21G<5.5 36.5 174.5 186.5 533.5 540> 150 144<683.125 783.727> 334 89<713.78 775.683> 639 89<692.23 766.311>
VStem: 28 142<39.3205 409.845> 41 134<92.7317 495.993> 59 135<532.428 738.618> 350 130<501.241 753.25> 360 128<472.985 720.837> 364 134<172.521 434.754> 550 97<497.159 607.091> 663 146<175.571 274.007> 828 90<470.592 570.372>
DStem2: 241 509 203 492 0.908469 -0.417953<-39.8613 115.285> 496 444 366 374 0.0827033 -0.996574<-5.07103 379.67>
LayerCount: 2
Fore
SplineSet
77 4 m 0xf838
 59 4 45 0 28 0 c 0
 19 0 12 0 9 0 c 256
 2 0 -3 8 -3 16 c 0
 -3 19 -2 22 0 25 c 0
 11 36 23 60 26 77 c 0
 27 79 27 88 28 104 c 0xf838
 32 195 41 299 41 393 c 256xf438
 41 482 52 585 58 674 c 1
 58 689 59 699 59 702 c 0
 59 721 34 741 25 752 c 0
 22 756 21 759 21 763 c 0
 21 772 29 780 36 783 c 0
 43 786 58 786 69 786 c 0
 87 787 110 788 129 788 c 0
 158 788 179 791 202 796 c 0
 207 797 213 798 219 798 c 0
 233 798 238 791 238 783 c 0
 238 777 236 770 231 764 c 256
 221 752 207 742 198 728 c 0
 196 724 194 718 194 713 c 256
 194 679 189 625 185 583 c 0
 185 581 185 578 185 576 c 0
 185 559 191 541 199 532 c 0
 208 523 228 515 241 509 c 0
 251 504 262 500 274 495 c 0
 295 485 313 477 335 472 c 0
 338 472 340 472 342 472 c 0
 356 472 360 483 360 498 c 0xf2b8
 360 567 350 645 350 712 c 0
 350 729 334 745 326 756 c 1
 320 761 311 769 311 778 c 0
 311 780 312 782 313 784 c 0
 319 795 323 798 340 798 c 1
 347 799 356 799 366 799 c 0
 382 799 405 800 420 800 c 1
 443 803 479 811 502 813 c 1
 516 813 521 804 521 795 c 0
 521 789 519 782 514 776 c 0
 503 764 481 745 480 723 c 1xf138
 480 677 485 622 488 572 c 0xf0b8
 490 530 493 484 496 444 c 0
 497 428 498 416 498 409 c 256
 498 358 507 300 512 248 c 0
 518 195 523 139 528 90 c 0
 530 65 543 49 554 34 c 0
 557 30 560 22 560 15 c 0
 560 10 559 6 556 4 c 0
 549 1 543 0 537 0 c 0
 530 0 523 1 512 3 c 0
 490 7 455 10 425 10 c 0
 409 10 374 7 366 7 c 0
 359 7 354 15 354 23 c 0
 354 26 355 29 357 32 c 0
 368 43 379 67 383 84 c 0
 384 86 384 95 382 111 c 1
 377 194 373 292 366 374 c 0
 365 390 364 399 364 402 c 0
 364 404 364 406 364 408 c 0
 364 433 341 435 318 442 c 1
 297 447 243 469 226 478 c 1
 217 484 209 489 203 492 c 0
 198 495 194 496 191 496 c 0
 181 496 177 487 178 474 c 1
 177 456 174 435 174 416 c 0
 174 410 174 404 175 399 c 1
 175 389 175 389 175 364 c 0xf478
 175 285 172 194 170 115 c 0
 170 112 170 110 170 108 c 0
 170 67 178 55 198 32 c 0
 201 28 203 20 203 13 c 0
 203 8 202 2 198 0 c 0
 193 -3 189 -3 184 -3 c 0
 182 -3 180 -3 177 -3 c 0
 172 -3 165 -1 154 0 c 0
 135 3 105 4 77 4 c 0xf838
550 529 m 0
 550 597 593 644 635 674 c 0
 672 700 726 726 779 728 c 256
 780 728 781 728 782 728 c 0
 826 728 857 694 877 666 c 0
 898 636 918 590 918 545 c 256
 918 501 894 463 872 436 c 0
 838 393 787 352 728 337 c 0
 719 335 710 334 703 334 c 0
 679 334 661 343 641 354 c 0
 586 382 550 443 550 529 c 0
719 638 m 0
 716 639 713 639 711 639 c 0
 686 639 666 619 656 602 c 0
 650 592 647 580 647 568 c 0
 647 538 663 506 673 488 c 0
 690 460 720 434 754 424 c 0
 757 424 759 423 762 423 c 0
 787 423 808 447 818 464 c 0
 825 474 828 487 828 499 c 0
 828 533 809 569 796 587 c 256
 780 609 752 635 719 638 c 0
737 294 m 0
 779 294 809 272 809 233 c 0
 809 210 798 187 787 175 c 0
 775 162 757 150 732 150 c 0
 731 150 729 150 728 150 c 0
 690 153 663 179 663 219 c 0
 663 263 692 294 737 294 c 0
EndSplineSet
Validated: 1
EndChar

StartChar: uni0454
Encoding: 1108 1108 73
Width: 452
GlyphClass: 2
Flags: HW
HStem: -148 54<164.983 261.837> 132 76<230.5 316> 334 52<161.781 273.609>
VStem: 0 99<113.727 232.06>
AnchorPoint: "Right" 399 450 basechar 0
AnchorPoint: "Left" 36 449.5 basechar 0
AnchorPoint: "HalfMark" 236 499.5 basechar 0
AnchorPoint: "Diacritic" 258 506.5 basechar 0
AnchorPoint: "Yerok" 348 428.2 basechar 0
LayerCount: 2
Fore
SplineSet
99 142 m 0
 99 140 99 138 99 136 c 0
 99 126 100 112 110 112 c 0
 119 112 132 116 150 126 c 0
 185 146 229 174 266 192 c 0
 285 202 300 208 311 208 c 0
 321 208 324 198 328 192 c 0
 336 176 360 150 373 134 c 0
 383 120 392 110 400 100 c 2
 412 86 l 1
 412 78 406 74 399 74 c 0
 380 74 363 80 344 80 c 0
 329 80 316 76 301 76 c 0
 291 76 281 96 276 104 c 0
 268 116 257 132 239 132 c 0
 222 132 196 120 181 112 c 0
 157 102 124 92 124 62 c 0
 124 48 131 26 146 -0 c 0
 161 -26 182 -56 209 -86 c 0
 214 -92 222 -94 231 -94 c 0
 262 -94 283 -72 302 -58 c 0
 308 -54 314 -52 320 -52 c 0
 330 -52 335 -56 335 -66 c 0
 335 -74 329 -82 318 -90 c 0
 295 -110 261 -128 232 -140 c 0
 216 -146 205 -148 198 -148 c 0
 132 -148 85 -100 56 -54 c 0
 25 -6 0 66 0 142 c 0
 0 218 42 278 86 316 c 0
 127 352 190 386 260 386 c 0
 284 386 317 372 337 364 c 0
 357 354 389 334 389 310 c 0
 389 298 377 296 366 296 c 0
 356 296 342 298 334 298 c 0
 320 298 306 294 292 294 c 0
 288 294 285 294 284 296 c 0
 273 320 254 334 221 334 c 0
 125 334 99 254 99 156 c 0
 99 150 99 146 99 142 c 0
EndSplineSet
EndChar

StartChar: uni00BB
Encoding: 187 187 74
Width: 510
Flags: W
HStem: -0 21G<96.5 141.5 276.5 321.5>
LayerCount: 2
Fore
SplineSet
384 189 m 1
 347 231 310 280 258 359 c 1
 260 369 271 376 282 378 c 1
 361 292 411 244 466 195 c 1
 466 183 l 1
 411 134 361 85 282 -0 c 1
 271 -0 260 9 258 19 c 1
 310 98 347 146 384 189 c 1
204 189 m 1
 167 231 130 280 78 359 c 1
 80 369 91 376 102 378 c 1
 181 292 231 244 286 195 c 1
 286 183 l 1
 231 134 181 85 102 -0 c 1
 91 -0 80 9 78 19 c 1
 130 98 167 146 204 189 c 1
EndSplineSet
Validated: 19457
EndChar

StartChar: uni0458
Encoding: 1112 1112 75
Width: 252
GlyphClass: 2
Flags: W
HStem: -258 60<-18.6 52.6924> -244 78<-143.759 -45> 370 20G<148 207> 510 104<115.753 201.87>
VStem: 67 106<-183.281 264.411> 106 107<518.438 601.841>
AnchorPoint: "HalfMark" 169 499.5 basechar 0
AnchorPoint: "Diacritic" 170 699.5 basechar 0
AnchorPoint: "Yerok" 174 700.2 basechar 0
LayerCount: 2
Fore
SplineSet
8 -198 m 0xb8
 38 -198 67 -174 67 -132 c 0
 67 -128 66 -126 66 -122 c 0
 64 -68 63 -20 63 26 c 0
 63 84 65 136 68 182 c 0
 73 252 76 290 77 296 c 0
 86 358 101 388 122 388 c 2
 123 388 l 1
 148 388 l 1
 191 390 l 1
 202 390 l 1
 212 388 217 384 216 374 c 1
 189 280 184 164 178 32 c 1
 176 -54 174 -106 173 -120 c 0
 172 -150 165 -178 153 -202 c 1
 132 -240 101 -258 58 -258 c 1
 51 -258 46 -258 43 -258 c 2xb8
 -45 -248 l 1
 -89 -244 l 2
 -93 -244 -96 -244 -100 -244 c 0
 -125 -244 -139 -250 -144 -262 c 0
 -153 -286 -160 -300 -165 -304 c 2
 -197 -332 l 1
 -223 -308 l 1
 -208 -214 -170 -166 -110 -166 c 0x78
 -96 -166 -85 -168 -76 -172 c 0
 -60 -178 -40 -186 -17 -194 c 0
 -6 -196 2 -198 8 -198 c 0xb8
106 566 m 0x34
 112 598 129 614 157 614 c 0
 159 614 160 614 161 614 c 0
 187 612 213 590 213 562 c 0
 213 560 212 558 212 554 c 0
 207 524 190 510 161 510 c 0
 159 510 157 510 155 510 c 0
 128 510 106 532 106 560 c 0
 106 562 106 564 106 566 c 0x34
EndSplineSet
Validated: 19457
EndChar

StartChar: uni0405
Encoding: 1029 1029 76
Width: 797
GlyphClass: 2
Flags: W
HStem: -142 120<473.742 552.63> -115 125<269.548 504.156> 544 42<631.954 754.887> 565 82<272.84 482.063>
VStem: 0 160<309.152 429.073> 567 162<18.1708 201.099>
AnchorPoint: "HalfMark" 394 752.5 basechar 0
AnchorPoint: "Yerok" 652.5 698.4 basechar 0
AnchorPoint: "Diacritic" 396 787 basechar 0
LayerCount: 2
Fore
SplineSet
45 -239 m 0x4c
 35 -239 31 -219 31 -210 c 0
 31 -184 49 -157 64 -141 c 0
 104 -96 165 -47 228 -25 c 256
 281 -6 341 10 407 10 c 0x4c
 457 10 491 -6 522 -18 c 0
 529 -21 535 -22 538 -22 c 0
 545 -22 547 -18 550 -8 c 0
 558 12 566 55 566 85 c 1
 566 96 567 107 567 118 c 0
 567 150 563 183 551 202 c 1
 552 199 552 200 548 204 c 0
 531 228 501 251 458 251 c 0
 423 251 393 239 368 230 c 0
 308 210 247 173 178 173 c 0
 168 173 158 171 149 171 c 0
 86 171 47 204 22 249 c 0
 10 272 0 312 0 349 c 0
 0 367 3 384 8 399 c 0
 33 463 79 518 127 558 c 0
 184 605 261 630 352 643 c 1
 374 643 395 647 415 647 c 256x9c
 474 647 522 633 568 620 c 0
 603 610 643 607 678 597 c 0
 699 591 718 586 733 586 c 0
 747 586 756 578 756 570 c 0
 756 554 731 547 711 544 c 0x2c
 680 539 639 530 613 518 c 0
 595 510 576 500 559 492 c 0
 553 489 544 485 537 485 c 0
 533 485 531 486 529 488 c 0
 526 491 522 497 517 505 c 0
 497 544 456 565 395 565 c 0
 390 565 383 564 377 564 c 0
 273 564 209 520 175 441 c 0
 165 417 160 394 160 373 c 0
 160 342 171 316 194 297 c 1
 217 280 246 273 277 273 c 0
 304 273 332 278 359 287 c 0
 408 303 469 327 533 327 c 0
 537 327 541 327 545 327 c 0
 586 327 621 315 648 301 c 0
 700 276 728 228 728 155 c 0
 728 148 729 141 729 134 c 0
 729 82 713 31 698 -6 c 0
 684 -40 678 -48 653 -73 c 0
 630 -95 600 -119 569 -134 c 0
 558 -139 548 -142 538 -142 c 0x9c
 535 -142 532 -142 529 -141 c 0
 473 -126 395 -115 326 -115 c 0
 322 -115 318 -115 314 -115 c 0
 261 -115 219 -126 182 -141 c 0
 137 -158 118 -174 85 -197 c 0
 72 -205 63 -217 58 -230 c 1
 55 -235 50 -239 45 -239 c 0x4c
EndSplineSet
Validated: 19457
Position2: "'ss10' Equal Baseline Kerning Lookup-1" dx=0 dy=150 dh=0 dv=0
EndChar

StartChar: uni0455
Encoding: 1109 1109 77
Width: 481
GlyphClass: 2
Flags: HW
HStem: -8 21G<28 40.5> -0 77<195.414 341.403> 19 72<105.655 311.646> 134 64<59.5 149.021> 206 74<274.199 313.806> 299 96<194.312 251.112>
VStem: 0 106<202.716 297.414> 342 99<77.7617 175.84>
AnchorPoint: "Right" 417 450 basechar 0
AnchorPoint: "Left" 36 449.5 basechar 0
AnchorPoint: "HalfMark" 228 499.5 basechar 0
AnchorPoint: "Numeral" 202 193.1 basechar 0
AnchorPoint: "Diacritic" 228 511 basechar 0
AnchorPoint: "Yerok" 380 346.7 basechar 0
LayerCount: 2
Fore
SplineSet
34 -8 m 0xbf
 22 -8 21 3 21 14 c 0
 21 20 26 27 35 35 c 0
 67 62 131 78 182 88 c 0
 194 90 206 91 218 91 c 0xbf
 246 91 271 85 298 79 c 0
 303 78 309 77 314 77 c 0
 331 77 342 85 342 105 c 0
 342 127 335 143 329 160 c 1
 316 188 297 206 259 206 c 0
 257 206 254 206 252 206 c 0
 233 204 210 194 181 174 c 0
 152 155 128 143 107 138 c 0
 96 136 86 134 77 134 c 0
 42 134 16 151 9 181 c 256
 5 196 0 210 0 228 c 0
 0 255 8 273 20 295 c 0
 47 347 120 367 181 382 c 256
 198 386 224 389 244 390 c 0
 254 391 268 395 280 395 c 0
 294 395 306 391 309 382 c 0
 309 380 310 379 310 378 c 0
 310 367 295 359 289 356 c 0
 270 346 251 318 236 305 c 0
 230 301 226 299 221 299 c 0
 213 299 207 305 201 313 c 0
 193 325 178 332 163 332 c 0
 156 332 149 330 142 327 c 0
 117 314 109 289 106 256 c 0
 106 254 106 251 106 249 c 0
 106 219 120 198 147 198 c 0
 154 198 162 200 171 203 c 0
 199 214 232 236 260 251 c 0
 284 263 315 280 347 280 c 0
 397 280 419 244 432 198 c 0
 438 178 441 159 441 141 c 0
 441 111 433 85 419 58 c 0
 408 36 372 17 349 7 c 0
 336 2 324 -0 312 -0 c 0x5f
 259 -0 223 19 169 19 c 0
 132 19 96 12 72 2 c 0
 67 -0 47 -8 34 -8 c 0xbf
EndSplineSet
Position2: "Numeral Kerning-1" dx=250 dy=0 dh=0 dv=0
EndChar

StartChar: uni0457
Encoding: 1111 1111 78
Width: 224
GlyphClass: 2
Flags: HW
HStem: 0 21G<63 86> 366 20G<134.5 149> 512 105<142.377 219.576> 519 104<-2.30029 82.676>
VStem: -14 107<530.004 611.863> 5 114<3.6189 306.49> 131 107<522.474 605.946>
AnchorPoint: "Right" 115 730 basechar 0
AnchorPoint: "Left" 114 729.5 basechar 0
AnchorPoint: "HalfMark" 108 499.5 basechar 0
AnchorPoint: "Diacritic" 114 727 basechar 0
AnchorPoint: "Yerok" 114 690.7 basechar 0
LayerCount: 2
Fore
SplineSet
188 512 m 0xe2
 158 512 131 531 131 561 c 0
 131 590 153 617 182 617 c 0
 210 617 238 596 238 566 c 0
 238 549 231 532 220 522 c 0
 211 515 199 512 188 512 c 0xe2
43 519 m 0xda
 14 519 -14 539 -14 568 c 0
 -14 596 9 623 37 623 c 0
 66 623 93 602 93 571 c 0
 93 542 74 519 43 519 c 0xda
142 386 m 0
 156 386 167 377 167 364 c 0
 167 348 149 333 143 322 c 0
 137 313 134 293 130 277 c 1
 120 223 117 157 117 92 c 0
 117 85 117 79 117 73 c 0
 117 53 117 32 119 18 c 1
 119 1 96 0 76 0 c 0
 72 0 l 0
 54 0 36 2 24 4 c 1
 9 8 5 11 5 25 c 0xc6
 5 29 6 34 6 40 c 0
 8 84 17 135 19 179 c 256
 21 223 25 278 28 321 c 0
 31 354 33 370 61 375 c 0
 73 377 90 375 101 378 c 0
 109 380 127 386 142 386 c 0
EndSplineSet
LCarets2: 1 0
Ligature2: "'ccmp' Canonical Equivalents-1" uni0456 uni0308
EndChar

StartChar: uni0410
Encoding: 1040 1040 79
Width: 579
GlyphClass: 2
Flags: W
HStem: -162 22G<35.5 39 338.5 347 510.5 518>
VStem: 1 161<-136 -67.384> 312 120<387.096 590.304>
AnchorPoint: "HalfMark" 385 752.5 basechar 0
AnchorPoint: "Diacritic" 387 793.7 basechar 0
AnchorPoint: "Yerok" 388.5 733.7 basechar 0
LayerCount: 2
Fore
SplineSet
312 502 m 0
 312 516 308 547 308 557 c 0
 308 582 280 597 268 612 c 0
 265 616 263 620 263 624 c 0
 263 631 270 636 277 640 c 0
 281 642 289 643 301 643 c 0
 304 643 307 643 311 643 c 0
 329 642 348 642 368 641 c 0
 386 641 386 641 399 641 c 0
 421 641 435 644 456 644 c 256
 470 644 475 637 475 629 c 0
 475 623 473 616 468 610 c 0
 458 597 433 575 432 553 c 1
 432 521 438 479 443 440 c 0
 456 316 463 181 477 57 c 0
 483 12 489 -36 492 -74 c 256
 494 -101 515 -113 530 -126 c 0
 535 -130 539 -138 539 -145 c 0
 539 -156 522 -161 514 -161 c 0
 507 -161 500 -159 488 -157 c 0
 467 -153 432 -150 402 -150 c 0
 386 -150 351 -153 343 -153 c 0
 334 -153 328 -136 335 -128 c 1
 349 -108 369 -94 369 -60 c 0
 369 -54 369 -48 369 -40 c 0
 366 6 361 68 361 113 c 0
 361 115 361 117 361 119 c 0
 361 133 358 145 347 145 c 0
 343 145 338 144 333 141 c 256
 321 135 307 123 290 107 c 1
 247 62 199 -4 171 -65 c 0
 167 -75 162 -87 162 -98 c 0
 162 -105 163 -110 167 -115 c 1
 171 -118 180 -129 180 -138 c 0
 180 -145 171 -151 163 -151 c 0
 144 -151 130 -153 111 -153 c 0
 88 -153 65 -157 45 -161 c 0
 43 -162 40 -162 38 -162 c 0
 33 -162 28 -161 23 -161 c 0
 13 -161 3 -159 1 -151 c 1
 0 -150 0 -149 0 -147 c 0
 0 -144 1 -141 1 -136 c 0
 1 -134 1 -131 1 -128 c 0
 1 -123 4 -112 10 -95 c 0
 65 54 153 175 237 295 c 1
 263 334 291 371 303 421 c 1
 308 447 312 475 312 502 c 0
194 85 m 0
 194 78 200 71 206 71 c 0
 212 71 216 77 223 83 c 1
 235 98 250 117 263 132 c 0
 278 151 291 158 309 174 c 0
 317 182 328 192 336 197 c 1
 343 203 347 212 348 223 c 0
 348 231 348 240 348 249 c 0
 348 254 348 261 348 267 c 0
 348 286 347 307 333 307 c 0
 321 307 321 304 311 294 c 1
 267 242 226 182 201 112 c 0
 197 102 195 95 195 91 c 0
 195 89 194 87 194 85 c 0
EndSplineSet
Validated: 19457
Position2: "'ss10' Equal Baseline Kerning Lookup-1" dx=0 dy=150 dh=0 dv=0
EndChar

StartChar: uni0411
Encoding: 1041 1041 80
Width: 552
GlyphClass: 2
Flags: W
HStem: -154 40<0.141411 36.7321> -146 32<195.154 315.484> 588 36<198.609 232.221> 636 20G<476 500>
VStem: 39 148<-95.9101 193.831> 56 138<42.2147 212.997 252.714 572.937> 319 176<-140.5 -47.5>
AnchorPoint: "HalfMark" 281 752.5 basechar 0
AnchorPoint: "Diacritic" 280 801 basechar 0
AnchorPoint: "Yerok" 415.5 723 basechar 0
LayerCount: 2
Fore
SplineSet
255 588 m 0xb6
 220 588 194 583 194 551 c 2
 194 426 l 2
 194 382 196 334 196 295 c 1
 201 262 211 253 240 236 c 0
 274 217 323 193 360 179 c 0
 381 172 379 163 387 146 c 0
 388 144 390 138 392 127 c 0
 404 73 419 8 432 -46 c 0
 439 -74 444 -82 457 -99 c 1
 468 -111 471 -113 486 -122 c 0
 492 -125 495 -132 495 -138 c 0
 495 -143 492 -148 485 -148 c 0
 484 -148 484 -148 483 -148 c 0
 434 -148 367 -146 314 -146 c 0
 279 -146 279 -146 260 -146 c 0x76
 185 -146 102 -154 26 -154 c 0
 7 -154 3 -153 0 -142 c 0
 -1 -139 0 -137 0 -135 c 0
 0 -119 17 -120 30 -114 c 0
 38 -110 39 -104 39 -90 c 2
 39 -69 l 1xba
 43 58 49 197 51 327 c 0
 52 405 56 484 56 556 c 0
 56 570 53 569 45 572 c 256
 42 573 37 574 32 573 c 0
 31 573 30 573 29 573 c 0
 17 573 7 581 7 593 c 0
 7 610 13 614 21 620 c 0
 24 623 29 624 35 624 c 0
 159 624 297 630 407 645 c 0
 436 649 464 654 488 656 c 0
 490 656 492 656 493 656 c 0
 507 656 513 650 513 638 c 0
 513 626 511 624 500 614 c 0
 482 597 456 578 438 560 c 1
 420 538 398 505 387 477 c 0
 385 471 381 469 377 469 c 0
 351 469 349 501 342 523 c 0
 337 539 329 563 319 573 c 256
 309 583 280 588 255 588 c 0xb6
190 196 m 0
 190 150 187 87 187 40 c 256x7a
 187 28 194 -96 194 -96 c 2
 193 -93 193 -94 194 -99 c 1
 199 -111 218 -114 238 -114 c 0
 254 -114 272 -112 283 -112 c 0
 307 -111 319 -105 319 -81 c 0
 317 -14 304 59 290 114 c 0
 281 146 280 157 258 176 c 0
 247 185 233 196 220 204 c 1
 214 209 206 213 201 213 c 0
 194 213 190 209 190 196 c 0
EndSplineSet
Validated: 19457
Position2: "'ss10' Equal Baseline Kerning Lookup-1" dx=0 dy=150 dh=0 dv=0
EndChar

StartChar: uni0412
Encoding: 1042 1042 81
Width: 580
GlyphClass: 2
Flags: W
HStem: -162 21G<31.5 53.5> -123 30<208.797 268.75> 599 32<157 290>
VStem: 73 150<254.252 365.904> 73 127<-49.1082 222 383 532.219> 335 87<447 554> 401 139<-58.0584 98.9329>
DStem2: 346 206 277 158 0.903023 -0.429593<-141.67 96.0633>
AnchorPoint: "HalfMark" 280 752.5 basechar 0
AnchorPoint: "Diacritic" 278 804.7 basechar 0
AnchorPoint: "Yerok" 413.5 734.7 basechar 0
LayerCount: 2
Fore
SplineSet
45 -162 m 0xf2
 18 -162 0 -147 0 -116 c 0
 0 -113 -1 -109 0 -106 c 0
 5 -96 7 -85 18 -76 c 0
 31 -66 47 -55 58 -42 c 0
 64 -36 67 -30 67 -23 c 1
 68 -20 68 -5 68 22 c 0
 70 175 73 354 73 506 c 0
 73 516 64 523 57 528 c 0
 50 533 50 533 43 538 c 0
 25 551 15 564 15 591 c 0
 15 593 15 596 15 599 c 0
 17 618 27 632 45 639 c 1
 54 644 62 641 74 640 c 0
 100 636 126 631 157 631 c 0
 165 631 174 632 184 632 c 1
 262 640 342 656 418 666 c 0
 429 667 443 669 457 669 c 0
 479 669 500 665 502 650 c 0
 503 641 508 637 500 628 c 0
 486 613 464 598 453 578 c 256
 439 552 429 506 424 472 c 0
 421 457 422 454 422 447 c 0xec
 422 436 409 430 398 428 c 0
 392 427 392 427 374 424 c 0
 349 420 317 414 294 408 c 0
 269 401 264 397 252 378 c 0
 238 356 226 325 223 294 c 1
 223 293 223 293 223 292 c 0
 223 265 245 253 262 244 c 0
 284 232 317 219 346 206 c 0
 384 188 433 166 468 146 c 256
 515 119 540 79 540 10 c 0
 540 4 540 -1 540 -7 c 0
 540 -54 515 -93 490 -118 c 0
 477 -131 464 -136 447 -144 c 0
 432 -152 414 -153 389 -153 c 256
 310 -153 227 -123 150 -123 c 1
 124 -125 107 -138 91 -150 c 0
 79 -158 62 -162 45 -162 c 0xf2
335 554 m 0
 335 581 316 599 290 599 c 0
 252 599 223 582 208 558 c 0
 203 550 201 542 201 533 c 0
 200 517 200 500 200 482 c 0
 200 449 200 416 200 383 c 257
 200 383 200 383 216 396 c 0
 240 414 269 439 292 460 c 1
 315 479 315 481 324 506 c 0
 330 520 335 537 335 554 c 0
199 -59 m 1
 203 -93 247 -93 286 -93 c 0
 323 -93 357 -91 373 -69 c 0
 389 -46 401 -8 401 28 c 0xe2
 401 66 389 102 363 118 c 256
 337 134 303 145 277 158 c 1
 246 176 217 196 195 222 c 1
 195 173 195 129 196 89 c 1
 196 40 199 -13 199 -59 c 1
EndSplineSet
Validated: 19457
Position2: "'ss10' Equal Baseline Kerning Lookup-1" dx=0 dy=150 dh=0 dv=0
EndChar

StartChar: uni0413
Encoding: 1043 1043 82
Width: 530
GlyphClass: 2
Flags: W
HStem: -162 21G<44.5 71.5> -153 39<26.622 64.4154> 467 21G<365.5 371.5> 572 69<4.06055 85.9934> 586 56<218.695 325.991> 640 20G<405.5 455.5>
VStem: 69 154<-112.835 262.782> 73 143<-37.4082 558.157> 86 133<205.5 571.826> 326 55<476.425 521.054>
AnchorPoint: "HalfMark" 281 752.5 basechar 0
AnchorPoint: "Diacritic" 280 801.7 basechar 0
AnchorPoint: "Yerok" 415.5 723.7 basechar 0
LayerCount: 2
Fore
SplineSet
32 572 m 0x70c0
 9 572 0 587 0 608 c 256
 0 622 21 637 34 639 c 0
 45 641 63 641 82 641 c 2
 130 641 l 2x70c0
 163 641 212 642 239 642 c 256x28c0
 299 642 378 652 433 660 c 0
 434 660 436 660 437 660 c 0
 440 660 443 660 446 660 c 0x24c0
 465 660 481 652 489 642 c 0
 494 637 496 632 496 627 c 0
 496 613 478 603 466 595 c 0
 426 568 401 523 381 476 c 256
 378 469 374 467 369 467 c 0
 362 467 353 473 347 477 c 0
 327 490 326 539 326 570 c 0
 326 583 314 586 301 586 c 0
 293 586 285 585 278 585 c 0
 255 582 230 589 221 571 c 0
 218 565 218 560 219 555 c 0
 220 553 220 543 219 525 c 0x28c0
 217 468 215 400 215 335 c 0
 215 312 216 290 216 268 c 0x2940
 221 157 223 25 223 -85 c 0
 223 -114 264 -111 264 -138 c 0
 264 -155 249 -158 232 -158 c 0
 199 -158 178 -155 146 -153 c 1x6a40
 114 -155 87 -162 56 -162 c 2
 50 -162 l 2xa240
 39 -162 26 -152 26 -139 c 0
 26 -123 37 -120 48 -114 c 0
 67 -102 68 -88 69 -53 c 0x6240
 72 22 73 113 73 190 c 2
 73 222 l 2x6140
 73 287 77 364 78 431 c 0
 79 457 81 485 81 505 c 1
 82 524 86 541 86 559 c 0
 86 570 77 572 64 572 c 0
 54 572 42 572 32 572 c 0x70c0
EndSplineSet
Validated: 19457
Position2: "'ss10' Equal Baseline Kerning Lookup-1" dx=0 dy=150 dh=0 dv=0
EndChar

StartChar: uni0414
Encoding: 1044 1044 83
Width: 698
GlyphClass: 2
Flags: W
HStem: -154 53<174.625 193.837 257.004 378.5> 638 20G<279.5 298.5>
VStem: 79 70<-342.557 -244.825> 186 187<502.051 624.683> 482 64<-325.352 -271>
DStem2: 201 -68 258 -84 0.302002 0.953307<-3.06196 207.931>
AnchorPoint: "HalfMark" 281 752.5 basechar 0
AnchorPoint: "Diacritic" 278 805.7 basechar 0
AnchorPoint: "Yerok" 413.5 727.7 basechar 0
LayerCount: 2
Fore
SplineSet
149 -315 m 0
 149 -338 137 -350 116 -350 c 0
 96 -350 86 -317 79 -300 c 0
 66 -268 57 -240 42 -211 c 1
 28 -187 12 -158 -2 -137 c 0
 -3 -136 -2 -134 -2 -133 c 0
 -2 -130 -2 -127 -2 -124 c 0
 -2 -110 7 -98 20 -96 c 1
 61 -96 119 -101 160 -101 c 2
 161 -101 l 2
 177 -101 196 -79 201 -68 c 0
 204 -60 208 -45 212 -22 c 0
 225 43 259 143 284 194 c 0
 285 196 285 199 285 202 c 0
 285 211 282 221 280 230 c 0
 278 239 276 250 273 261 c 0
 269 278 269 278 265 295 c 0
 258 322 251 352 242 386 c 1
 223 447 206 505 189 564 c 0
 187 572 186 579 186 585 c 0
 186 607 199 619 217 633 c 0
 234 645 264 658 295 658 c 0
 302 658 310 658 317 656 c 0
 351 648 369 638 373 605 c 1
 373 585 379 558 382 530 c 0
 407 333 439 97 486 -66 c 0
 488 -75 494 -83 503 -89 c 0
 505 -90 512 -91 525 -89 c 1
 558 -87 601 -79 633 -79 c 1
 647 -80 661 -86 661 -100 c 0
 661 -117 656 -115 646 -128 c 0
 622 -160 594 -191 576 -230 c 0
 566 -251 554 -276 546 -297 c 0
 538 -317 535 -327 515 -327 c 0
 513 -327 510 -326 506 -326 c 0
 486 -322 482 -311 482 -290 c 0
 482 -285 482 -278 482 -271 c 0
 484 -256 485 -241 486 -224 c 0
 486 -222 486 -221 486 -219 c 0
 486 -196 481 -142 465 -142 c 0
 463 -142 462 -142 461 -143 c 1
 421 -151 341 -154 281 -154 c 2
 223 -154 l 2
 185 -154 176 -160 168 -200 c 0
 162 -226 156 -260 152 -287 c 0
 150 -301 149 -310 149 -315 c 0
258 -84 m 0
 257 -86 257 -88 257 -89 c 0
 257 -95 262 -96 272 -96 c 0
 274 -96 277 -96 280 -95 c 1
 308 -95 345 -92 371 -92 c 0
 377 -92 379 -90 379 -86 c 0
 379 -81 375 -73 374 -66 c 1
 371 -57 368 -46 365 -35 c 2
 353 9 l 1
 341 59 l 2
 337 75 332 102 328 115 c 0
 327 120 324 122 321 122 c 0
 317 122 314 119 312 115 c 0
 312 114 311 111 308 104 c 0
 293 59 272 -2 264 -54 c 1
 260 -73 259 -83 258 -84 c 0
EndSplineSet
Validated: 19457
Position2: "'ss10' Equal Baseline Kerning Lookup-1" dx=0 dy=150 dh=0 dv=0
EndChar

StartChar: uni0415
Encoding: 1045 1045 84
Width: 507
GlyphClass: 2
Flags: W
HStem: -154 48<216.384 289.48> 249 42<186.104 303.732> 385 21G<323.5 378.5> 592 54<182.547 264.41>
VStem: -4 143<195.138 448.819> 299 131<388.375 466.975> 314 146<150.115 223.273>
AnchorPoint: "HalfMark" 230 752.5 basechar 0
AnchorPoint: "Diacritic" 232 801 basechar 0
AnchorPoint: "Yerok" 367.5 727 basechar 0
LayerCount: 2
Fore
SplineSet
314 189 m 0xfa
 314 226 297 249 260 249 c 0
 218 249 187 236 168 217 c 0
 159 208 148 194 148 182 c 1
 155 107 167 29 188 -28 c 0
 197 -55 208 -75 220 -89 c 0
 229 -101 241 -106 252 -106 c 0
 263 -106 274 -101 283 -92 c 0
 299 -76 316 -49 316 -21 c 256
 316 -10 310 -8 310 0 c 0
 310 14 315 19 332 23 c 0
 360 29 391 32 425 32 c 1
 435 29 440 22 440 13 c 0
 440 5 436 -4 430 -10 c 0
 423 -16 417 -23 412 -32 c 1
 399 -75 366 -111 327 -134 c 0
 306 -146 279 -154 251 -154 c 0
 233 -154 215 -150 198 -142 c 0
 123 -109 75 -30 43 47 c 0
 14 116 -4 195 -4 287 c 0
 -4 411 27 509 88 578 c 0
 115 607 150 628 193 640 c 0
 209 644 223 646 237 646 c 0
 299 646 342 607 368 563 c 0
 387 531 402 493 413 449 c 1
 419 441 430 426 430 412 c 0
 430 385 396 385 361 385 c 0
 350 385 341 385 334 385 c 0
 313 387 299 392 299 408 c 0xfc
 299 417 301 428 302 445 c 1
 302 497 285 551 258 578 c 0
 248 588 237 592 226 592 c 0
 205 592 184 578 174 559 c 1
 146 512 139 439 139 362 c 0
 139 330 141 298 142 267 c 0
 142 258 149 248 158 254 c 0
 180 270 207 281 247 289 c 0
 255 291 263 291 271 291 c 0
 296 291 321 285 342 278 c 0
 401 260 460 232 460 157 c 0
 460 147 456 145 448 145 c 0
 442 145 434 146 424 146 c 1
 422 147 420 147 418 147 c 0
 395 147 375 143 352 142 c 0
 342 141 332 139 323 139 c 0
 314 139 306 144 306 153 c 0
 306 156 307 160 309 164 c 0
 312 170 314 179 314 189 c 0xfa
EndSplineSet
Validated: 19457
Position2: "'ss10' Equal Baseline Kerning Lookup-1" dx=0 dy=150 dh=0 dv=0
EndChar

StartChar: uni0416
Encoding: 1046 1046 85
Width: 697
GlyphClass: 2
Flags: W
HStem: -160 25G<38 50 125 140.5 291 301.5 524.5 547.5 625.5 635.5> 606 44<602.194 641.686> 637 20G<61.5 76.5>
VStem: 19 140<-154.674 -40.6183> 261 120<486 601> 268 134<-152.863 -4.75072> 272 115<-152.863 167> 506 153<-152.521 -47.5043>
AnchorPoint: "HalfMark" 321 752.5 basechar 0
AnchorPoint: "Diacritic" 322 794.7 basechar 0
AnchorPoint: "Yerok" 571.5 732.7 basechar 0
LayerCount: 2
Fore
SplineSet
261 619 m 2xb9
 261 636 286 638 309 638 c 0
 314 638 319 638 323 638 c 0
 338 638 354 638 369 638 c 0
 378 638 389 632 389 627 c 1
 391 622 389 616 388 611 c 256
 387 606 387 606 386 601 c 2
 381 471 l 1xb9
 410 515 438 553 471 591 c 0
 485 607 496 617 505 621 c 1
 526 639 549 650 583 650 c 0
 600 650 617 646 628 640 c 0
 635 637 642 632 642 626 c 0
 642 618 639 606 630 606 c 1
 618 597 607 589 596 579 c 0
 586 569 582 556 574 542 c 0
 570 534 565 523 562 516 c 1
 562 512 552 507 547 505 c 1
 541 506 536 510 530 511 c 0
 519 514 512 537 498 537 c 0
 497 537 497 537 496 537 c 0
 481 537 474 529 465 520 c 0
 428 486 386 437 386 367 c 0
 386 350 386 350 386 332 c 0
 386 318 386 303 387 287 c 1
 423 240 444 202 483 155 c 0
 514 117 553 70 586 33 c 0
 602 14 613 2 618 -5 c 0
 637 -26 651 -63 657 -96 c 0
 658 -100 659 -104 659 -110 c 0
 659 -121 657 -134 657 -145 c 0
 657 -152 654 -155 647 -155 c 1
 643 -156 638 -156 633 -156 c 0
 618 -156 599 -153 586 -153 c 256
 572 -153 555 -156 540 -156 c 0
 509 -156 506 -126 506 -94 c 0
 506 -88 506 -81 506 -74 c 0
 506 -64 506 -55 505 -46 c 1
 505 7 477 46 454 78 c 0
 432 108 412 135 390 167 c 1
 389 132 389 100 388 70 c 0
 388 46 387 20 387 -4 c 0xd3
 387 -20 388 -37 388 -51 c 1
 390 -76 397 -101 401 -123 c 0
 402 -130 403 -135 402 -139 c 1
 402 -146 397 -153 390 -153 c 2
 359 -153 l 2
 342 -153 326 -153 312 -157 c 0
 308 -158 304 -160 299 -160 c 0
 283 -160 270 -154 268 -140 c 1xd5
 268 -108 271 -76 272 -43 c 1
 272 184 l 1xd3
 235 137 204 90 178 32 c 1
 167 5 160 -20 159 -44 c 0
 158 -68 158 -86 158 -98 c 0
 158 -110 159 -120 159 -129 c 0
 159 -146 150 -160 131 -160 c 0
 119 -160 98 -155 85 -155 c 0
 75 -155 57 -160 43 -160 c 0
 33 -160 25 -157 24 -149 c 0
 21 -136 19 -134 19 -118 c 0
 19 -77 36 -48 52 -21 c 1
 70 12 100 44 126 76 c 0
 177 139 226 195 260 271 c 1
 258 398 l 1
 244 426 l 2
 225 464 196 504 166 526 c 0
 151 537 140 543 132 543 c 2
 131 543 l 2
 121 543 114 535 111 529 c 2
 104 509 l 2
 101 500 95 490 83 496 c 1
 70 513 65 542 53 560 c 0
 48 567 40 575 29 582 c 1
 15 593 0 602 0 619 c 0
 0 631 28 651 37 653 c 0
 48 655 57 657 66 657 c 0
 87 657 104 651 132 637 c 0
 153 626 170 601 186 583 c 0
 213 552 235 522 261 486 c 1
 261 619 l 2xb9
EndSplineSet
Validated: 19457
Position2: "'ss10' Equal Baseline Kerning Lookup-1" dx=0 dy=150 dh=0 dv=0
EndChar

StartChar: uni0417
Encoding: 1047 1047 86
Width: 903
GlyphClass: 2
Flags: W
HStem: -228 86<541.142 655.689> -149 81<257.831 390.187> 386 21G<345 365.5> 576 82<450.755 620.289>
VStem: 0 211<-268 -195> 196 210<390.287 485.502> 728 135<324.896 481.013>
AnchorPoint: "HalfMark" 554 752.5 basechar 0
AnchorPoint: "Diacritic" 556 799.7 basechar 0
AnchorPoint: "Yerok" 778.5 739.7 basechar 0
LayerCount: 2
Fore
SplineSet
387 180 m 0xba
 387 220 414 248 433 270 c 1
 458 295 495 332 541 332 c 0
 553 332 565 330 578 324 c 0
 614 309 644 289 675 267 c 1
 705 295 728 326 728 384 c 0
 728 439 713 484 682 513 c 0
 658 535 628 550 599 567 c 0
 586 574 568 576 549 576 c 0
 513 576 474 566 453 556 c 0
 417 538 406 498 406 448 c 0
 406 438 409 431 409 423 c 0
 409 405 395 387 378 387 c 0
 372 387 367 387 364 386 c 1
 355 386 l 2
 335 386 318 390 300 390 c 0
 277 390 257 382 230 382 c 0
 202 382 196 395 196 424 c 0
 196 448 207 470 218 487 c 0
 252 540 300 576 358 607 c 0
 411 635 479 658 561 658 c 0
 642 658 713 638 766 608 c 1
 811 581 843 528 857 473 c 0
 861 457 863 444 863 433 c 256
 863 383 854 332 828 306 c 256
 812 290 780 270 758 257 c 0
 742 248 725 238 707 228 c 1
 744 187 772 144 799 91 c 0
 812 64 821 36 826 6 c 1
 822 -33 821 -49 801 -90 c 0
 785 -122 743 -152 712 -173 c 1
 670 -199 628 -228 574 -228 c 0xb6
 557 -228 538 -225 518 -218 c 0
 465 -200 399 -171 343 -155 c 0
 325 -150 311 -149 298 -149 c 0
 284 -149 270 -151 254 -155 c 0
 237 -160 211 -183 211 -207 c 0
 211 -228 230 -239 240 -249 c 1
 243 -254 245 -258 245 -261 c 0
 245 -281 191 -278 164 -279 c 0
 150 -280 134 -283 124 -283 c 1
 101 -287 75 -286 48 -290 c 1
 34 -290 l 2
 31 -290 27 -290 24 -289 c 1
 16 -289 0 -274 0 -262 c 0
 0 -251 16 -246 27 -244 c 1
 47 -236 l 1
 72 -223 79 -210 100 -189 c 1
 120 -171 146 -150 168 -134 c 0
 191 -118 190 -120 214 -109 c 1
 253 -88 314 -68 374 -68 c 0x7a
 397 -68 419 -71 440 -77 c 0
 483 -91 525 -112 560 -130 c 0
 576 -138 588 -142 597 -142 c 0
 644 -140 672 -115 688 -84 c 1
 697 -75 700 -61 700 -45 c 0
 700 -20 692 9 686 25 c 0
 677 53 668 59 650 81 c 0
 634 101 613 125 594 141 c 0
 585 148 579 151 575 150 c 1
 547 127 515 101 463 99 c 1
 416 99 387 135 387 180 c 0xba
EndSplineSet
Validated: 19457
Position2: "'ss10' Equal Baseline Kerning Lookup-1" dx=0 dy=150 dh=0 dv=0
EndChar

StartChar: uni0418
Encoding: 1048 1048 87
Width: 607
GlyphClass: 2
Flags: W
HStem: -157 25G<15.5 26.5 371 392.5> 628 20G<62 79 536.5 547.5>
VStem: 89 131<348.188 584.656> 388 137<-107.799 275.168 389.443 597.376> 388 132<1.19971 345.991 388.653 597>
DStem2: 61 257 206 360 0.0924873 0.995714<104.115 303.295>
AnchorPoint: "HalfMark" 310 752.5 basechar 0
AnchorPoint: "Diacritic" 310 797.7 basechar 0
AnchorPoint: "Yerok" 467.5 719.7 basechar 0
LayerCount: 2
Fore
SplineSet
458 -146 m 0xe8
 424 -148 407 -153 378 -153 c 0
 364 -153 354 -149 354 -135 c 0
 354 -120 363 -114 370 -105 c 0
 385 -86 388 -71 388 -41 c 0
 388 -33 388 -23 388 -11 c 0
 387 67 384 170 384 247 c 0
 384 260 384 260 384 279 c 0
 384 293 384 307 385 322 c 0
 386 334 382 346 372 346 c 0
 369 346 366 345 363 343 c 0
 345 330 317 320 297 309 c 0
 255 287 210 271 195 219 c 1
 191 134 182 42 180 -46 c 0
 179 -49 179 -51 179 -54 c 0
 179 -78 183 -98 192 -109 c 1
 200 -117 209 -124 209 -134 c 0
 209 -142 204 -150 197 -150 c 256
 178 -150 150 -147 123 -147 c 0
 117 -147 110 -148 104 -148 c 0
 83 -149 65 -151 50 -154 c 0
 41 -156 31 -157 22 -157 c 0
 9 -157 0 -153 0 -140 c 0
 0 -125 10 -117 16 -107 c 1
 38 -79 37 -25 42 25 c 0
 48 87 54 160 59 221 c 0
 60 239 61 250 61 257 c 0
 70 345 82 443 89 531 c 1
 89 546 89 555 89 559 c 0
 87 588 59 604 50 625 c 0
 49 628 49 631 49 634 c 0
 49 643 56 648 68 648 c 0
 90 648 105 642 126 639 c 1
 135 639 145 637 156 636 c 0
 179 635 198 634 212 634 c 0
 220 634 232 635 243 635 c 0
 257 635 268 633 268 623 c 0
 268 603 246 591 236 579 c 0
 229 571 220 561 220 549 c 0
 220 530 217 504 215 480 c 0
 212 443 209 398 206 360 c 0
 205 356 205 352 205 348 c 0
 205 331 211 316 227 316 c 0
 229 316 231 317 234 317 c 0
 255 322 276 334 294 344 c 1
 333 363 374 376 383 426 c 0
 387 445 388 476 388 501 c 2
 388 564 l 2
 388 597 346 597 346 630 c 0
 346 637 350 643 361 643 c 0
 362 643 364 643 365 643 c 0
 372 643 380 642 387 642 c 0
 430 642 472 648 512 649 c 0
 520 650 532 652 541 652 c 0
 554 652 566 642 566 629 c 0
 566 619 558 615 552 607 c 1
 541 597 525 582 525 562 c 0xf0
 525 531 522 489 520 448 c 0
 518 399 517 347 517 296 c 0
 517 185 522 72 530 -27 c 1
 532 -70 532 -98 555 -116 c 0
 560 -120 565 -124 565 -132 c 0
 565 -141 560 -150 553 -150 c 0
 528 -150 500 -146 472 -146 c 0
 467 -146 463 -146 458 -146 c 0xe8
EndSplineSet
Validated: 19457
Position2: "'ss10' Equal Baseline Kerning Lookup-1" dx=0 dy=150 dh=0 dv=0
EndChar

StartChar: uni0419
Encoding: 1049 1049 88
Width: 607
GlyphClass: 2
Flags: W
HStem: -157 25G<15.5 26.5 371 392.5> 628 20G<62 79 536.5 547.5> 752 82<254 356.997>
VStem: 89 131<348.188 584.656> 205 92<789.5 864.932> 388 137<-107.799 275.168 389.443 597.376> 388 132<1.19971 345.991 388.653 597>
DStem2: 61 257 206 360 0.0905357 0.995893<103.85 303.104>
AnchorPoint: "HalfMark" 322 752.5 basechar 0
AnchorPoint: "Diacritic" 376 1018 basechar 0
AnchorPoint: "Yerok" 451.5 720 basechar 0
LayerCount: 2
Fore
SplineSet
297 855 m 0xe8
 297 840 318 834 329 834 c 0
 356 834 381 862 394 879 c 0
 402 889 409 899 416 909 c 1
 423 921 433 941 446 941 c 0
 461 941 468 927 468 917 c 0
 468 878 399 808 384 795 c 1
 357 768 319 752 273 752 c 0
 235 752 205 770 205 809 c 0
 205 856 260 904 288 925 c 0
 295 931 308 940 318 940 c 0
 327 940 333 933 333 923 c 1
 331 916 325 910 320 902 c 0
 314 894 297 872 297 855 c 0xe8
458 -146 m 0
 424 -148 407 -153 378 -153 c 0
 364 -153 354 -149 354 -135 c 0
 354 -120 363 -114 370 -105 c 0
 385 -86 388 -71 388 -41 c 0
 388 -33 388 -23 388 -11 c 0
 387 67 384 170 384 247 c 0
 384 260 384 260 384 279 c 0
 384 293 384 307 385 322 c 0
 386 334 382 346 372 346 c 0
 369 346 366 345 363 343 c 0
 345 330 317 320 297 309 c 0xec
 255 287 210 271 195 219 c 1
 191 134 182 42 180 -46 c 0
 179 -49 179 -51 179 -54 c 0
 179 -78 183 -98 192 -109 c 1
 200 -117 209 -124 209 -134 c 0
 209 -142 204 -150 197 -150 c 256
 178 -150 150 -147 123 -147 c 0
 117 -147 110 -148 104 -148 c 0
 83 -149 65 -151 50 -154 c 0
 41 -156 31 -157 22 -157 c 0
 9 -157 0 -153 0 -140 c 0
 0 -125 10 -117 16 -107 c 1
 38 -79 37 -25 42 25 c 0
 48 87 54 160 59 221 c 0
 60 239 61 250 61 257 c 0
 70 345 81 443 88 531 c 1
 88 546 89 555 89 559 c 0
 87 588 59 604 50 625 c 0
 49 628 49 631 49 634 c 0
 49 643 56 648 68 648 c 0
 90 648 105 642 126 639 c 1
 135 639 145 637 156 636 c 0
 179 635 198 634 212 634 c 0
 220 634 232 635 243 635 c 0
 257 635 268 633 268 623 c 0
 268 603 246 591 236 579 c 0
 229 571 220 561 220 549 c 0xf0
 220 530 217 504 215 480 c 0
 212 443 209 398 206 360 c 0
 205 356 205 352 205 348 c 0
 205 331 211 316 227 316 c 0
 229 316 231 317 234 317 c 0
 255 322 276 334 294 344 c 1
 333 363 374 376 383 426 c 0
 387 445 388 476 388 501 c 2
 388 564 l 2
 388 597 346 597 346 630 c 0
 346 637 350 643 361 643 c 0
 362 643 364 643 365 643 c 0
 372 643 380 642 387 642 c 0
 430 642 472 648 512 649 c 0
 520 650 532 652 541 652 c 0
 554 652 566 642 566 629 c 0
 566 619 558 615 552 607 c 1
 541 597 525 582 525 562 c 0xec
 525 531 522 489 520 448 c 0xe2
 518 399 517 347 517 296 c 0
 517 185 522 72 530 -27 c 1
 532 -70 532 -98 555 -116 c 0
 560 -120 565 -124 565 -132 c 0
 565 -141 560 -150 553 -150 c 0
 528 -150 500 -146 472 -146 c 0
 467 -146 463 -146 458 -146 c 0
EndSplineSet
Validated: 19457
Position2: "'ss10' Equal Baseline Kerning Lookup-1" dx=0 dy=150 dh=0 dv=0
LCarets2: 1 0
Ligature2: "'ccmp' Canonical Equivalents-1" uni0418 uni0306
EndChar

StartChar: uni041A
Encoding: 1050 1050 89
Width: 534
GlyphClass: 2
Flags: W
HStem: -153 21G<9 25.5 131.5 172> 627 20G<202 223 455.5 469.5>
VStem: 34 130<-124.263 227.267> 48 132<288.001 588.387> 344 133<584.935 644.822> 344 114<-121.269 52.1603>
AnchorPoint: "HalfMark" 281 752.5 basechar 0
AnchorPoint: "Diacritic" 220 797.7 basechar 0
AnchorPoint: "Yerok" 417.5 719.7 basechar 0
LayerCount: 2
Fore
SplineSet
192 -140 m 0xe4
 192 -149 180 -153 164 -153 c 0
 152 -153 152 -153 138 -153 c 0
 125 -153 106 -152 94 -152 c 256
 69 -152 38 -157 13 -157 c 0
 5 -157 -1 -152 -1 -146 c 0
 -1 -143 0 -141 2 -138 c 256
 9 -128 27 -107 29 -90 c 1
 33 -68 32 -32 34 -2 c 1xe4
 36 62 40 139 44 201 c 0
 46 237 47 221 48 259 c 0
 49 345 51 446 51 531 c 0
 51 557 51 557 51 561 c 0
 50 580 35 602 21 608 c 0
 14 612 11 617 11 623 c 0
 11 645 43 641 66 643 c 0
 69 643 72 643 76 643 c 0
 90 643 108 642 119 642 c 0
 150 642 187 647 217 647 c 0
 218 647 218 647 219 647 c 0
 227 647 231 641 231 634 c 0
 231 628 229 622 225 618 c 0
 218 610 218 610 208 598 c 0
 188 575 188 530 186 485 c 0
 183 431 180 367 180 314 c 0
 180 295 180 295 180 293 c 0
 181 290 183 288 184 288 c 0
 191 288 193 294 202 305 c 0
 233 341 270 389 293 435 c 0
 309 468 321 497 330 525 c 0
 339 554 344 567 344 585 c 0
 344 593 343 603 342 613 c 1
 340 619 337 629 337 638 c 0
 337 652 356 653 369 653 c 0
 372 653 375 653 378 653 c 0
 390 652 398 652 403 653 c 1
 422 653 446 656 465 656 c 0
 474 656 477 651 477 643 c 0xd8
 477 631 468 612 464 603 c 0
 440 551 406 492 374 444 c 256
 340 393 288 342 246 302 c 0
 235 292 229 286 228 285 c 0
 224 280 223 276 224 272 c 0
 224 271 229 269 240 265 c 0
 311 241 380 203 410 135 c 0
 437 73 450 -6 458 -85 c 1
 459 -107 463 -110 474 -118 c 0
 480 -123 495 -125 495 -136 c 0
 495 -148 478 -149 463 -149 c 0
 458 -149 454 -149 450 -149 c 0
 439 -149 420 -148 410 -148 c 256
 406 -148 401 -148 394 -149 c 1
 385 -149 385 -149 376 -149 c 1
 369 -150 363 -150 358 -150 c 0
 349 -150 349 -150 345 -150 c 0
 336 -150 325 -146 325 -137 c 0
 325 -122 341 -122 343 -109 c 1
 344 -107 344 -104 344 -101 c 0
 344 -93 342 -81 342 -74 c 0
 342 -60 343 -45 343 -31 c 0
 343 22 333 71 314 112 c 0
 294 155 273 185 252 201 c 0
 231 217 210 226 190 228 c 0
 183 229 176 219 177 212 c 1
 177 169 171 116 170 68 c 1
 168 26 165 -19 164 -57 c 0
 164 -62 164 -65 164 -69 c 0
 164 -92 167 -98 178 -113 c 0
 184 -122 192 -132 192 -140 c 0xe4
EndSplineSet
Validated: 19457
Position2: "'ss10' Equal Baseline Kerning Lookup-1" dx=0 dy=150 dh=0 dv=0
EndChar

StartChar: uni041B
Encoding: 1051 1051 90
Width: 520
GlyphClass: 2
Flags: W
HStem: -156 13G<15 35 314.5 346.5> 630 20G<226 254.5>
VStem: 0 148<-143.952 -59.9745> 301 180<-146.66 -64.9505>
DStem2: 27 -48 261 246 0.447214 0.894427<124.467 411.756>
AnchorPoint: "HalfMark" 313 752.5 basechar 0
AnchorPoint: "Diacritic" 318 799 basechar 0
AnchorPoint: "Yerok" 313.5 725 basechar 0
LayerCount: 2
Fore
SplineSet
148 -94 m 2
 148 -108 l 2
 148 -120 151 -133 154 -139 c 0
 155 -141 155 -143 155 -144 c 0
 155 -158 125 -160 100 -160 c 0
 91 -160 83 -160 77 -160 c 0
 61 -160 43 -162 27 -164 c 0
 26 -164 25 -164 24 -164 c 0
 6 -164 0 -152 0 -136 c 0
 0 -107 21 -62 27 -48 c 0
 72 58 129 155 193 260 c 0
 226 315 245 363 258 421 c 0
 262 436 263 458 263 478 c 0
 263 519 259 556 252 589 c 0
 248 611 237 614 225 624 c 0
 220 629 217 634 217 638 c 0
 217 644 222 649 230 650 c 0
 233 650 233 650 244 650 c 0
 265 650 291 648 312 648 c 0
 336 648 369 646 394 646 c 0
 407 646 407 646 412 646 c 0
 421 645 424 641 424 635 c 0
 424 630 422 624 417 619 c 0
 409 610 398 599 398 584 c 0
 398 583 398 581 398 580 c 0
 398 558 401 530 403 502 c 0
 414 327 435 165 452 -4 c 0
 456 -35 459 -69 463 -92 c 0
 467 -115 474 -111 480 -130 c 0
 480 -132 481 -133 481 -134 c 0
 481 -142 473 -146 464 -147 c 1
 446 -147 429 -149 412 -149 c 0
 403 -149 396 -149 390 -150 c 0
 389 -150 359 -156 334 -156 c 0
 331 -156 328 -156 325 -156 c 256
 304 -155 301 -152 301 -136 c 0
 301 -126 308 -119 311 -108 c 0
 312 -104 313 -97 313 -89 c 0
 315 -61 316 -31 316 0 c 0
 316 92 310 182 301 261 c 0
 299 273 298 282 288 282 c 0
 282 282 278 278 273 270 c 0
 270 264 270 264 261 246 c 0
 221 165 182 71 159 -26 c 0
 154 -48 148 -71 148 -94 c 2
EndSplineSet
Validated: 19457
Position2: "'ss10' Equal Baseline Kerning Lookup-1" dx=0 dy=150 dh=0 dv=0
EndChar

StartChar: uni041C
Encoding: 1052 1052 91
Width: 876
GlyphClass: 2
Flags: W
HStem: -157 15G<6.5 20.5 385 425 694 709.5 825 832> 644 10G<146 158.5 650.5 666>
VStem: 147 141<411.4 620.851> 515 151<546.391 649.827>
DStem2: 321 237 259 239 0.296986 -0.954882<-65.7234 217.332>
AnchorPoint: "HalfMark" 424 752.5 basechar 0
AnchorPoint: "Diacritic" 424 802 basechar 0
AnchorPoint: "Yerok" 595.5 742 basechar 0
LayerCount: 2
Fore
SplineSet
515 638 m 0
 515 654 529 655 544 655 c 0
 548 655 552 655 556 655 c 0
 568 655 584 656 594 656 c 256
 616 656 639 664 662 664 c 1
 670 663 674 659 674 651 c 0
 674 626 666 600 666 571 c 0
 666 567 667 562 667 558 c 0
 670 521 681 470 688 426 c 1
 720 252 764 98 809 -60 c 0
 818 -92 829 -121 835 -145 c 0
 837 -149 838 -153 838 -156 c 0
 838 -160 835 -163 829 -163 c 0
 821 -163 810 -161 802 -160 c 0
 792 -159 792 -161 782 -160 c 0
 776 -159 771 -157 767 -157 c 256
 745 -157 720 -161 699 -161 c 0
 689 -161 682 -151 680 -143 c 0
 666 -101 653 -38 642 9 c 0
 631 57 629 68 618 115 c 0
 611 149 611 149 604 183 c 1
 598 205 594 225 590 243 c 0
 587 261 585 272 585 276 c 0
 585 283 583 286 579 286 c 0
 577 286 575 285 572 283 c 1
 526 133 491 19 444 -121 c 0
 438 -141 439 -151 425 -153 c 0
 417 -154 408 -153 400 -153 c 0
 370 -153 373 -143 362 -109 c 0
 330 -2 289 131 259 239 c 0
 253 259 250 271 249 273 c 0
 248 280 245 283 242 283 c 0
 231 283 232 272 228 250 c 1
 226 233 222 213 218 191 c 0
 212 157 212 157 206 123 c 0
 190 37 173 -48 156 -134 c 0
 154 -145 152 -155 140 -153 c 1
 73 -153 l 2
 56 -153 29 -157 12 -157 c 256
 1 -157 0 -152 0 -146 c 0
 0 -141 0 -136 0 -130 c 0
 0 -129 2 -121 5 -106 c 0
 43 60 87 225 122 395 c 0
 132 444 147 488 147 535 c 2
 147 540 l 2
 147 564 147 593 139 608 c 0
 136 615 132 625 132 634 c 0
 132 647 139 654 153 654 c 1
 164 653 174 653 183 653 c 2
 225 653 l 2
 249 653 279 660 303 660 c 1
 313 661 315 653 315 644 c 1
 308 607 292 565 292 520 c 1
 289 502 288 483 288 463 c 0
 288 386 306 299 321 237 c 1
 337 176 354 115 373 65 c 0
 380 46 385 34 388 30 c 0
 393 22 403 17 413 17 c 0
 433 17 433 31 442 54 c 0
 472 140 507 243 534 333 c 0
 544 367 549 405 549 443 c 0
 549 500 536 552 524 599 c 0
 522 608 515 625 515 638 c 0
EndSplineSet
Validated: 19457
Position2: "'ss10' Equal Baseline Kerning Lookup-1" dx=0 dy=150 dh=0 dv=0
EndChar

StartChar: uni041D
Encoding: 1053 1053 92
Width: 601
GlyphClass: 2
Flags: W
HStem: -158 21G<5.5 36.5 174.5 186.5 533.5 540> 635 20G<490.5 509>
VStem: 28 142<-118.679 251.845> 41 134<-65.2683 337.993> 59 135<374.428 580.618> 350 130<343.241 595.25> 360 128<314.985 562.837> 364 134<14.5212 276.754>
DStem2: 241 351 203 334 0.908469 -0.417953<-39.8613 115.285> 496 286 366 216 0.0827033 -0.996574<-5.07103 379.67>
AnchorPoint: "HalfMark" 281 752.5 basechar 0
AnchorPoint: "Diacritic" 280 797 basechar 0
AnchorPoint: "Yerok" 415.5 719 basechar 0
LayerCount: 2
Fore
SplineSet
77 -154 m 0xe0
 59 -154 45 -158 28 -158 c 0
 19 -158 12 -158 9 -158 c 256
 2 -158 -3 -150 -3 -142 c 0
 -3 -139 -2 -136 0 -133 c 0
 11 -122 23 -98 26 -81 c 0
 27 -79 27 -70 28 -54 c 0xe0
 32 37 41 141 41 235 c 256xd0
 41 324 52 427 58 516 c 1
 58 531 59 541 59 544 c 0
 59 563 34 583 25 594 c 0
 22 598 21 601 21 605 c 0
 21 614 29 622 36 625 c 0
 43 628 58 628 69 628 c 0
 87 629 110 630 129 630 c 0
 158 630 179 633 202 638 c 0
 207 639 213 640 219 640 c 0
 233 640 238 633 238 625 c 0
 238 619 236 612 231 606 c 256
 221 594 207 584 198 570 c 0
 196 566 194 560 194 555 c 256
 194 521 189 467 185 425 c 0
 185 423 185 420 185 418 c 0
 185 401 191 383 199 374 c 0
 208 365 228 357 241 351 c 0
 251 346 262 342 274 337 c 0
 295 327 313 319 335 314 c 0
 338 314 340 314 342 314 c 0
 356 314 360 325 360 340 c 0xca
 360 409 350 487 350 554 c 0
 350 571 334 587 326 598 c 1
 320 603 311 611 311 620 c 0
 311 622 312 624 313 626 c 0
 319 637 323 640 340 640 c 1
 347 641 356 641 366 641 c 0
 382 641 405 642 420 642 c 1
 443 645 479 653 502 655 c 1
 516 655 521 646 521 637 c 0
 521 631 519 624 514 618 c 0
 503 606 481 587 480 565 c 1xc4
 480 519 485 464 488 414 c 0xc2
 490 372 493 326 496 286 c 0
 497 270 498 258 498 251 c 256
 498 200 507 142 512 90 c 0
 518 37 523 -19 528 -68 c 0
 530 -93 543 -109 554 -124 c 0
 557 -128 560 -136 560 -143 c 0
 560 -148 559 -152 556 -154 c 0
 549 -157 543 -158 537 -158 c 0
 530 -158 523 -157 512 -155 c 0
 490 -151 455 -148 425 -148 c 0
 409 -148 374 -151 366 -151 c 0
 359 -151 354 -143 354 -135 c 0
 354 -132 355 -129 357 -126 c 0
 368 -115 379 -91 383 -74 c 0
 384 -72 384 -63 382 -47 c 1
 377 36 373 134 366 216 c 0
 365 232 364 241 364 244 c 0
 364 246 364 248 364 250 c 0
 364 275 341 277 318 284 c 1
 297 289 243 311 226 320 c 1
 217 326 209 331 203 334 c 0
 198 337 194 338 191 338 c 0
 181 338 177 329 178 316 c 1
 177 298 174 277 174 258 c 0
 174 252 174 246 175 241 c 1
 175 231 175 231 175 206 c 0xd1
 175 127 172 36 170 -43 c 0
 170 -46 170 -48 170 -50 c 0
 170 -91 178 -103 198 -126 c 0
 201 -130 203 -138 203 -145 c 0
 203 -150 202 -156 198 -158 c 0
 193 -161 189 -161 184 -161 c 0
 182 -161 180 -161 177 -161 c 0
 172 -161 165 -159 154 -158 c 0
 135 -155 105 -154 77 -154 c 0xe0
EndSplineSet
Validated: 19457
Position2: "'ss10' Equal Baseline Kerning Lookup-1" dx=0 dy=150 dh=0 dv=0
EndChar

StartChar: uni041E
Encoding: 1054 1054 93
Width: 527
GlyphClass: 2
Flags: W
HStem: -165 56<213.883 298.879> 598 58<198.282 290.336>
VStem: 0 133<76.5625 384.521> 356 131<84.2296 406.986>
AnchorPoint: "HalfMark" 226 752.5 basechar 0
AnchorPoint: "Diacritic" 225 800 basechar 0
AnchorPoint: "Yerok" 252.5 719 basechar 0
LayerCount: 2
Fore
SplineSet
466 407 m 0
 480 359 487 303 487 247 c 0
 487 187 479 127 463 77 c 0
 436 -11 391 -87 328 -132 c 0
 299 -153 270 -165 241 -165 c 0
 217 -165 193 -158 166 -141 c 0
 102 -100 56 -27 28 57 c 1
 10 107 0 166 0 227 c 0
 0 258 3 290 8 321 c 0
 26 429 66 521 124 587 c 0
 153 619 191 653 240 656 c 0
 243 656 245 656 248 656 c 0
 275 656 301 647 328 629 c 0
 395 583 440 500 466 407 c 0
356 253 m 0
 356 259 356 265 356 271 c 0
 356 357 350 427 332 493 c 0
 321 531 306 566 280 586 c 0
 270 594 258 598 245 598 c 0
 229 598 212 591 200 579 c 0
 163 544 149 475 141 410 c 0
 136 369 133 324 133 275 c 0
 133 260 134 245 134 230 c 0
 138 139 146 66 167 -5 c 0
 178 -41 194 -75 218 -96 c 0
 229 -105 241 -109 254 -109 c 0
 269 -109 284 -103 295 -92 c 0
 331 -56 343 9 351 74 c 0
 355 110 357 150 357 193 c 0
 357 213 357 232 356 253 c 0
EndSplineSet
Validated: 19457
Position2: "'ss10' Equal Baseline Kerning Lookup-1" dx=0 dy=150 dh=0 dv=0
EndChar

StartChar: uni041F
Encoding: 1055 1055 94
Width: 642
GlyphClass: 2
Flags: W
HStem: -157 21G<30.5 43 388.5 408> 599 49<223.34 398.625> 640 20G<557.5 572>
VStem: 75 149<-104.061 207.055> 84 139<143.5 576> 400 132<279.465 594.854> 407 130<-80.9761 444.908> 421 131<-105.274 237.366>
AnchorPoint: "HalfMark" 308 752.5 basechar 0
AnchorPoint: "Diacritic" 308 801.7 basechar 0
AnchorPoint: "Yerok" 477.5 733.7 basechar 0
LayerCount: 2
Fore
SplineSet
532 448 m 0xac
 532 382 537 318 537 258 c 0xa2
 537 236 540 201 542 171 c 1
 544 104 549 25 552 -40 c 1
 555 -82 554 -98 584 -111 c 0
 591 -114 600 -121 600 -129 c 0
 600 -131 599 -133 598 -135 c 0
 591 -147 586 -147 568 -148 c 0
 546 -150 516 -153 494 -153 c 256
 462 -153 423 -157 393 -157 c 0
 384 -157 379 -142 384 -132 c 0
 387 -126 397 -122 403 -118 c 0
 418 -108 421 -99 421 -77 c 0
 421 -72 421 -66 421 -60 c 0xa1
 418 27 411 128 408 215 c 0
 407 233 407 242 407 245 c 256
 407 249 407 249 407 275 c 0xa2
 407 370 400 482 400 577 c 0
 400 598 388 599 361 599 c 0
 326 599 280 593 248 593 c 0
 236 593 225 586 223 576 c 1xcc
 223 472 217 347 217 241 c 0
 217 235 217 235 217 211 c 0
 217 127 221 32 224 -47 c 0
 226 -83 226 -92 248 -106 c 0
 258 -113 275 -118 275 -134 c 0
 275 -135 274 -137 274 -139 c 0
 273 -146 269 -149 262 -150 c 1
 237 -150 205 -153 178 -153 c 1
 153 -154 148 -155 123 -157 c 0
 105 -159 105 -159 87 -161 c 0
 71 -162 50 -163 36 -163 c 1
 25 -162 21 -154 21 -145 c 0
 21 -137 25 -129 32 -125 c 1
 37 -120 47 -116 54 -110 c 0
 72 -94 75 -87 75 -50 c 0
 75 -11 76 35 76 78 c 0
 76 121 75 167 75 206 c 0xd0
 75 222 75 232 74 235 c 1
 74 240 74 240 74 263 c 0
 74 321 78 390 80 449 c 0
 81 476 84 508 84 529 c 0
 84 531 84 533 84 534 c 0
 84 553 71 573 59 578 c 256
 37 589 0 583 0 616 c 0
 0 618 0 620 0 623 c 256
 1 633 14 643 22 647 c 0
 23 648 30 648 43 649 c 1
 150 649 l 2
 189 649 231 648 266 648 c 0
 289 648 289 648 298 648 c 256xc8
 361 648 436 655 500 657 c 0
 524 658 548 660 567 660 c 1
 577 659 586 648 586 636 c 0
 586 631 584 626 580 622 c 0
 568 612 552 608 542 595 c 0
 539 592 537 581 536 564 c 0
 533 529 532 489 532 448 c 0xac
EndSplineSet
Validated: 19457
Position2: "'ss10' Equal Baseline Kerning Lookup-1" dx=0 dy=150 dh=0 dv=0
EndChar

StartChar: uni0420
Encoding: 1056 1056 95
Width: 567
GlyphClass: 2
Flags: W
HStem: -153 21G<15.5 44> 368 54<214.734 367.863> 576 71<232.748 366.804>
VStem: 34 125<-90.7813 316.44 353.002 491.85> 396 130<429.706 544.756>
AnchorPoint: "HalfMark" 306 752.5 basechar 0
AnchorPoint: "Diacritic" 306 801.7 basechar 0
AnchorPoint: "Yerok" 441.5 727.7 basechar 0
LayerCount: 2
Fore
SplineSet
286 368 m 0
 219 368 165 325 162 261 c 1
 162 197 159 122 159 55 c 0
 159 40 159 25 159 10 c 0
 159 -17 160 -42 168 -61 c 1
 174 -79 182 -95 191 -109 c 0
 195 -116 199 -124 199 -131 c 0
 199 -139 194 -145 179 -145 c 256
 132 -145 67 -153 21 -153 c 0
 10 -153 0 -147 0 -138 c 0
 0 -136 -1 -134 0 -132 c 0
 11 -111 20 -94 29 -59 c 0
 33 -41 34 -15 34 12 c 0
 34 28 34 44 34 59 c 0
 34 158 29 266 29 360 c 0
 29 441 49 488 82 541 c 0
 114 592 176 626 242 641 c 256
 261 645 285 647 310 647 c 0
 338 647 367 645 390 641 c 0
 421 636 429 629 454 617 c 0
 497 598 524 555 526 491 c 0
 526 486 526 482 526 477 c 0
 526 422 508 386 471 367 c 0
 449 357 430 346 401 346 c 0
 356 346 328 368 286 368 c 0
279 422 m 0
 303 422 327 411 350 411 c 0
 363 411 375 416 382 429 c 0
 389 444 396 463 396 484 c 0
 396 491 395 499 393 506 c 0
 385 538 364 570 328 574 c 0
 318 575 309 576 301 576 c 0
 257 576 228 558 203 528 c 0
 175 495 160 443 160 385 c 0
 160 377 160 370 161 362 c 0
 161 361 160 360 160 359 c 0
 160 356 162 353 164 353 c 0
 165 353 167 354 168 355 c 0
 177 362 185 374 194 383 c 0
 214 403 241 422 279 422 c 0
EndSplineSet
Validated: 19457
Position2: "'ss10' Equal Baseline Kerning Lookup-1" dx=0 dy=150 dh=0 dv=0
EndChar

StartChar: uni0421
Encoding: 1057 1057 96
Width: 610
GlyphClass: 2
Flags: W
HStem: -153 71<242.893 337.31> 577 72<204.667 327.024>
VStem: 0 141<131.345 447.919> 404 113<365.349 455.25>
AnchorPoint: "HalfMark" 272 752.5 basechar 0
AnchorPoint: "Diacritic" 272 801.7 basechar 0
AnchorPoint: "Yerok" 459.5 713.7 basechar 0
LayerCount: 2
Fore
SplineSet
468 326 m 2
 448 326 430 324 411 324 c 0
 404 324 397 323 392 323 c 0
 387 323 383 324 382 329 c 0
 379 342 383 349 391 355 c 0
 400 361 404 368 404 383 c 0
 404 386 404 389 404 393 c 0
 397 461 371 519 330 553 c 0
 315 566 295 577 268 577 c 0
 261 577 254 579 246 577 c 256
 172 560 149 477 142 386 c 0
 142 374 141 362 141 347 c 0
 141 261 157 149 172 89 c 0
 190 21 210 -37 253 -69 c 1
 266 -77 279 -82 292 -82 c 0
 306 -82 320 -77 331 -67 c 0
 371 -31 391 35 407 94 c 0
 411 111 409 115 399 120 c 0
 389 125 375 118 369 128 c 0
 365 134 364 138 364 142 c 0
 364 159 395 160 417 163 c 0
 447 166 483 169 516 169 c 0
 522 169 528 169 534 169 c 0
 552 168 569 169 569 152 c 0
 569 134 556 133 544 125 c 0
 536 120 533 116 533 112 c 0
 533 111 531 103 526 91 c 1
 515 55 495 17 476 -17 c 0
 451 -61 417 -100 376 -127 c 0
 353 -143 325 -153 295 -153 c 0
 276 -153 257 -149 238 -141 c 0
 156 -108 97 -30 56 48 c 0
 21 116 0 188 0 286 c 0
 0 294 0 302 0 311 c 0
 7 491 79 620 241 646 c 0
 253 648 264 649 274 649 c 0
 339 649 385 616 418 580 c 0
 465 530 496 467 517 391 c 1
 517 377 531 368 544 363 c 0
 557 359 564 352 564 342 c 0
 564 327 553 326 535 326 c 2
 468 326 l 2
EndSplineSet
Validated: 19457
Position2: "'ss10' Equal Baseline Kerning Lookup-1" dx=0 dy=150 dh=0 dv=0
EndChar

StartChar: uni0422
Encoding: 1058 1058 97
Width: 703
GlyphClass: 2
Flags: W
HStem: -155 21G<264 421.5> 611 39<163.669 275.549 410.289 500.65>
VStem: -3 142<492 618> 279 119<-98.4315 604.717>
AnchorPoint: "HalfMark" 342 752.5 basechar 0
AnchorPoint: "Diacritic" 340 800 basechar 0
AnchorPoint: "Yerok" 575.5 738 basechar 0
LayerCount: 2
Fore
SplineSet
-3 618 m 0
 -3 636 5 650 24 650 c 2
 142 650 l 1
 193 648 238 646 290 646 c 0
 373 646 449 653 530 655 c 1
 548 654 565 654 580 654 c 0
 600 654 600 654 618 654 c 0
 627 654 634 655 641 655 c 0
 655 655 664 652 664 637 c 0
 664 617 645 596 634 581 c 0
 626 570 617 558 607 545 c 1
 596 523 583 505 568 487 c 1
 559 478 557 474 546 474 c 0
 529 474 527 489 524 509 c 0
 517 550 512 610 466 610 c 0
 455 610 455 610 444 610 c 0
 432 610 416 609 410 605 c 1
 404 599 399 591 399 579 c 0
 399 568 399 556 399 545 c 0
 399 501 398 448 398 399 c 2
 398 229 l 258
 398 181 403 120 404 67 c 0
 405 20 407 -30 410 -71 c 0
 412 -99 413 -103 420 -115 c 1
 426 -123 436 -125 435 -140 c 0
 435 -147 426 -155 417 -155 c 2
 268 -155 l 2
 260 -155 250 -146 254 -135 c 0
 258 -126 259 -123 268 -115 c 0
 273 -110 277 -104 278 -99 c 1
 278 -78 279 -47 279 -17 c 2
 279 185 l 2
 279 202 279 211 278 214 c 1
 278 384 l 2
 278 444 281 512 281 565 c 1
 281 567 281 569 281 571 c 0
 281 601 267 608 234 610 c 0
 224 611 216 611 209 611 c 0
 150 611 139 551 139 492 c 0
 139 479 135 474 125 474 c 0
 123 474 120 477 115 482 c 0
 105 494 92 509 82 522 c 0
 71 538 68 541 53 553 c 0
 39 564 24 578 11 589 c 0
 3 597 -3 607 -3 618 c 0
EndSplineSet
Validated: 19457
Position2: "'ss10' Equal Baseline Kerning Lookup-1" dx=0 dy=150 dh=0 dv=0
EndChar

StartChar: uni0423
Encoding: 1059 1059 98
Width: 720
GlyphClass: 2
Flags: W
HStem: 534 128<537.602 614.653>
DStem2: 263 589 128 524 0.195178 -0.980768<-24.7156 428.324>
AnchorPoint: "HalfMark" 350 752.5 basechar 0
AnchorPoint: "Diacritic" 350 798.1 basechar 0
AnchorPoint: "Yerok" 583.5 768.1 basechar 0
LayerCount: 2
Fore
SplineSet
253 -517 m 0
 242 -517 227 -507 227 -490 c 0
 227 -488 228 -486 228 -484 c 1
 228 -471 240 -467 250 -461 c 0
 269 -449 285 -435 298 -414 c 1
 325 -364 346 -281 360 -166 c 1
 373 -50 380 18 380 42 c 0
 380 55 368 61 343 61 c 2
 282 61 l 2
 237 61 213 82 208 124 c 1
 196 204 149 450 128 524 c 1
 115 565 99 585 81 585 c 0
 78 585 75 585 72 584 c 1
 68 586 62 586 57 586 c 0
 55 586 52 586 50 586 c 0
 40 586 32 587 30 598 c 1
 33 623 84 610 101 620 c 1
 170 633 l 1
 217 633 248 618 263 589 c 1
 343 187 l 1
 347 178 356 173 371 173 c 0
 372 173 372 173 373 173 c 0
 384 173 392 179 398 190 c 1
 405 259 415 368 430 519 c 1
 439 585 458 625 488 640 c 1
 515 655 535 662 549 662 c 0
 594 662 639 653 685 634 c 1
 685 612 l 1
 665 596 643 533 636 500 c 1
 622 500 l 1
 611 523 596 534 577 534 c 0
 559 534 544 524 532 504 c 0
 521 487 510 427 498 325 c 0
 473 118 445 -69 416 -234 c 0
 401 -316 374 -402 335 -457 c 1
 321 -474 304 -492 280 -508 c 0
 271 -514 262 -517 253 -517 c 0
EndSplineSet
Validated: 19457
Position2: "'ss10' Equal Baseline Kerning Lookup-1" dx=0 dy=150 dh=0 dv=0
EndChar

StartChar: uni0424
Encoding: 1060 1060 99
Width: 830
GlyphClass: 2
Flags: W
VStem: 3 158<71.7799 243.54> 328 125<-12.6563 356.315 421.899 571.835> 337 105<-296.832 -71.9355 -12.6563 168.886 173.824 371.924> 641 148<103.275 252.397>
AnchorPoint: "HalfMark" 395 752.5 basechar 0
AnchorPoint: "Diacritic" 394 814.7 basechar 0
AnchorPoint: "Yerok" 709.5 486.7 basechar 0
LayerCount: 2
Fore
SplineSet
381 -335 m 0xb0
 360 -335 337 -342 319 -342 c 0
 318 -342 316 -342 315 -342 c 0
 305 -340 301 -338 303 -328 c 0
 303 -326 304 -323 307 -319 c 0
 330 -281 337 -219 337 -157 c 2
 337 -151 l 2xb0
 337 -97 336 -75 289 -59 c 0
 274 -54 253 -49 225 -43 c 0
 144 -26 65 7 27 68 c 0
 11 92 3 132 3 168 c 0
 3 205 14 233 33 260 c 0
 86 337 166 380 270 404 c 0
 293 409 307 418 313 425 c 0
 325 438 328 446 328 463 c 0
 328 474 327 488 325 510 c 0
 323 533 312 559 303 579 c 0
 295 598 284 621 276 638 c 0
 272 646 271 652 271 657 c 0
 271 669 281 673 301 673 c 0
 325 673 357 670 381 670 c 0
 394 670 413 671 429 671 c 2
 479 671 l 2
 489 671 494 668 494 661 c 0
 494 655 491 647 484 637 c 1
 468 609 454 565 454 522 c 256
 454 510 453 498 453 487 c 0xd0
 453 477 454 467 457 457 c 0
 460 443 464 427 479 419 c 0
 505 406 542 400 572 390 c 1
 642 371 704 342 746 292 c 0
 770 264 789 223 789 179 c 0
 789 129 766 93 735 67 c 0
 703 41 681 24 646 5 c 0
 604 -18 550 -39 501 -55 c 0
 480 -61 469 -66 454 -78 c 0
 446 -85 442 -93 442 -102 c 0
 442 -117 442 -117 442 -153 c 0
 442 -203 448 -273 468 -305 c 0
 472 -312 479 -322 479 -329 c 0
 479 -335 475 -339 463 -339 c 256
 441 -339 409 -335 381 -335 c 0xb0
450 171 m 256
 450 126 448 75 448 31 c 0
 448 13 448 13 448 7 c 0
 449 -8 447 -11 459 -13 c 256
 460 -13 460 -13 461 -13 c 0
 467 -13 476 -11 490 -7 c 1
 505 -1 524 7 546 18 c 1
 574 34 604 66 621 97 c 0
 634 121 641 146 641 173 c 0
 641 195 637 217 626 240 c 0
 600 295 539 339 486 364 c 0
 472 371 464 374 461 374 c 0
 457 375 455 375 453 375 c 0xd0
 449 375 448 373 446 366 c 1
 446 307 450 231 450 171 c 256
334 -6 m 1
 334 39 331 103 331 148 c 2
 331 260 l 2
 331 289 331 322 332 358 c 1
 329 368 324 372 318 372 c 0
 310 372 299 366 288 359 c 0
 257 339 227 308 203 277 c 0
 179 246 169 212 162 169 c 0
 161 163 161 157 161 151 c 0
 161 138 162 122 166 104 c 0
 174 61 206 29 236 9 c 0
 251 -2 266 -10 281 -15 c 0
 293 -20 302 -22 308 -22 c 0
 309 -22 309 -22 310 -22 c 0
 325 -21 336 -18 334 -6 c 1
EndSplineSet
Validated: 19457
Position2: "'ss10' Equal Baseline Kerning Lookup-1" dx=0 dy=150 dh=0 dv=0
EndChar

StartChar: uni0425
Encoding: 1061 1061 100
Width: 629
GlyphClass: 2
Flags: W
HStem: -255 21G<-58 -44.5> -156 21G<299.5 328> 546 97<383.301 483.964> 617 46<45.3339 102.046>
VStem: 201 118<290.857 437.639>
DStem2: -89 -209 -30 -239 0.475201 0.879877<-16.7223 523.283> 259 606 196 372 0.246043 -0.969259<-9.27492 99.7831 185.709 246.928 367.104 704.671>
AnchorPoint: "HalfMark" 319 752.5 basechar 0
AnchorPoint: "Diacritic" 322 793.7 basechar 0
AnchorPoint: "Yerok" 487.5 753.7 basechar 0
LayerCount: 2
Fore
SplineSet
-50 -255 m 0xe8
 -66 -255 -95 -242 -95 -225 c 0
 -95 -220 -93 -215 -89 -209 c 0
 -88 -208 -84 -200 -75 -184 c 0
 19 -14 97 132 194 315 c 1
 199 320 201 328 201 336 c 0
 201 347 198 360 196 372 c 0
 179 451 147 548 106 603 c 0
 103 607 102 607 102 607 c 1
 103 604 103 605 100 608 c 1
 96 615 92 617 81 617 c 0
 62 617 38 618 38 636 c 0
 38 645 41 652 45 657 c 1
 52 663 67 661 78 663 c 0xd8
 83 663 94 660 110 657 c 0
 136 652 181 649 208 649 c 0
 222 649 242 649 248 641 c 0
 255 630 254 624 259 606 c 0
 265 583 273 554 278 531 c 1
 282 520 283 512 283 509 c 0
 285 499 294 498 297 506 c 0
 305 522 327 550 341 569 c 256
 352 584 364 598 374 611 c 1
 395 635 406 643 441 643 c 0
 466 643 495 634 520 631 c 0
 522 631 524 631 526 631 c 0
 546 631 554 643 568 648 c 0
 579 652 588 650 588 641 c 0
 588 628 573 617 565 608 c 0
 540 582 516 557 494 528 c 1
 487 516 477 498 462 498 c 0
 451 498 444 512 438 520 c 0
 432 528 416 546 401 546 c 0
 397 546 393 544 390 541 c 0
 383 536 377 525 370 516 c 1
 353 489 330 458 323 421 c 0
 320 407 319 390 319 372 c 0
 319 368 319 365 319 361 c 0
 319 358 322 346 328 324 c 0
 357 208 394 71 424 -44 c 0
 433 -78 430 -74 438 -94 c 1
 442 -107 449 -114 462 -122 c 0
 470 -126 482 -131 482 -141 c 0
 482 -142 481 -143 481 -144 c 0
 480 -149 478 -151 475 -152 c 1
 443 -152 l 2
 427 -152 406 -153 390 -153 c 256
 366 -153 340 -156 316 -156 c 0
 307 -156 307 -156 304 -156 c 0
 295 -154 290 -154 292 -141 c 0
 295 -128 308 -124 308 -109 c 0
 308 -100 307 -96 302 -76 c 0
 282 6 259 104 238 184 c 0
 233 203 233 218 222 218 c 0
 213 218 206 199 196 180 c 0
 130 62 53 -82 -10 -202 c 1
 -23 -224 -29 -237 -30 -239 c 0
 -35 -247 -39 -255 -50 -255 c 0xe8
EndSplineSet
Validated: 19457
Position2: "'ss10' Equal Baseline Kerning Lookup-1" dx=0 dy=150 dh=0 dv=0
EndChar

StartChar: uni0426
Encoding: 1062 1062 101
Width: 744
GlyphClass: 2
Flags: W
HStem: -156 49<0.4646 68.9985> -153 37<197.147 403> -150 805<476 493 517 530> 643 20G<542 549>
VStem: 69 127<-106.905 601.311> 397 138<380.244 619.727> 404 138<-105.946 505.956> 535 59<-335.357 -268>
AnchorPoint: "HalfMark" 301 752.5 basechar 0
AnchorPoint: "Diacritic" 300 799.6 basechar 0
AnchorPoint: "Yerok" 469.5 762.6 basechar 0
LayerCount: 2
Fore
SplineSet
367 639 m 0x4c
 367 648 379 651 386 653 c 1
 422 653 476 656 514 658 c 1
 530 660 540 662 544 663 c 0
 546 663 548 663 549 663 c 0
 561 663 565 654 565 642 c 0
 565 623 545 617 539 604 c 0
 538 601 536 599 535 597 c 1
 535 526 l 2x5c
 535 311 535 135 542 -74 c 0x5a
 543 -94 543 -105 544 -106 c 1
 560 -105 578 -103 598 -99 c 0
 628 -93 628 -93 648 -89 c 0
 652 -88 656 -88 659 -88 c 0
 679 -88 695 -96 704 -106 c 256
 708 -111 710 -116 710 -120 c 0
 710 -130 701 -138 693 -145 c 0
 671 -164 647 -185 631 -212 c 0
 613 -242 605 -278 594 -314 c 0x59
 591 -325 583 -341 572 -341 c 0
 570 -341 569 -341 567 -340 c 0
 552 -334 547 -330 542 -314 c 0x5a
 537 -300 535 -295 535 -281 c 0
 535 -278 535 -274 535 -268 c 0
 537 -238 541 -199 541 -168 c 256
 541 -155 530 -153 517 -153 c 0
 509 -153 500 -154 493 -154 c 0
 449 -153 407 -153 367 -153 c 2
 264 -153 l 2x59
 237 -153 210 -150 186 -150 c 0
 174 -150 162 -150 150 -150 c 0x29
 110 -150 70 -156 33 -156 c 0
 32 -156 30 -156 29 -156 c 0
 14 -156 0 -145 0 -130 c 0
 0 -128 0 -126 0 -124 c 0
 0 -104 41 -111 58 -107 c 0x89
 67 -105 69 -102 69 -91 c 0
 69 -87 68 -81 68 -73 c 0
 68 -71 68 -70 68 -68 c 0
 69 -47 69 -21 69 12 c 0
 69 84 70 173 70 249 c 0
 71 349 71 463 71 590 c 1
 63 596 53 605 44 608 c 0
 36 611 30 612 31 626 c 256
 32 640 38 642 47 647 c 0
 49 648 58 650 72 650 c 1
 111 653 165 655 204 655 c 1x29
 221 652 240 649 240 630 c 0
 240 617 228 612 222 605 c 256
 215 597 204 598 201 587 c 1
 201 539 196 478 196 426 c 0
 196 402 196 402 196 385 c 0
 196 354 198 370 198 326 c 1
 199 312 199 296 199 281 c 0
 199 183 195 75 195 -23 c 0
 195 -39 195 -55 196 -70 c 1
 196 -93 196 -106 197 -108 c 0
 200 -111 212 -114 233 -114 c 1
 249 -115 265 -116 280 -116 c 0
 320 -116 359 -114 403 -112 c 1
 403 -25 403 54 404 125 c 0
 404 179 405 241 405 292 c 0
 405 324 404 353 404 377 c 0x4a
 404 446 397 528 397 596 c 1
 396 603 386 610 381 614 c 0
 376 618 367 629 367 639 c 0x4c
EndSplineSet
Validated: 19457
Position2: "'ss10' Equal Baseline Kerning Lookup-1" dx=0 dy=150 dh=0 dv=0
AlternateSubs2: "'salt' Stylistic Alternatives-1" uni0426.alt
EndChar

StartChar: uni0427
Encoding: 1063 1063 102
Width: 505
GlyphClass: 2
Flags: W
HStem: -156 21G<178 210.5> 430 46<177.04 276.892> 630 21G<327 337 444 459.5>
VStem: 0 150<547.346 622.215> 198 228<151.623 259.125> 321 145<593.766 647.992>
DStem2: 250 126 354 119 0.155859 0.987779<-117.43 11.6639 161.652 306.916>
AnchorPoint: "HalfMark" 224 752.5 basechar 0
AnchorPoint: "Diacritic" 225 797 basechar 0
AnchorPoint: "Yerok" 403.5 728 basechar 0
LayerCount: 2
Fore
SplineSet
426 208 m 0xf8
 426 160 399 131 364 121 c 1
 358 121 355 120 354 119 c 0
 346 68 342 25 342 -9 c 0
 342 -64 347 -94 367 -118 c 0
 370 -122 382 -135 382 -143 c 0
 382 -145 381 -147 380 -147 c 0
 371 -152 372 -153 356 -153 c 2
 277 -153 l 258
 254 -153 223 -156 198 -156 c 0
 185 -156 184 -156 181 -156 c 0
 175 -155 172 -152 172 -147 c 0
 172 -138 182 -125 185 -119 c 0
 189 -112 189 -112 193 -105 c 0
 205 -83 204 -73 218 -28 c 0
 228 5 239 57 250 126 c 1
 228 141 198 165 198 203 c 0xf8
 198 249 232 278 267 289 c 1
 273 331 278 366 283 404 c 0
 285 417 288 425 288 431 c 0
 288 439 281 441 273 441 c 0
 265 441 255 438 249 437 c 0
 236 433 219 430 203 430 c 256
 93 430 39 490 12 574 c 0
 6 593 0 614 0 632 c 1
 1 641 8 645 17 645 c 0
 25 645 38 644 47 644 c 2
 83 644 l 258
 102 644 125 646 144 646 c 0
 155 646 155 646 159 646 c 0
 170 646 175 643 175 638 c 0
 175 621 166 612 158 599 c 0
 153 592 150 575 150 558 c 0
 150 547 151 536 154 528 c 0
 166 500 193 476 232 476 c 1
 279 479 293 511 310 543 c 0
 321 562 324 586 327 614 c 0
 328 629 321 630 321 641 c 256
 321 648 324 650 330 650 c 0
 344 650 375 648 393 648 c 0
 416 648 435 649 453 651 c 256
 454 651 455 651 456 651 c 0
 463 651 466 648 466 642 c 0xf4
 466 631 454 611 446 597 c 0
 407 520 386 390 373 282 c 1
 400 270 426 246 426 208 c 0xf8
EndSplineSet
Validated: 19457
Position2: "'ss10' Equal Baseline Kerning Lookup-1" dx=0 dy=150 dh=0 dv=0
EndChar

StartChar: uni0428
Encoding: 1064 1064 103
Width: 904
GlyphClass: 2
Flags: W
HStem: -153 42<178.467 280.825> -145 34<178.467 351.74 481.86 690.284> 647 20G<39.5 64.5 159 179.5 666.5 686 796.5 815.5>
VStem: 26 133<-46.8252 517.762> 354 122<-106.248 177.124 182.72 620.526> 665 140<296.739 631.553> 676 129<80.5801 586.02> 695 131<-88.188 230.257>
AnchorPoint: "HalfMark" 399 752.5 basechar 0
AnchorPoint: "Diacritic" 400 808 basechar 0
AnchorPoint: "Yerok" 747.5 747 basechar 0
LayerCount: 2
Fore
SplineSet
842 -129 m 0x79
 754 -129 656 -146 568 -146 c 0
 550 -146 550 -146 522 -146 c 0
 473 -146 418 -145 370 -145 c 256
 357 -145 343 -145 330 -145 c 1x79
 306 -147 306 -146 282 -148 c 1
 257 -149 227 -153 205 -153 c 258
 45 -153 l 2
 44 -153 42 -153 41 -153 c 0
 22 -153 0 -152 0 -132 c 0
 0 -119 5 -113 12 -106 c 0
 16 -102 16 -102 20 -98 c 0
 27 -91 28 -75 28 -58 c 0
 28 -51 27 -44 27 -37 c 0
 27 -35 27 -33 28 -30 c 1
 28 -16 28 0 28 18 c 0
 28 47 27 79 27 106 c 0
 27 141 25 171 25 208 c 0
 25 212 25 217 26 221 c 0
 27 335 34 452 40 558 c 1
 42 575 42 585 43 589 c 0
 44 592 44 595 44 598 c 0
 44 617 32 621 15 627 c 0
 8 629 4 636 4 644 c 0
 4 666 28 667 51 667 c 0
 78 667 93 663 116 663 c 0
 133 663 150 666 168 666 c 0
 191 666 213 661 213 640 c 0
 213 624 195 620 184 613 c 0
 178 609 175 601 174 589 c 0
 168 534 164 456 161 397 c 0
 160 371 159 352 159 340 c 256
 159 280 164 209 164 150 c 1
 165 143 165 134 165 122 c 2
 165 34 l 2
 165 6 166 -23 166 -48 c 1
 167 -71 169 -82 178 -96 c 0
 188 -110 195 -111 213 -111 c 2xb9
 301 -111 l 2
 327 -111 349 -111 353 -90 c 0
 354 -88 354 -80 354 -67 c 0
 354 -47 354 -47 354 -16 c 0
 354 30 353 83 353 131 c 0
 352 193 351 263 350 340 c 1
 351 383 351 423 352 459 c 1
 352 498 354 540 354 577 c 0
 354 590 354 590 354 594 c 0
 352 618 323 615 323 640 c 0
 323 659 337 661 357 661 c 0
 379 661 398 663 421 664 c 1
 446 664 471 671 496 671 c 0
 506 671 513 669 513 660 c 0
 513 643 498 638 492 628 c 0
 482 610 484 595 482 562 c 0
 480 501 476 420 476 357 c 0
 476 298 483 238 483 180 c 256
 483 119 480 35 478 -26 c 0
 478 -38 477 -46 477 -53 c 0
 477 -70 479 -78 482 -95 c 0
 484 -107 508 -109 527 -109 c 0
 551 -109 576 -106 598 -106 c 256
 603 -106 609 -106 616 -106 c 0
 643 -106 676 -105 691 -95 c 0
 694 -93 695 -84 695 -66 c 0x79
 695 34 684 147 676 244 c 0x7a
 675 266 674 282 674 292 c 0
 674 393 665 501 665 600 c 2
 665 606 l 2x7c
 665 622 664 625 648 630 c 256
 638 633 633 638 633 643 c 0
 633 659 657 662 676 662 c 0x7a
 696 662 720 659 735 659 c 256
 757 659 784 665 809 665 c 0
 822 665 837 664 837 653 c 0
 837 647 832 640 826 637 c 256x79
 816 631 805 617 805 602 c 2
 805 376 l 2x7c
 805 344 805 306 808 282 c 1
 813 256 813 223 816 194 c 0
 821 145 823 103 826 49 c 1
 826 2 l 2
 826 -23 830 -51 830 -72 c 1
 832 -88 865 -89 865 -106 c 0
 865 -117 853 -129 842 -129 c 0x79
EndSplineSet
Validated: 19457
Position2: "'ss10' Equal Baseline Kerning Lookup-1" dx=0 dy=150 dh=0 dv=0
EndChar

StartChar: uni0429
Encoding: 1065 1065 104
Width: 941
GlyphClass: 2
Flags: W
HStem: -351 49<316.454 360.167> -155 41<527.987 702.856> -155 37<160.026 356.466 495.314 586.336 858.578 900.386> -145 30<163.271 358.569 494.041 580.594> 628 20G<748.5 856>
VStem: 26 129<-120.546 136.232 280.331 596.766> 353 141<212.771 605.375> 359 135<-241.578 -148 -108.949 511.598> 367 130<-292.136 -148.281> 690 147<274.355 613.672> 703 135<0.889404 605.237> 707 146<-103.853 246.193>
AnchorPoint: "HalfMark" 424 752.5 basechar 0
AnchorPoint: "Diacritic" 425 791.1 basechar 0
AnchorPoint: "Yerok" 793.5 742.1 basechar 0
LayerCount: 2
Fore
SplineSet
153 633 m 0xad
 167 633 180 628 180 614 c 0
 180 602 161 596 161 583 c 0
 161 385 155 167 155 -33 c 0
 155 -62 155 -62 155 -67 c 0
 155 -83 161 -121 176 -121 c 0
 177 -121 177 -121 178 -121 c 256
 196 -117 222 -118 243 -116 c 0
 252 -115 258 -115 263 -115 c 0
 277 -115 297 -116 312 -116 c 0
 329 -116 350 -115 359 -109 c 0x9d
 360 -108 360 -101 360 -87 c 0
 361 -73 361 -55 361 -33 c 0
 361 32 360 110 358 174 c 0
 358 192 358 204 357 210 c 1
 357 269 353 336 353 399 c 1
 352 448 352 501 351 560 c 0
 351 562 351 564 351 567 c 0
 351 584 343 598 332 605 c 0
 327 609 325 612 325 616 c 0
 325 623 335 630 346 630 c 256
 355 630 370 631 382 631 c 0
 394 631 410 632 421 632 c 256
 449 632 479 639 507 639 c 1
 516 638 524 633 524 627 c 0
 524 624 523 621 518 617 c 0
 504 606 493 598 493 573 c 0
 493 543 494 504 494 463 c 2x9e
 494 6 l 2
 494 -38 493 -77 493 -109 c 1
 498 -116 512 -118 527 -118 c 0xad
 548 -118 573 -114 587 -114 c 256
 616 -114 655 -111 682 -108 c 0
 692 -107 700 -105 703 -104 c 1xcd20
 704 -101 705 -89 706 -68 c 0
 707 -41 707 -12 707 17 c 0xcc10
 707 113 703 215 701 304 c 0
 699 390 690 495 690 588 c 0xcc40
 690 601 675 618 667 621 c 0
 664 623 662 630 662 635 c 0
 662 642 667 646 675 646 c 256
 682 646 682 646 696 646 c 0
 718 646 737 648 760 648 c 2
 851 648 l 2
 861 648 868 644 871 637 c 0
 874 629 873 623 868 620 c 0
 857 612 840 603 838 584 c 0xcc20
 837 581 837 573 837 560 c 2
 837 484 l 2xcc40
 837 423 837 358 841 302 c 256
 849 186 845 48 853 -65 c 0
 856 -99 857 -111 882 -116 c 0
 890 -118 901 -126 901 -133 c 0
 901 -135 901 -136 900 -137 c 0
 894 -148 886 -149 871 -149 c 0
 866 -149 861 -149 854 -149 c 0
 822 -149 780 -147 748 -147 c 1
 744 -146 742 -146 739 -146 c 0
 690 -146 654 -154 604 -154 c 1
 597 -155 589 -155 582 -155 c 0
 552 -155 522 -150 494 -148 c 1xcd10
 495 -175 497 -197 497 -223 c 0
 497 -239 497 -239 497 -247 c 0
 497 -278 515 -293 536 -302 c 0
 544 -305 555 -312 555 -323 c 0
 555 -336 545 -343 528 -343 c 0
 506 -343 485 -340 464 -340 c 0
 453 -340 443 -341 432 -343 c 0
 408 -348 386 -351 356 -351 c 256
 336 -351 315 -347 315 -330 c 0
 315 -328 315 -327 316 -325 c 0
 319 -310 322 -309 338 -302 c 0
 360 -292 367 -274 367 -242 c 0xcc80
 367 -233 360 -224 359 -215 c 2
 359 -145 l 1x9d
 305 -149 247 -151 193 -155 c 1
 165 -155 122 -163 94 -168 c 0
 72 -171 48 -175 22 -180 c 1
 7 -180 0 -172 0 -162 c 0
 0 -153 6 -142 12 -136 c 0
 23 -125 26 -110 26 -90 c 0
 26 -75 24 -57 24 -36 c 0
 24 17 23 80 23 139 c 0
 23 196 22 258 22 311 c 0
 22 342 22 342 22 348 c 0
 22 420 30 503 30 575 c 0
 30 587 19 592 12 597 c 0
 10 599 10 601 10 603 c 0
 10 621 23 625 39 625 c 2
 60 625 l 2
 85 625 117 628 134 631 c 0
 140 632 147 633 153 633 c 0xad
EndSplineSet
Validated: 19457
Position2: "'ss10' Equal Baseline Kerning Lookup-1" dx=0 dy=150 dh=0 dv=0
EndChar

StartChar: uni042A
Encoding: 1066 1066 105
Width: 556
GlyphClass: 2
Flags: W
HStem: -162 44<0.572357 52.1548> -153 34<213.48 339.663> 597 48<395.078 455.719> 611 38<158.233 249.337>
VStem: 358 109<-104.871 184.358>
AnchorPoint: "HalfMark" 300 752.5 basechar 0
AnchorPoint: "Diacritic" 300 796.7 basechar 0
AnchorPoint: "Yerok" 345.5 713.7 basechar 0
LayerCount: 2
Fore
SplineSet
252 580 m 0x88
 252 609 220 608 190 611 c 0
 181 611 178 610 174 605 c 1
 171 603 167 600 161 595 c 256
 141 579 128 541 120 514 c 0
 115 495 117 476 97 476 c 0
 90 476 80 496 76 503 c 0
 64 521 57 540 42 555 c 0
 31 566 18 580 8 591 c 0
 2 598 0 603 0 611 c 0
 0 633 11 649 32 649 c 2
 146 649 l 1x98
 189 648 230 647 267 646 c 0
 298 646 333 645 364 645 c 0
 388 645 413 646 434 646 c 0
 435 646 436 646 438 646 c 0
 450 646 456 639 456 627 c 0
 456 626 456 624 456 622 c 0
 456 608 441 596 427 596 c 0
 424 596 421 597 419 597 c 0
 396 597 393 567 387 545 c 0
 367 468 336 385 320 306 c 0
 319 298 318 293 318 288 c 0
 318 279 321 274 329 263 c 0
 339 249 366 231 384 220 c 1
 401 208 426 192 444 185 c 256
 466 177 467 149 467 118 c 0
 467 113 467 108 467 103 c 0
 467 55 469 -1 470 -47 c 1
 472 -90 483 -109 509 -126 c 256
 514 -129 516 -134 516 -139 c 0
 516 -146 510 -153 502 -153 c 0
 425 -153 347 -153 270 -153 c 256x68
 191 -153 105 -162 26 -162 c 0
 6 -162 0 -160 0 -145 c 0
 0 -124 22 -124 39 -118 c 0
 49 -115 49 -104 55 -89 c 0
 124 102 189 327 242 537 c 0
 246 553 252 568 252 580 c 0x88
210 -101 m 1
 210 -117 225 -119 242 -119 c 0
 248 -119 255 -119 261 -119 c 0x48
 288 -119 318 -114 327 -110 c 256
 341 -103 342 -103 345 -84 c 0
 353 -35 358 20 358 74 c 0
 358 97 357 120 355 143 c 256
 353 170 340 195 326 211 c 0
 320 217 313 221 307 221 c 0
 300 221 294 216 291 203 c 0
 284 166 262 122 254 86 c 1
 245 28 209 -23 209 -94 c 0
 209 -96 209 -99 210 -101 c 1
EndSplineSet
Validated: 19457
Position2: "'ss10' Equal Baseline Kerning Lookup-1" dx=0 dy=150 dh=0 dv=0
EndChar

StartChar: uni042B
Encoding: 1067 1067 106
Width: 809
GlyphClass: 2
Flags: W
HStem: -162 37<0.0837402 37.154> -153 35<201.623 329.33> 597 49<203.203 252.807>
VStem: 40 153<-99.905 200.738> 58 144<137.651 220.996 260.35 590.873> 577 145<-121.426 79.5113> 584 137<-74.7881 548.462> 595 130<235.484 598.172>
AnchorPoint: "HalfMark" 378 752.5 basechar 0
AnchorPoint: "Diacritic" 375 796.7 basechar 0
AnchorPoint: "Yerok" 667.5 733.7 basechar 0
LayerCount: 2
Fore
SplineSet
581 649 m 0x61
 606 649 633 646 661 646 c 0
 666 646 671 646 676 646 c 0
 702 646 724 649 749 649 c 256
 763 649 768 642 768 634 c 0
 768 628 765 620 760 614 c 0
 750 601 726 579 725 557 c 1x61
 725 472 720 373 720 286 c 0
 720 261 720 261 720 251 c 1
 721 244 721 233 721 215 c 2
 721 86 l 2x62
 721 43 722 -4 722 -43 c 0
 722 -91 728 -105 750 -129 c 0
 754 -132 756 -140 756 -147 c 0
 756 -152 755 -157 751 -159 c 0
 744 -162 739 -164 732 -164 c 0
 726 -164 719 -162 707 -160 c 0
 686 -156 650 -153 619 -153 c 0
 610 -153 601 -152 594 -153 c 0
 576 -154 564 -156 559 -156 c 256
 552 -156 547 -148 547 -140 c 0
 547 -137 548 -134 550 -131 c 0
 561 -120 573 -95 577 -77 c 1x64
 577 -30 581 29 582 82 c 0
 582 127 584 175 584 216 c 0
 584 241 584 241 584 245 c 256x62
 584 335 590 442 594 532 c 0
 595 548 595 558 595 561 c 0
 595 581 569 605 560 616 c 256
 557 620 556 624 556 627 c 0
 556 641 566 649 581 649 c 0x61
58 573 m 0xa8
 58 608 7 573 7 613 c 0
 7 621 10 629 13 632 c 0
 20 637 24 644 37 644 c 0
 63 644 99 641 126 641 c 0
 159 641 197 643 227 646 c 256
 228 646 230 646 231 646 c 0
 245 646 253 637 253 622 c 0
 253 620 254 619 254 617 c 0
 254 605 242 596 229 596 c 0
 228 596 227 596 226 597 c 1
 224 597 223 597 222 597 c 0
 207 597 202 583 202 567 c 2
 202 379 l 2
 202 353 203 326 203 306 c 1
 208 271 218 261 248 244 c 0
 276 229 313 211 342 198 c 0
 357 191 367 187 373 185 c 0
 395 178 394 169 401 151 c 0
 402 147 402 147 406 131 c 0
 420 76 433 8 448 -47 c 1
 458 -90 472 -108 504 -126 c 256
 511 -130 514 -135 514 -141 c 0
 514 -149 509 -154 501 -153 c 1
 269 -153 l 2x68
 191 -153 105 -162 26 -162 c 0
 4 -162 0 -156 0 -140 c 0
 0 -133 0 -128 8 -125 c 0
 17 -122 36 -121 38 -110 c 0
 39 -107 40 -94 40 -71 c 1xb0
 48 95 50 278 56 447 c 0
 57 493 58 538 58 573 c 0xa8
197 203 m 0
 197 155 193 91 193 42 c 256x70
 193 31 201 -100 201 -100 c 1
 201 -100 200 -98 202 -103 c 0
 206 -117 235 -118 255 -118 c 0
 280 -118 320 -117 329 -101 c 0
 330 -100 330 -97 330 -92 c 0
 330 -90 330 -87 330 -84 c 0
 329 -35 319 21 311 63 c 0
 303 107 299 147 278 173 c 1
 265 186 244 201 228 212 c 0
 222 217 215 221 208 221 c 0
 202 221 197 216 197 203 c 0
EndSplineSet
Validated: 19457
Position2: "'ss10' Equal Baseline Kerning Lookup-1" dx=0 dy=150 dh=0 dv=0
EndChar

StartChar: uni042C
Encoding: 1068 1068 107
Width: 554
GlyphClass: 2
Flags: W
HStem: -162 37<0.0837402 37.154> -153 35<201.623 329.33> 597 49<202.469 252.807>
VStem: 40 153<-99.905 200.738> 58 144<137.651 220.996 260.35 590.873>
AnchorPoint: "HalfMark" 234 752.5 basechar 0
AnchorPoint: "Diacritic" 155 796.7 basechar 0
AnchorPoint: "Yerok" 129.5 721.7 basechar 0
LayerCount: 2
Fore
SplineSet
58 573 m 0xa8
 58 608 7 573 7 613 c 0
 7 621 10 629 13 632 c 0
 20 637 24 644 37 644 c 0
 63 644 99 641 126 641 c 0
 159 641 197 643 227 646 c 256
 228 646 230 646 231 646 c 0
 245 646 253 637 253 622 c 0
 253 620 254 619 254 617 c 0
 254 605 242 596 229 596 c 0
 228 596 227 596 226 597 c 1
 224 597 223 597 222 597 c 0
 207 597 202 583 202 567 c 2
 202 379 l 2
 202 353 203 326 203 306 c 1
 208 271 218 261 248 244 c 0
 276 229 313 211 342 198 c 0
 357 191 367 187 373 185 c 0
 395 178 394 169 401 151 c 0
 402 147 402 147 406 131 c 0
 420 76 433 8 448 -47 c 1
 458 -90 472 -108 504 -126 c 256
 511 -130 514 -135 514 -141 c 0
 514 -149 509 -154 501 -153 c 1
 269 -153 l 2x68
 191 -153 105 -162 26 -162 c 0
 4 -162 0 -156 0 -140 c 0
 0 -133 0 -128 8 -125 c 0
 17 -122 36 -121 38 -110 c 0
 39 -107 40 -94 40 -71 c 1xb0
 48 95 50 278 56 447 c 0
 57 493 58 538 58 573 c 0xa8
197 203 m 0
 197 155 193 91 193 42 c 256x70
 193 31 201 -100 201 -100 c 1
 201 -100 200 -98 202 -103 c 0
 206 -117 235 -118 255 -118 c 0
 280 -118 320 -117 329 -101 c 0
 330 -100 330 -97 330 -92 c 0
 330 -90 330 -87 330 -84 c 0
 329 -35 319 21 311 63 c 0
 303 107 299 147 278 173 c 1
 265 186 244 201 228 212 c 0
 222 217 215 221 208 221 c 0
 202 221 197 216 197 203 c 0
EndSplineSet
Validated: 19457
Position2: "'ss10' Equal Baseline Kerning Lookup-1" dx=0 dy=150 dh=0 dv=0
EndChar

StartChar: uni042D
Encoding: 1069 1069 108
Width: 622
GlyphClass: 2
Flags: W
HStem: -167 101<168.223 272.91> 243 87<264.911 360.288> 554 98<283.078 406.357>
VStem: 452 121<278.647 481.21>
AnchorPoint: "HalfMark" 323 752.5 basechar 0
AnchorPoint: "Diacritic" 325 792.7 basechar 0
AnchorPoint: "Yerok" 511.5 667.7 basechar 0
LayerCount: 2
Fore
SplineSet
52 -19 m 0
 52 9 64 25 85 39 c 1
 98 39 117 21 142 -13 c 1
 166 -49 190 -66 213 -66 c 0
 228 -66 246 -57 262 -52 c 1
 319 -17 357 43 378 130 c 0
 381 142 382 153 382 163 c 0
 382 210 354 242 308 243 c 0
 297 243 289 243 282 243 c 0
 268 243 263 243 265 242 c 1
 220 237 178 203 174 163 c 1
 168 155 l 1
 16 155 l 1
 74 262 166 330 291 330 c 2
 293 330 l 2
 337 330 372 318 398 293 c 1
 406 280 414 274 421 274 c 0
 446 274 452 343 452 378 c 0
 452 380 452 380 452 382 c 0
 452 462 425 554 358 554 c 0
 293 554 236 511 189 424 c 1
 43 463 l 1
 63 504 99 546 152 589 c 0
 203 631 249 652 291 652 c 0
 292 652 294 652 295 652 c 0
 364 652 417 647 457 621 c 0
 508 587 537 545 555 467 c 1
 568 423 573 382 573 342 c 0
 573 302 568 263 560 222 c 1
 529 113 487 22 432 -51 c 1
 378 -125 314 -164 239 -167 c 1
 196 -164 153 -144 111 -109 c 1
 72 -79 52 -48 52 -19 c 0
EndSplineSet
Validated: 19457
Position2: "'ss10' Equal Baseline Kerning Lookup-1" dx=0 dy=150 dh=0 dv=0
EndChar

StartChar: uni042E
Encoding: 1070 1070 109
Width: 815
GlyphClass: 2
Flags: W
HStem: -163 55<499.16 587.275> 215 57<178.103 289.918> 596 58<487.112 580.26>
VStem: 35 144<-119.274 210.629> 43 135<-86.3629 214.333 272.547 541.894> 54 129<276.64 599.037> 290 133<65.3586 213.466 273.213 389.965> 645 130<84.0961 406.986>
AnchorPoint: "HalfMark" 424 752.5 basechar 0
AnchorPoint: "Diacritic" 525 796.7 basechar 0
AnchorPoint: "Yerok" 709.5 689.7 basechar 0
LayerCount: 2
Fore
SplineSet
43 243 m 256xeb
 43 344 54 460 54 561 c 0
 54 581 28 605 19 616 c 256
 16 620 14 624 14 628 c 0
 14 639 27 648 40 648 c 0
 66 648 93 645 119 645 c 0
 137 645 137 645 150 645 c 0
 171 645 186 648 206 648 c 0
 220 648 226 641 226 633 c 0
 226 627 223 620 218 614 c 0
 208 602 183 579 183 557 c 0xe7
 183 476 177 373 177 289 c 0
 177 274 195 272 213 272 c 2
 243 272 l 2
 266 272 293 273 293 290 c 1
 302 387 337 477 380 541 c 1
 401 575 425 601 451 621 c 0
 479 643 508 654 537 654 c 0
 563 654 590 645 618 627 c 1
 684 581 728 499 754 407 c 0
 768 359 775 303 775 247 c 0
 775 187 767 127 751 77 c 0
 724 -9 680 -85 618 -130 c 0
 588 -151 559 -163 529 -163 c 0
 506 -163 482 -157 456 -141 c 0
 392 -104 346 -34 318 46 c 1
 301 91 292 142 290 198 c 0
 290 212 267 215 247 215 c 2
 214 215 l 2
 195 215 180 213 178 196 c 1xeb
 178 150 179 87 179 39 c 0
 179 25 179 11 179 -3 c 0
 179 -30 179 -57 181 -77 c 0
 183 -100 196 -115 208 -127 c 0
 212 -131 214 -139 214 -146 c 0
 214 -151 213 -156 209 -157 c 1
 202 -161 196 -163 190 -163 c 0
 183 -163 176 -161 164 -159 c 0
 144 -155 108 -153 77 -153 c 0
 63 -153 50 -153 37 -153 c 0
 28 -153 21 -153 18 -153 c 256
 11 -153 6 -147 6 -139 c 0
 6 -136 7 -133 9 -130 c 0
 20 -119 32 -94 35 -77 c 1xf3
 35 13 43 122 43 215 c 0
 43 239 43 239 43 243 c 256xeb
508 -95 m 0
 518 -104 530 -108 542 -108 c 0
 557 -108 573 -101 584 -90 c 0
 619 -55 631 12 639 75 c 0
 643 111 645 151 645 194 c 0
 645 213 645 232 644 253 c 1
 644 346 638 421 620 492 c 0
 610 530 595 564 570 584 c 0
 559 592 547 596 534 596 c 0
 518 596 501 589 489 577 c 0
 453 542 438 473 430 409 c 0
 425 369 423 325 423 279 c 0
 423 177 435 69 456 -3 c 0
 467 -40 483 -74 508 -95 c 0
EndSplineSet
Validated: 19457
Position2: "'ss10' Equal Baseline Kerning Lookup-1" dx=0 dy=150 dh=0 dv=0
EndChar

StartChar: uni042F
Encoding: 1071 1071 110
Width: 654
GlyphClass: 2
Flags: W
HStem: -153 14G<40 186.5 378.5 568> 244 102<375.908 419> 601 47<353.655 439.989>
VStem: 412 154<-126.8 241.229> 419 143<45.5559 244>
AnchorPoint: "HalfMark" 400 752.5 basechar 0
AnchorPoint: "Diacritic" 400 796.7 basechar 0
AnchorPoint: "Yerok" 512 725.7 basechar 0
LayerCount: 2
Fore
SplineSet
584 609 m 1xe8
 575 521 562 315 562 186 c 0xe8
 562 132 563 77 566 21 c 1
 566 -63 l 1
 568 -102 572 -123 580 -127 c 1
 588 -129 590 -135 588 -143 c 1
 584 -151 578 -153 568 -153 c 2
 384 -160 l 1
 373 -153 372 -145 381 -134 c 1
 396 -127 404 -114 406 -95 c 0
 409 -58 411 -34 412 5 c 0xf0
 412 22 412 35 413 42 c 1
 413 118 415 185 419 244 c 1
 417 244 l 2
 370 244 326 203 284 122 c 1
 259 71 232 10 216 -49 c 0
 210 -69 206 -88 204 -105 c 0
 204 -107 204 -107 204 -115 c 0
 204 -125 228 -131 228 -141 c 0
 228 -143 226 -146 220 -150 c 0
 217 -151 201 -153 172 -153 c 0
 152 -153 126 -153 95 -153 c 0
 84 -153 73 -153 62 -153 c 0
 56 -153 50 -153 44 -153 c 1
 36 -152 32 -149 32 -140 c 0
 32 -138 32 -136 32 -134 c 0
 39 -87 65 -34 111 25 c 2
 258 211 l 1
 295 253 313 277 313 284 c 0
 313 289 310 292 305 295 c 0
 242 320 200 381 181 476 c 0
 176 499 173 519 173 535 c 0
 173 540 174 545 174 549 c 0
 179 613 203 646 246 648 c 1
 359 650 452 653 568 653 c 0
 586 653 609 653 609 642 c 0
 609 639 608 635 603 630 c 1
 592 624 587 624 584 609 c 1xe8
438 570 m 2
 439 574 440 577 440 580 c 0
 440 594 425 601 396 601 c 0
 379 601 361 590 344 569 c 0
 326 547 317 521 317 490 c 0
 317 454 329 421 353 391 c 0
 377 361 400 346 421 346 c 0
 427 346 431 377 433 439 c 2
 438 570 l 2
EndSplineSet
Validated: 19457
Position2: "'ss10' Equal Baseline Kerning Lookup-1" dx=0 dy=150 dh=0 dv=0
EndChar

StartChar: uni0430
Encoding: 1072 1072 111
Width: 345
GlyphClass: 2
Flags: W
HStem: -9 118<25.5345 95> -1 21G<191.5 233.5> 366 20G<216.5 230.5>
VStem: 115 131<300.942 378.316>
AnchorPoint: "Left" 36 449.5 basechar 0
AnchorPoint: "Right" 295 450 basechar 0
AnchorPoint: "HalfMark" 185 499.5 basechar 0
AnchorPoint: "Numeral" 187 187 basechar 0
AnchorPoint: "Yerok" 185 450.9 basechar 0
AnchorPoint: "Diacritic" 185 500 basechar 0
LayerCount: 2
Fore
SplineSet
178 380 m 256xb0
 189 380 209 386 224 386 c 0
 237 386 246 382 246 370 c 0
 246 292 252 205 267 141 c 0
 274 111 283 79 291 53 c 0
 295 41 298 34 300 31 c 0
 302 28 303 25 303 23 c 0
 303 15 296 8 291 6 c 0
 281 0 262 2 246 0 c 0
 241 -1 236 -1 231 -1 c 2
 202 -1 l 2x70
 181 -1 184 89 175 106 c 1
 173 115 165 120 157 120 c 0
 151 120 145 117 140 111 c 256
 124 92 111 59 100 32 c 1
 90 4 71 -9 36 -9 c 0
 12 -9 1 12 1 35 c 0
 1 59 6 68 19 97 c 0
 40 142 76 185 100 231 c 0
 109 247 120 268 125 283 c 0
 127 288 128 294 128 300 c 0
 128 320 119 346 116 359 c 0
 116 361 115 363 115 364 c 0
 115 378 134 379 151 379 c 0
 159 379 171 380 178 380 c 256xb0
161 175 m 256
 161 194 160 233 141 233 c 0
 133 233 129 224 121 215 c 1
 110 199 97 177 88 158 c 0
 84 150 80 137 80 126 c 0
 80 117 83 109 94 109 c 0xb0
 96 109 99 110 103 111 c 0
 126 117 144 140 155 159 c 0
 159 166 161 171 161 175 c 256
EndSplineSet
Position2: "Numeral Kerning-1" dx=250 dy=0 dh=0 dv=0
EndChar

StartChar: uni0431
Encoding: 1073 1073 112
Width: 392
GlyphClass: 2
Flags: HW
HStem: 2 31<114.373 171.094> 120 48<123.043 168.163> 347 26<148.136 228.318> 367 20G<334 343>
VStem: 10 102<33.0117 119.978> 174 120<13 86.3144>
AnchorPoint: "Right" 331 450 basechar 0
AnchorPoint: "Left" 72 449.5 basechar 0
AnchorPoint: "HalfMark" 199 499.5 basechar 0
AnchorPoint: "Yerok" 288 452.7 basechar 0
AnchorPoint: "Diacritic" 200 494 basechar 0
LayerCount: 2
Fore
SplineSet
123 185 m 1xec
 124 181 119 168 131 168 c 0
 141 168 156 178 162 182 c 1
 173 187 190 198 205 198 c 0
 206 198 207 198 208 198 c 0
 220 196 232 179 240 169 c 1
 265 132 286 86 293 30 c 0
 294 25 294 21 294 20 c 0
 294 6 287 5 278 2 c 0
 277 1 270 2 258 2 c 0
 240 2 240 1 218 1 c 0
 198 1 165 2 147 2 c 256
 119 2 82 -1 53 -1 c 0
 38 -1 38 -1 34 -1 c 0
 23 0 10 11 10 24 c 0
 10 30 10 36 10 42 c 0
 10 146 23 260 45 346 c 0
 50 365 52 373 71 373 c 2
 160 373 l 2xec
 214 373 271 373 311 383 c 0
 321 385 330 387 338 387 c 256xdc
 348 387 352 380 352 372 c 0
 352 367 350 361 348 356 c 0
 340 342 315 319 306 306 c 0
 297 293 289 275 279 263 c 0
 276 259 272 257 269 257 c 0
 268 257 268 257 267 257 c 0
 254 257 237 291 237 304 c 1
 234 334 227 347 193 347 c 0
 167 347 149 344 146 328 c 1
 138 299 130 252 126 216 c 0
 124 203 123 192 123 185 c 1xec
134 120 m 0
 116 120 112 90 112 67 c 0
 112 49 117 33 132 33 c 0
 158 33 174 38 174 63 c 0
 174 95 166 120 134 120 c 0
EndSplineSet
Position2: "Numeral Kerning-1" dx=250 dy=0 dh=0 dv=0
EndChar

StartChar: uni0432
Encoding: 1074 1074 113
Width: 367
GlyphClass: 2
Flags: HW
HStem: -12 21G<39 65.5> -0 45<125.94 211.856> 212 68<157.118 191.859> 350 22<165.412 199.998>
VStem: 216 111<60.4709 152.186>
AnchorPoint: "Right" 295 450 basechar 0
AnchorPoint: "Left" 36 449.5 basechar 0
AnchorPoint: "HalfMark" 199 499.5 basechar 0
AnchorPoint: "Numeral" 170 191 basechar 0
AnchorPoint: "Diacritic" 200 493 basechar 0
AnchorPoint: "Yerok" 272 451.7 basechar 0
LayerCount: 2
Fore
SplineSet
80 375 m 0xb8
 111 375 145 372 179 372 c 1
 211 375 239 379 270 381 c 0
 273 382 276 382 278 382 c 0
 292 382 298 378 298 368 c 0
 298 344 271 332 256 321 c 0
 248 315 248 315 244 312 c 0
 232 300 218 283 209 268 c 0
 206 263 204 258 204 255 c 0
 204 250 207 242 211 242 c 1
 224 246 235 249 248 253 c 0
 251 254 254 254 257 254 c 0
 266 254 272 250 278 244 c 1
 290 220 297 184 305 153 c 0
 312 126 319 95 324 67 c 0
 326 55 327 46 327 39 c 0
 326 15 321 4 300 1 c 1
 238 1 l 2
 217 1 185 -0 167 -0 c 256x78
 129 -0 84 -12 47 -12 c 1
 31 -10 29 -11 19 1 c 1
 13 10 10 23 10 38 c 0
 14 109 21 173 30 243 c 0
 34 278 40 311 47 342 c 0
 50 356 54 376 68 376 c 0
 69 376 69 376 70 375 c 1
 73 375 77 375 80 375 c 0xb8
157 305 m 0
 157 295 160 280 169 280 c 0
 178 280 189 298 194 305 c 0
 200 314 202 322 202 330 c 0
 202 335 201 340 200 346 c 0
 200 349 197 350 193 350 c 0
 166 350 157 334 157 305 c 0
161 211 m 0
 151 206 147 205 142 192 c 0
 133 167 128 131 126 99 c 0
 125 90 124 80 124 71 c 0
 124 56 127 45 140 45 c 0
 141 45 141 45 142 45 c 0
 153 46 165 46 180 46 c 2
 181 46 l 2
 202 46 209 46 212 60 c 0
 215 70 216 83 216 95 c 0
 216 104 216 104 216 109 c 256
 216 137 203 175 194 196 c 1
 189 205 184 210 179 210 c 256
 173 210 168 212 165 212 c 0
 163 212 162 212 161 211 c 0
EndSplineSet
EndChar

StartChar: uni0433
Encoding: 1075 1075 114
Width: 393
GlyphClass: 2
Flags: HW
HStem: -0 21G<64.5 107.5> 352 34<139.292 229.431> 374 20G<338.5 346>
VStem: 10 123<2.09812 41.4404 175.274 309.345>
AnchorPoint: "Right" 333 450 basechar 0
AnchorPoint: "Left" 74 449.5 basechar 0
AnchorPoint: "HalfMark" 200 499.5 basechar 0
AnchorPoint: "Numeral" 180 190 basechar 0
AnchorPoint: "Diacritic" 200 500 basechar 0
AnchorPoint: "Yerok" 300 464.7 basechar 0
LayerCount: 2
Fore
SplineSet
133 19 m 0xd0
 133 3 117 -0 98 -0 c 0
 89 -0 80 -0 72 -0 c 0
 57 1 35 2 23 2 c 1
 16 4 10 12 10 20 c 0
 10 77 11 157 18 210 c 256
 19 221 21 234 22 250 c 1
 25 273 25 273 28 296 c 0
 32 336 30 384 66 389 c 0
 68 390 75 389 88 389 c 0
 114 388 146 386 174 386 c 0
 195 386 195 386 202 386 c 0xd0
 238 386 287 391 323 393 c 0
 330 393 336 394 341 394 c 0xb0
 351 394 357 392 357 382 c 0
 357 375 351 371 345 366 c 1
 319 337 294 307 274 273 c 0
 270 266 268 256 260 258 c 0
 256 260 253 264 252 273 c 256
 247 305 240 338 210 348 c 0
 200 351 188 352 176 352 c 0
 172 352 169 352 165 352 c 0
 150 351 140 345 139 333 c 1
 139 316 135 288 133 266 c 0
 131 239 127 201 127 174 c 0
 127 133 128 81 132 42 c 1
 132 30 133 22 133 19 c 0xd0
EndSplineSet
Position2: "Numeral Kerning-1" dx=250 dy=0 dh=0 dv=0
EndChar

StartChar: uni0435
Encoding: 1077 1077 115
Width: 236
GlyphClass: 2
Flags: HW
HStem: -0 114<65 160> 303 82<102.371 186.751>
VStem: 0 95<152.365 293.46>
AnchorPoint: "Right" 201 450 basechar 0
AnchorPoint: "Left" 36 449.5 basechar 0
AnchorPoint: "HalfMark" 135 499.5 basechar 0
AnchorPoint: "Numeral" 102 185 basechar 0
AnchorPoint: "Diacritic" 135 523 basechar 0
AnchorPoint: "Yerok" 135 522.7 basechar 0
LayerCount: 2
Fore
SplineSet
160 114 m 0
 173 114 180 108 180 97 c 0
 180 76 158 43 154 37 c 256
 139 17 99 -0 65 -0 c 0
 61 -0 57 -0 53 1 c 0
 3 20 24 93 8 143 c 0
 3 160 0 182 0 205 c 0
 0 283 31 331 80 358 c 0
 107 374 124 385 168 385 c 0
 190 385 197 381 197 363 c 0
 197 348 191 333 187 322 c 0
 182 311 157 307 142 303 c 0
 126 298 102 291 99 275 c 0
 97 268 95 256 95 245 c 0
 95 232 98 220 106 219 c 1
 115 216 117 219 124 223 c 0
 131 228 153 243 168 243 c 0
 181 243 183 225 183 210 c 0
 183 203 182 195 181 189 c 0
 178 175 141 171 129 167 c 0
 120 165 110 153 110 141 c 0
 110 133 110 122 110 113 c 0
 110 105 111 97 119 98 c 256
 133 100 144 114 160 114 c 0
EndSplineSet
Position2: "Numeral Kerning-1" dx=250 dy=0 dh=0 dv=0
EndChar

StartChar: uni0436
Encoding: 1078 1078 116
Width: 563
GlyphClass: 2
Flags: HW
HStem: 0 18G<47.5 72.5 219.5 284.5 429 448.5> 300 82<386 487.844> 302 63<134.828 186.378>
VStem: 6 102<5.31494 84.7789> 35 99<237 301.132> 215 105.5<7.19336 154.944> 241 98<319 374.673> 410 110<3.77344 77.2207>
DStem2: 152 213 166 175 0.707107 0.707107<-100.045 -25.7581 0 68.5894>
AnchorPoint: "Right" 497 450 basechar 0
AnchorPoint: "Left" 36 449.5 basechar 0
AnchorPoint: "HalfMark" 295 499.5 basechar 0
AnchorPoint: "Diacritic" 295 493 basechar 0
AnchorPoint: "Yerok" 462 457.7 basechar 0
LayerCount: 2
Fore
SplineSet
448 -3 m 0xcb
 431 -3 410 3 410 21 c 2
 410 21 412 39 409 50 c 0
 406 63 403 71 395 82 c 0
 370 116 326 166 326 166 c 1
 326 141 320 116 320 89 c 0
 320 76 321 57 321 43 c 0
 321 31 320 12 314 7 c 0
 305 1 282 0 265 0 c 2
 254 0 l 2
 243 0 233 -3 224 0 c 1
 216 4 215 25 215 41 c 2
 215 56 l 2
 215 71 217 87 218 104 c 2
 233 235 l 1
 209 215 185 198 166 175 c 0
 146 151 137 139 124 112 c 0
 114 90 108 74 108 43 c 2
 108 35 l 2
 108 25 108 15 109 5 c 1
 109 5 101 -2 95 -3 c 0
 82 -6 74 -6 63 -6 c 2
 54 -6 l 2
 40 -6 6 1 6 11 c 0xd5
 6 59 21 78 46 107 c 0
 74 139 103 167 135 197 c 1
 127 208 l 1
 115 206 94 202 76 202 c 0
 39 202 35 218 35 258 c 0
 35 270 36 283 36 293 c 0
 37 316 36 346 47 351 c 0
 72 364 118 365 154 365 c 0xa9
 178 365 198 352 213 342 c 0
 223 335 232 327 241 319 c 1
 241 332 243 344 244 356 c 1
 244 370 252 375 266 375 c 0
 283 375 298 377 314 377 c 0
 321 377 327 377 332 376 c 1
 339 370 339 354 339 341 c 0
 339 333 338 324 337 315 c 1
 360 338 388 359 420 374 c 0
 430 379 455 382 478 382 c 0
 502 382 523 378 523 364 c 0
 523 361 522 357 520 353 c 0
 505 329 475 292 453 268 c 1
 438 270 427 274 415 286 c 1
 409 294 400 300 390 300 c 0
 384 300 379 298 374 294 c 0
 359 282 349 273 336 260 c 1
 376 220 l 2
 391 205 416 183 427 168 c 1
 459 130 502 89 517 33 c 0
 519 28 520 24 520 20 c 0
 520 10 513 6 502 4 c 0
 487 2 466 -3 448 -3 c 0xcb
152 213 m 1
 161 222 l 2
 174 235 189 247 202 260 c 1
 183 285 l 2
 175 294 167 302 158 302 c 2
 155 302 l 2
 146 302 135 297 134 287 c 1
 134 270 l 1
 134 237 l 1xa9
 152 213 l 1
EndSplineSet
EndChar

StartChar: uni0437
Encoding: 1079 1079 117
Width: 488
GlyphClass: 2
Flags: HW
HStem: -191 88<188.523 258.996> -112 81<-3.73438 58.718> 73 118<193.978 272.943> 327 59<154.527 300.001>
VStem: 299 113<-75.3445 44.0941> 343 105<176.262 285.911>
AnchorPoint: "Right" 422 450 basechar 0
AnchorPoint: "Left" 36 449.5 basechar 0
AnchorPoint: "HalfMark" 285 499.5 basechar 0
AnchorPoint: "Numeral" 226 122.3 basechar 0
AnchorPoint: "Diacritic" 285 500.3 basechar 0
AnchorPoint: "Yerok" 406 441 basechar 0
LayerCount: 2
Fore
SplineSet
-52 -91 m 1x78
 -52 -86 -53 -84 -53 -80 c 0
 -53 -76 -49 -74 -45 -71 c 0
 -34 -60 -1 -52 18 -47 c 0
 39 -41 70 -33 89 -31 c 0
 91 -31 93 -31 95 -31 c 0x78
 120 -31 141 -49 157 -62 c 1
 180 -77 211 -97 243 -102 c 0
 245 -103 247 -103 249 -103 c 0
 269 -103 286 -86 290 -76 c 1
 294 -62 299 -49 299 -29 c 0
 299 -27 299 -25 299 -22 c 0xb8
 297 10 279 43 265 65 c 0
 262 71 259 73 255 73 c 0
 248 73 241 68 234 64 c 1
 221 59 200 50 183 50 c 0
 166 50 136 59 128 68 c 256
 122 75 119 91 119 105 c 0
 119 108 119 111 119 114 c 0
 119 129 133 144 142 153 c 0
 149 161 163 175 173 177 c 1
 180 181 208 191 224 191 c 0
 250 191 273 177 291 167 c 0
 298 163 305 158 311 153 c 1
 327 165 341 183 343 210 c 0
 343 214 343 218 343 222 c 0
 343 250 335 263 324 282 c 0
 314 299 292 312 272 320 c 0
 261 325 247 327 232 327 c 0
 205 327 175 320 160 311 c 0
 146 303 122 282 117 269 c 256
 114 262 111 242 107 236 c 256
 102 228 75 224 64 222 c 1
 51 218 38 216 23 216 c 1
 9 218 5 231 5 245 c 0
 5 249 6 254 6 258 c 0
 6 259 8 263 11 271 c 0
 14 279 22 289 32 300 c 0
 78 348 165 383 261 386 c 0
 263 386 266 386 268 386 c 0
 319 386 348 372 380 352 c 1
 414 332 448 305 448 254 c 0xb4
 448 236 443 220 441 203 c 1
 433 176 407 155 384 141 c 0
 370 133 355 126 338 120 c 1
 353 93 384 61 400 36 c 0
 411 18 412 -5 412 -29 c 0
 412 -36 412 -44 412 -51 c 0
 412 -65 408 -76 400 -84 c 0
 364 -118 311 -146 264 -167 c 0
 239 -178 215 -188 192 -191 c 0
 188 -191 184 -191 181 -191 c 0xb8
 165 -191 158 -185 144 -174 c 0
 126 -160 102 -143 83 -129 c 0
 73 -122 65 -117 59 -114 c 1
 53 -113 46 -112 40 -112 c 0
 20 -112 -1 -117 -16 -122 c 1
 -23 -123 -27 -124 -30 -124 c 1
 -40 -119 -49 -102 -52 -91 c 1x78
EndSplineSet
Position2: "Numeral Kerning-1" dx=250 dy=0 dh=0 dv=0
EndChar

StartChar: uni0438
Encoding: 1080 1080 118
Width: 441
GlyphClass: 2
Flags: HW
HStem: -2 20G<258.5 274 361.5 372.5> 210 30<192.039 236.388> 371 20G<159 171 383.5 396.5>
VStem: 10 114<10.1897 181.496> 252 128<0.0863342 164.797> 257 106<8.32959 209.998>
AnchorPoint: "Right" 389 450 basechar 0
AnchorPoint: "Left" 78 449.5 basechar 0
AnchorPoint: "HalfMark" 274 499.5 basechar 0
AnchorPoint: "Numeral" 202 204 basechar 0
AnchorPoint: "Diacritic" 275 502 basechar 0
AnchorPoint: "Yerok" 346 462.7 basechar 0
LayerCount: 2
Fore
SplineSet
252 75 m 0xf8
 252 111 257 175 257 196 c 256
 257 207 253 210 247 210 c 0
 240 210 231 206 223 204 c 0
 197 195 162 188 130 183 c 1
 126 151 124 114 124 80 c 0
 124 58 125 33 127 16 c 1
 127 6 121 2 112 2 c 0
 108 2 105 3 101 4 c 0
 91 5 80 6 69 6 c 0
 65 6 61 6 58 6 c 0
 51 6 38 4 28 4 c 0
 20 4 13 5 12 10 c 1
 10 14 10 21 10 30 c 0
 10 40 10 51 12 66 c 0
 18 119 34 246 45 295 c 0
 52 324 56 342 57 350 c 0
 61 372 69 382 89 382 c 2
 101 382 l 2
 112 382 126 385 134 386 c 0
 139 386 153 391 165 391 c 0
 177 391 181 384 181 374 c 0
 181 359 166 341 161 332 c 256
 148 309 141 271 138 240 c 1
 170 240 208 249 233 254 c 0
 248 258 256 257 259 268 c 0
 260 271 260 273 259 275 c 1
 262 298 265 320 270 342 c 0
 274 359 274 370 289 374 c 256
 304 378 317 377 337 379 c 1
 359 383 374 389 393 389 c 0
 400 389 404 383 404 377 c 0
 404 374 403 371 401 368 c 0
 383 342 379 308 372 270 c 0
 367 238 363 203 363 167 c 0xf4
 363 120 370 73 376 34 c 0
 377 24 380 15 380 8 c 0
 380 1 377 -3 368 -3 c 256
 355 -3 335 -0 318 -0 c 256
 298 -0 283 -2 265 -2 c 256
 252 -2 255 4 253 15 c 1
 252 37 252 57 252 75 c 0xf8
EndSplineSet
Position2: "Numeral Kerning-1" dx=250 dy=0 dh=0 dv=0
EndChar

StartChar: uni0439
Encoding: 1081 1081 119
Width: 450
GlyphClass: 2
Flags: HW
HStem: -1 20G<258.5 274 361.5 372.5> 211 30<192.039 236.388> 372 20G<159 171 383.5 396.5> 491 84<197 296.79>
VStem: 10 114<11.1897 182.496> 145 93<527.5 601.927> 252 128<1.08633 165.797> 257 106<9.32959 210.998>
AnchorPoint: "Right" 347 754 basechar 0
AnchorPoint: "Left" 340 751.5 basechar 0
AnchorPoint: "HalfMark" 333 499.5 basechar 0
AnchorPoint: "Diacritic" 332 753 basechar 0
AnchorPoint: "Yerok" 447 445.7 basechar 0
LayerCount: 2
Fore
SplineSet
215 491 m 0xfc
 179 491 145 509 145 546 c 0
 145 566 156 585 167 602 c 1
 177 620 193 635 208 649 c 0
 219 659 233 669 245 675 c 0
 251 678 256 680 261 680 c 0
 269 680 274 677 274 666 c 1
 266 650 263 647 246 620 c 0
 240 611 238 603 238 597 c 0
 238 582 252 575 270 575 c 0
 303 575 320 598 336 619 c 0
 348 634 362 657 372 671 c 0
 378 678 383 682 389 682 c 0
 391 682 393 681 394 681 c 0
 405 676 410 668 410 659 c 0
 410 619 339 547 326 535 c 0
 297 508 262 491 215 491 c 0xfc
252 76 m 0xfe
 252 112 257 176 257 197 c 256
 257 208 253 211 247 211 c 0
 240 211 231 207 223 205 c 0
 197 196 162 189 130 184 c 1
 126 152 124 115 124 81 c 0
 124 59 125 34 127 17 c 1
 127 7 121 3 112 3 c 0
 108 3 105 4 101 5 c 0
 91 6 80 7 69 7 c 0
 65 7 61 7 58 7 c 0
 51 7 38 5 28 5 c 0
 20 5 13 6 12 11 c 1
 10 15 10 22 10 31 c 0
 10 41 10 52 12 67 c 0
 18 120 34 247 45 296 c 0
 52 325 56 343 57 351 c 0
 61 373 69 383 89 383 c 2
 101 383 l 2
 112 383 126 386 134 387 c 0
 139 387 153 392 165 392 c 0
 177 392 181 385 181 375 c 0
 181 360 166 342 161 333 c 256
 148 310 141 272 138 241 c 1
 170 241 208 250 233 255 c 0
 248 259 256 258 259 269 c 0
 260 272 260 274 259 276 c 1
 262 299 265 321 270 343 c 0
 274 360 274 371 289 375 c 256
 304 379 317 378 337 380 c 1
 359 384 374 392 393 392 c 0
 400 392 404 384 404 378 c 0
 404 375 403 372 401 369 c 0
 383 343 379 309 372 271 c 0
 367 239 363 204 363 168 c 0xfd
 363 121 370 74 376 35 c 0
 377 25 380 16 380 9 c 0
 380 2 377 -2 368 -2 c 256
 355 -2 335 1 318 1 c 256
 298 1 283 -1 265 -1 c 256
 252 -1 255 5 253 16 c 1
 252 38 252 58 252 76 c 0xfe
EndSplineSet
LCarets2: 1 0
Ligature2: "'ccmp' Canonical Equivalents-1" uni0438 uni0306
EndChar

StartChar: uni043A
Encoding: 1082 1082 120
Width: 469
GlyphClass: 2
Flags: HW
HStem: -0 21G<92.5 108> 306 73<307.394 435> 367 20G<153 165.5>
VStem: 10 124<3.94369 313.535> 24 104<16.6003 294.657> 184 59<191.5 236.273> 237 113<6.17836 109.799>
AnchorPoint: "Right" 418 450 basechar 0
AnchorPoint: "Left" 36 449.5 basechar 0
AnchorPoint: "HalfMark" 255 499.5 basechar 0
AnchorPoint: "Numeral" 203 208.1 basechar 0
AnchorPoint: "Diacritic" 255 518 basechar 0
AnchorPoint: "Yerok" 394 458.7 basechar 0
LayerCount: 2
Fore
SplineSet
296 6 m 256xc2
 281 6 265 2 251 2 c 0
 242 2 237 12 237 24 c 0xc2
 237 77 220 126 200 162 c 0
 191 178 184 185 184 198 c 0
 184 202 185 208 187 215 c 1
 207 254 232 292 264 324 c 1
 278 340 295 352 313 360 c 1
 339 374 392 379 429 379 c 0
 441 379 450 377 450 370 c 0
 450 367 449 364 446 360 c 0
 440 349 418 332 410 320 c 256
 403 311 391 271 375 271 c 0
 366 271 362 278 358 290 c 1
 353 301 345 306 335 306 c 0
 308 306 270 268 260 256 c 0
 258 253 243 233 243 224 c 0xc4
 243 218 252 213 258 216 c 0
 262 217 264 218 267 218 c 0
 274 218 279 212 285 204 c 0
 317 157 336 96 348 28 c 0
 349 23 350 19 350 15 c 0
 350 8 348 3 340 3 c 0
 327 3 310 6 296 6 c 256xc2
159 387 m 0xa8
 172 387 184 375 184 363 c 0
 184 347 166 333 160 322 c 0
 153 311 148 287 144 270 c 0
 133 229 128 184 128 132 c 0xac
 128 92 130 49 134 15 c 1
 134 -0 117 -0 99 -0 c 2
 98 -0 l 2
 87 -0 75 1 68 1 c 0
 53 2 15 3 11 11 c 0
 10 13 10 17 10 22 c 0
 10 25 10 30 10 35 c 0xb0
 14 76 22 125 24 167 c 256
 26 211 28 268 30 312 c 0
 32 345 33 362 61 367 c 0xa8
 82 371 108 373 126 379 c 0xc8
 134 381 147 387 159 387 c 0xa8
EndSplineSet
Position2: "Numeral Kerning-1" dx=250 dy=0 dh=0 dv=0
EndChar

StartChar: uni043B
Encoding: 1083 1083 121
Width: 369
GlyphClass: 2
Flags: HW
HStem: 0 20G<6 35.5 248 256> 370 20G<277.5 282.5>
VStem: 0 98<1.08563 82.3718> 168 124<261.977 379.208> 168 115<261.977 377.873>
AnchorPoint: "Right" 295 450 basechar 0
AnchorPoint: "Left" 36 449.5 basechar 0
AnchorPoint: "HalfMark" 236 499.5 basechar 0
AnchorPoint: "Numeral" 213 181.1 basechar 0
AnchorPoint: "Diacritic" 236 522 basechar 0
AnchorPoint: "Yerok" 236 459.7 basechar 0
LayerCount: 2
Fore
SplineSet
269 0 m 1xe8
 264 -1 259 -1 253 -1 c 0
 243 -1 232 0 223 0 c 256
 209 0 208 14 206 29 c 0
 199 77 192 134 188 183 c 1
 186 193 186 200 186 203 c 0
 185 215 183 219 179 219 c 0
 174 219 167 209 162 201 c 0
 146 178 129 148 119 120 c 1
 112 95 105 65 100 38 c 0
 99 29 103 14 98 11 c 0
 92 6 90 2 76 1 c 1
 61 1 43 0 28 0 c 2
 10 0 l 2
 2 0 0 8 0 18 c 0
 0 28 1 39 4 46 c 0
 21 85 49 133 74 164 c 256
 97 193 128 233 149 265 c 0
 162 285 168 297 168 322 c 0
 168 330 168 339 168 346 c 0
 168 350 168 353 168 356 c 0
 168 385 199 379 225 381 c 1
 237 383 257 388 269 389 c 0
 272 390 276 390 279 390 c 0
 286 390 292 387 292 379 c 0xf0
 292 355 283 328 283 300 c 0
 283 297 283 294 283 291 c 0
 286 233 291 171 303 123 c 0
 309 99 316 74 322 53 c 1
 328 38 333 35 333 21 c 0
 333 5 316 6 302 3 c 1
 292 2 279 0 269 0 c 1xe8
EndSplineSet
Position2: "Numeral Kerning-1" dx=250 dy=0 dh=0 dv=0
EndChar

StartChar: uni043C
Encoding: 1084 1084 122
Width: 660
GlyphClass: 2
Flags: HW
HStem: -5 24G<17 43 246 254 346 356.5 499.5 505 593 602.5> 236 142<170.416 289.5>
VStem: 0 105<-0.836334 85.4706> 163 129<267.91 361.722>
AnchorPoint: "Right" 585 450 basechar 0
AnchorPoint: "Left" 36 449.5 basechar 0
AnchorPoint: "HalfMark" 370 499.5 basechar 0
AnchorPoint: "Numeral" 332 203.1 basechar 0
AnchorPoint: "Diacritic" 370 518 basechar 0
AnchorPoint: "Yerok" 476 451.7 basechar 0
LayerCount: 2
Fore
SplineSet
282 378 m 0
 297 378 297 373 301 362 c 0
 301 359 300 352 296 343 c 1
 294 334 292 323 292 311 c 0
 292 287 299 246 304 221 c 1
 306 201 310 184 313 168 c 0
 317 147 321 130 335 130 c 0
 349 130 352 136 362 151 c 1
 374 173 389 203 400 228 c 0
 414 262 410 302 420 341 c 0
 422 348 425 354 428 357 c 0
 445 368 477 366 497 373 c 0
 505 375 505 375 513 377 c 0
 521 380 532 382 540 382 c 0
 550 381 546 378 546 370 c 256
 546 284 571 140 600 63 c 0
 607 45 612 39 618 26 c 0
 619 23 620 21 620 18 c 0
 620 10 611 5 608 -0 c 0
 607 -1 605 -2 600 -2 c 0
 586 -2 568 -0 554 -0 c 256
 540 -0 523 -4 510 -6 c 0
 508 -6 506 -7 504 -7 c 0
 495 -7 492 -2 490 8 c 0
 477 73 460 157 455 232 c 1
 452 241 449 244 446 244 c 0
 439 244 433 228 428 217 c 0
 401 154 368 97 368 10 c 1
 369 3 360 -5 353 -5 c 256
 339 -5 313 -2 297 -1 c 0
 282 -1 261 -7 247 -7 c 0
 245 -7 244 -6 243 -6 c 0
 237 -0 233 -9 232 7 c 1
 228 34 225 82 221 115 c 0
 217 150 209 212 193 231 c 0
 190 234 186 236 183 236 c 0
 162 236 143 173 136 155 c 0
 122 119 112 74 106 30 c 1
 106 21 105 16 105 14 c 0
 105 -0 96 -0 81 -1 c 1
 68 -3 51 -5 35 -5 c 0
 33 -5 30 -5 28 -5 c 0
 6 -4 3 2 0 20 c 0
 0 22 0 25 0 27 c 0
 0 36 3 43 6 52 c 0
 11 73 29 98 42 119 c 1
 61 147 86 181 106 206 c 256
 132 237 149 283 160 327 c 0
 162 337 163 343 163 345 c 0
 163 354 168 356 173 362 c 0
 174 363 180 365 192 367 c 0
 218 373 252 378 282 378 c 0
EndSplineSet
Position2: "Numeral Kerning-1" dx=250 dy=0 dh=0 dv=0
EndChar

